<?xml version="1.0" encoding="utf-8"?>
<!-- Generator: Adobe Illustrator 19.0.0, SVG Export Plug-In . SVG Version: 6.00 Build 0)  -->
<svg version="1.1" id="Layer_1" xmlns="http://www.w3.org/2000/svg" xmlns:xlink="http://www.w3.org/1999/xlink" x="0px" y="0px"
	 viewBox="0 0 600 600" style="enable-background:new 0 0 600 600;" xml:space="preserve">
<style type="text/css">
	.st0{clip-path:url(#XMLID_2_);}
	.st1{fill:#444A4F;}
	.st2{fill:#474E53;}
	.st3{fill:#32244D;}
	.st4{fill:#483A6A;}
	.st5{fill:#7E1D35;}
	.st6{fill:#E61E67;}
	.st7{fill:#008AB6;}
	.st8{fill:#C2185B;}
	.st9{fill:#AD1457;}
	.st10{fill:#880E4F;}
	.st11{fill:#75211B;}
	.st12{fill:#140E23;}
	.st13{opacity:0.94;fill:#933C2B;}
	.st14{fill:#E5E5E4;}
	.st15{opacity:0.78;fill:none;stroke:#00AB4E;stroke-width:0.3206;stroke-miterlimit:10;}
	.st16{opacity:0.78;fill:#231F20;}
	.st17{font-family:'Helvetica';}
	.st18{font-size:8.5323px;}
	.st19{font-size:1.1653px;}
	.st20{opacity:0.94;fill:none;stroke:#00B05B;stroke-width:0.3206;stroke-miterlimit:10;}
	.st21{font-size:7.7004px;}
	.st22{font-size:1.0517px;}
	
		.st23{opacity:0.6;fill:none;stroke:#AAAAAA;stroke-width:7.9871;stroke-linecap:round;stroke-miterlimit:10;stroke-dasharray:3.9936,26.6237;}
	.st24{clip-path:url(#XMLID_3_);}
	.st25{fill:#EEE7DA;}
	.st26{fill:#CABF9D;}
	.st27{fill:#958E76;}
	.st28{fill:#D1CAAD;}
	.st29{fill:#4F3A50;}
	.st30{fill:#664C67;}
	.st31{fill:url(#XMLID_4_);}
	.st32{fill:#F58E73;}
	.st33{fill:#DCAC51;}
	.st34{fill:#AB4834;}
	.st35{fill:#D45A44;}
	.st36{fill:#FDC985;}
	.st37{fill:#3F2C40;}
	.st38{fill:#CBA386;}
	.st39{fill:#B74457;}
	.st40{fill:#FDCD94;}
	.st41{fill:#304156;}
	.st42{fill:#1E2C3E;}
	.st43{opacity:0.1;fill:none;stroke:#000000;stroke-width:3;stroke-miterlimit:10;}
</style>
<g id="XMLID_125_">
	<defs>
		<path id="XMLID_133_" d="M581.4,589H11.2c-3.1,0-5.5-2.5-5.5-5.5v-567c0-3.1,2.5-5.5,5.5-5.5h570.2c3.1,0,5.5,2.5,5.5,5.5v567
			C586.9,586.5,584.4,589,581.4,589z"/>
	</defs>
	<clipPath id="XMLID_2_">
		<use xlink:href="#XMLID_133_"  style="overflow:visible;"/>
	</clipPath>
	<g id="XMLID_136_" class="st0">
		<g id="XMLID_162_">
			<path id="XMLID_2952_" class="st1" d="M203.6,19.6l-13.7,3.2l-2.8,17.5l-1.5,11.8l-6,10.7l1.9,6.1c0,0,11-6.8,19.6-14.6
				c0.8-0.7,1.6-1.4,2.2-2.1c0.2-0.3,4.5-5.6,5.2-15.8V23.3C208.5,23.3,206.7,19.4,203.6,19.6z"/>
			<path id="XMLID_2951_" class="st2" d="M490.9,226.9l-12.4,2.9l-2.5,15.8l-1.4,10.6l-5.4,9.7l1.7,5.5c0,0,9.9-6.1,17.7-13.2
				c0.7-0.6,1.4-1.3,2-1.9c0.2-0.3,4-5.1,4.7-14.3v-11.8C495.4,230.1,493.8,226.6,490.9,226.9z"/>
			<path id="XMLID_2949_" class="st3" d="M236.7,28.3l-7.4-5.4l3.2,4.2c0,0-0.1,0-0.1,0H130.6c-4.6,0-8.5,3.8-8.5,8.5V38
				c0,4.6,3.8,8.5,8.5,8.5h101.8c4.6,0,8.5-3.8,8.5-8.5v-2.5C240.8,32.4,239.2,29.8,236.7,28.3z"/>
			<rect id="XMLID_2947_" x="134.5" y="46.5" class="st4" width="11.6" height="81.4"/>
			<polygon id="XMLID_2945_" class="st3" points="146.1,127.9 154,119.9 154,39.1 146.1,46.2 			"/>
			<rect id="XMLID_2940_" x="211" y="46.5" class="st4" width="11.6" height="81.4"/>
			<polygon id="XMLID_2939_" class="st3" points="222.6,127.9 230.5,119.9 230.5,39.1 222.6,46.2 			"/>
			<polygon id="XMLID_2938_" class="st5" points="102.7,570.4 149.3,537.3 126,524.7 102.7,537.3 			"/>
			<polygon id="XMLID_2937_" class="st5" points="220.5,570.4 267.2,537.3 243.8,524.7 220.5,537.3 			"/>
			<rect id="XMLID_2936_" x="197.3" y="537.3" class="st6" width="23.2" height="33.1"/>
			<path id="XMLID_2935_" class="st7" d="M256.5,226.4c-0.4,0.3-0.9,0.7-1.3,1c-11.3-14.4-27.6-35.7-27.6-35.7l17-11.1
				c7.5,0.7,14.2,4.6,18.6,10.3c0.7,0.9,1.3,1.8,1.9,2.8c3.7,11,3.7,23.2-6.6,31.1C257.8,225.3,257.2,225.8,256.5,226.4z"/>
			<path id="XMLID_2934_" class="st7" d="M292.3,205.2c0,0-25.2,35.7-26.7,35c-0.5-0.3-4.8-5.6-10.4-12.7c2.4-1.5,4.5-3,6.3-4.5
				c0.7-0.5,1.3-1.1,2-1.6c10.1-7.8,10.1-19.8,6.5-30.7c-0.6-1-1.2-1.9-1.9-2.8c-4.5-5.8-11.4-9.7-19.1-10.2l14.1-9.2h13
				L292.3,205.2z"/>
			<path id="XMLID_2933_" class="st8" d="M333.3,124l-7.4,5.2l-2.6,1.8l-3.9,2.7l-2.5,1.8L39.3,330.9v-149l-13.4-30.5l5.6-11.6
				l-5.6-0.3l13.6-16.1l8-9.5l2.5-3l2.5-3l2.2-2.6c0,0,0.2-0.2,0.5-0.4c1.8-1.4,8-5.9,14.2-6.3c0.2,0,0.5,0,0.7,0h233
				C317.8,98.7,330.2,109.5,333.3,124z"/>
			<path id="XMLID_2932_" class="st9" d="M39.3,473.4V330.9l294-207c0.5,2.3,0.8,4.6,0.8,7.1v342.4c0,9.6-4.1,18.2-10.5,24.2v0
				l-34.5,39.7l-24.4-31.6H70.2C53.2,505.8,39.3,491.2,39.3,473.4z"/>
			<path id="XMLID_2931_" class="st6" d="M46.2,127h227c14.5,0,26.4,11.9,26.4,26.4v365.9c0,14.5-11.9,26.4-26.4,26.4h-227
				c-14.5,0-26.4-11.9-26.4-26.4V153.4C19.7,138.9,31.6,127,46.2,127z"/>
			<path id="XMLID_2930_" class="st9" d="M263.5,221.4c-0.6,0.5-1.3,1-2,1.6c-1.9,1.4-4,3-6.3,4.5c0,0,0,0,0,0
				c0.5-0.3,0.9-0.7,1.3-1c0.7-0.5,1.3-1.1,2-1.6c10.3-7.9,10.3-20,6.6-31.1c-0.6-1-1.2-1.9-1.9-2.8c-4.4-5.7-11-9.6-18.6-10.3
				l4.4-2.9c7.7,0.5,14.6,4.4,19.1,10.2c0.7,0.9,1.3,1.8,1.9,2.8C273.6,201.6,273.6,213.6,263.5,221.4z"/>
			<path id="XMLID_2929_" class="st9" d="M247.2,177.6c0.6,0,1.2,0,1.7,0.1l-4.4,2.9c-0.8-0.1-1.7-0.1-2.5-0.1H64.5
				c-1.8,0-3.5,0.2-5.2,0.5c3.8-2.1,8.1-3.3,12.7-3.3H247.2z"/>
			<path id="XMLID_2928_" class="st7" d="M255.2,227.4c-0.2,0.1-0.4,0.3-0.6,0.4C254.8,227.7,255,227.5,255.2,227.4
				C255.2,227.4,255.2,227.4,255.2,227.4z"/>
			<path id="XMLID_2927_" class="st8" d="M49.3,190.7c0.6-1,1.2-1.9,1.9-2.8c2.2-2.8,5-5.2,8.1-7c1.7-0.3,3.4-0.5,5.2-0.5H242
				c8.6,0,16.2,4.1,21.1,10.4c0.7,0.9,1.3,1.8,1.9,2.8c3.7,11,3.7,23.2-6.6,31.1c-0.6,0.5-1.3,1.1-2,1.6c-0.6,0.5-1.2,0.9-1.9,1.4
				c0,0-0.1,0-0.1,0.1c-16.3,10.2-45,21-93.3,21h-3c-56.2,0-85.9-14.7-100.3-25.9c-0.7-0.5-1.3-1.1-2-1.6
				C45.7,213.6,45.7,201.6,49.3,190.7z"/>
			<rect id="XMLID_2926_" x="79.4" y="537.3" class="st6" width="23.2" height="33.1"/>
			<path id="XMLID_2925_" class="st10" d="M327.5,139.9v354.2h-3V139.9c0-2.4-0.3-4.8-0.8-7c-0.1-0.6-0.3-1.3-0.5-1.9
				c-3.8-13.5-16.1-23.1-29.9-23.1H58.1v0h-5.5l2.2-2.6c0,0,0.2-0.2,0.5-0.4h238.1c14.8,0,28,10,32.5,24.2c0.3,1,0.6,2,0.8,3.1
				C327.2,134.7,327.5,137.3,327.5,139.9z"/>
			<path id="XMLID_2924_" class="st10" d="M321.5,145.9v354.2h-3V145.9c0-2.4-0.3-4.8-0.8-7c-0.3-1.2-0.6-2.3-0.9-3.4
				c-4.3-12.7-16.2-21.6-29.5-21.6H54.7v0h-7.2l2.5-3h237.3c14.3,0,27.1,9.3,32,22.8c0.5,1.5,1,3,1.3,4.5
				C321.2,140.7,321.5,143.3,321.5,145.9z"/>
			<path id="XMLID_2913_" class="st4" d="M129.4,21.6h47.1c-1.2,0.9-2.7,2.7-3.1,6.3v1.3c0,0.5,0,1.5-0.1,2.6
				c-0.1,1.4-0.2,3.1-0.3,4.7c-0.1,1.7-0.3,3.3-0.6,4.6c-0.3,1.7-0.7,3.4-1.2,5.2h-41.9c-4,0-7.2-3.3-7.2-7.2V28.8
				C122.2,24.8,125.4,21.6,129.4,21.6z"/>
			<path id="XMLID_2893_" class="st4" d="M233.3,28.8v10.4c0,4-3.3,7.2-7.2,7.2h-25.4c1.6-5.7,2-11.2,2.1-15.2v-1.6
				c0.1-2.2,0.7-6.2,3.2-8.1h20.1C230.1,21.6,233.3,24.8,233.3,28.8z"/>
			<path id="XMLID_2892_" class="st9" d="M241.9,273.5l-8.5,5.9h-166c-5.8,0-11.2,1.9-15.6,5.2c5.1-6.8,12.9-11.2,21.6-11.2h166
				C240.3,273.4,241.1,273.5,241.9,273.5z"/>
			<path id="XMLID_2839_" class="st8" d="M45.6,475.4V303.7c0-7.2,2.3-13.9,6.2-19.1c4.5-3.3,9.8-5.2,15.6-5.2h166
				c15.4,0,27.8,13.6,27.8,30.3v171.7c0,7.2-2.3,13.9-6.2,19.1c-4.5,3.3-9.8,5.2-15.6,5.2h-166C58.1,505.8,45.6,492.2,45.6,475.4z"
				/>
			<path id="XMLID_2813_" class="st9" d="M267.3,303.7v171.7c0,10.4-4.8,19.6-12.2,25.1c3.9-5.2,6.2-11.9,6.2-19.1V309.7
				c0-16.7-12.5-30.3-27.8-30.3h0l8.5-5.9C256.1,274.9,267.3,287.9,267.3,303.7z"/>
			<path id="XMLID_2809_" class="st11" d="M511.4,235l-5.8-3.5l3.2,2.7c0,0-0.1,0-0.1,0h-62.8c-2.9,0-5.2,2.3-5.2,5.2v1.5
				c0,2.9,2.3,5.2,5.2,5.2h62.8c2.9,0,5.2-2.3,5.2-5.2v-1.5C513.9,237.6,512.9,236,511.4,235z"/>
			<rect id="XMLID_2807_" x="448.3" y="246.3" class="st6" width="7.2" height="50.2"/>
			<polygon id="XMLID_2799_" class="st11" points="455.5,296.5 460.3,291.6 460.3,241.7 455.5,246.1 			"/>
			<rect id="XMLID_2798_" x="495.5" y="246.3" class="st6" width="7.2" height="50.2"/>
			<polygon id="XMLID_2796_" class="st11" points="502.6,296.5 507.5,291.6 507.5,241.7 502.6,246.1 			"/>
			<polygon id="XMLID_2795_" class="st12" points="428.7,569.6 457.5,549.1 443.1,541.3 428.7,549.1 			"/>
			<polygon id="XMLID_2773_" class="st12" points="501.4,569.6 530.2,549.1 515.8,541.3 501.4,549.1 			"/>
			<rect id="XMLID_2769_" x="487" y="549.1" class="st4" width="14.3" height="20.4"/>
			<path id="XMLID_2735_" class="st7" d="M523.6,357.3c-0.3,0.2-0.5,0.4-0.8,0.6c-6.9-8.9-17-22-17-22l10.5-6.9
				c4.7,0.4,8.7,2.8,11.5,6.3c0.4,0.6,0.8,1.1,1.2,1.8c2.3,6.8,2.3,14.3-4.1,19.2C524.4,356.6,524,356.9,523.6,357.3z"/>
			<path id="XMLID_2715_" class="st7" d="M545.7,344.2c0,0-15.6,22-16.5,21.6c-0.3-0.2-3-3.5-6.4-7.9c1.5-0.9,2.8-1.9,3.9-2.8
				c0.4-0.3,0.8-0.7,1.2-1c6.2-4.8,6.2-12.2,4-18.9c-0.3-0.6-0.7-1.2-1.2-1.7c-2.8-3.6-7-6-11.8-6.3l8.7-5.7h8L545.7,344.2z"/>
			<path id="XMLID_2714_" class="st3" d="M571,294.1l-4.5,3.2l-0.1,0.1l-1.5,1.1l-0.1,0.1l-2.2,1.6l-0.1,0.1l-1.4,1l-0.2,0.1
				L393.5,421.8v-91.9l-8.1-18.8l3.4-7.1l-3.4-0.2l8.2-9.9l4.8-5.9l1.5-1.9l1.5-1.8l0,0l1.3-1.6c0,0,0.1-0.1,0.3-0.3
				c1.1-0.9,4.9-3.7,8.6-3.9c0.1,0,0.3,0,0.4,0h140.6C561.6,278.5,569.1,285.2,571,294.1z"/>
			<path id="XMLID_2712_" class="st12" d="M389.5,509.7v-87.9l181.4-127.7c0.3,1.4,0.5,2.9,0.5,4.4v211.2c0,5.9-2.5,11.2-6.5,14.9v0
				l-23,22.3l-13.3-17.3h-120C398.1,529.6,389.5,520.7,389.5,509.7z"/>
			<path id="XMLID_2711_" class="st4" d="M403.9,295.9h119.8c14.5,0,26.4,11.9,26.4,26.4v205.5c0,14.5-11.9,26.4-26.4,26.4H403.9
				c-14.5,0-26.4-11.9-26.4-26.4V322.4C377.5,307.8,389.4,295.9,403.9,295.9z"/>
			<path id="XMLID_2675_" class="st12" d="M527.9,354.2c-0.4,0.3-0.8,0.6-1.2,1c-1.1,0.9-2.4,1.8-3.9,2.8c0,0,0,0,0,0
				c0.3-0.2,0.6-0.4,0.8-0.6c0.4-0.3,0.8-0.7,1.2-1c6.3-4.9,6.3-12.4,4.1-19.2c-0.4-0.6-0.7-1.2-1.2-1.8c-2.7-3.5-6.8-5.9-11.5-6.3
				l2.7-1.8c4.8,0.3,9,2.7,11.8,6.3c0.4,0.6,0.8,1.1,1.2,1.7C534.1,342,534.1,349.4,527.9,354.2z"/>
			<path id="XMLID_2657_" class="st12" d="M517.9,327.2c0.4,0,0.7,0,1.1,0l-2.7,1.8c-0.5-0.1-1-0.1-1.6-0.1H405.1
				c-1.1,0-2.2,0.1-3.2,0.3c2.3-1.3,5-2.1,7.9-2.1H517.9z"/>
			<path id="XMLID_2653_" class="st7" d="M522.8,357.9c-0.1,0.1-0.2,0.2-0.4,0.2C522.5,358.1,522.6,358,522.8,357.9
				C522.7,357.9,522.8,357.9,522.8,357.9z"/>
			<path id="XMLID_2652_" class="st3" d="M395.8,335.3c0.3-0.6,0.7-1.2,1.2-1.7c1.4-1.7,3.1-3.2,5-4.3c1-0.2,2.1-0.3,3.2-0.3h109.5
				c5.3,0,10,2.5,13,6.4c0.4,0.6,0.8,1.1,1.2,1.8c2.3,6.8,2.3,14.3-4.1,19.2c-0.4,0.3-0.8,0.7-1.2,1c-0.4,0.3-0.8,0.6-1.2,0.9
				c0,0,0,0-0.1,0c-10.1,6.3-27.8,13-57.6,13h-1.9c-34.7,0-53-9.1-61.9-16c-0.4-0.3-0.8-0.7-1.2-1
				C393.5,349.4,393.5,342,395.8,335.3z"/>
			<rect id="XMLID_2649_" x="414.3" y="549.1" class="st4" width="14.3" height="20.4"/>
			<path id="XMLID_165_" class="st3" d="M566.3,297.3C566.4,297.3,566.4,297.4,566.3,297.3c0.2,0.7,0.4,1.3,0.5,1.9
				c0.3,1.5,0.5,3.1,0.5,4.7v218.5h-1.8V303.9c0-1.5-0.2-2.9-0.5-4.3c-0.1-0.4-0.2-0.7-0.3-1.1"/>
			<path id="XMLID_2648_" class="st12" d="M564.8,298.5C564.8,298.5,564.8,298.5,564.8,298.5c-2.4-8.4-10-14.3-18.5-14.3H401.5
				l1.3-1.6c0,0,0.1-0.1,0.3-0.3h143.2c9.1,0,17.3,6.2,20,15"/>
			<path id="XMLID_161_" class="st3" d="M562.4,300.2c0.3,0.9,0.6,1.8,0.8,2.7c0.3,1.5,0.5,3.1,0.5,4.7v218.5h-1.8V307.6
				c0-1.5-0.2-2.9-0.5-4.3c-0.1-0.7-0.3-1.3-0.5-1.9"/>
			<path id="XMLID_2646_" class="st12" d="M560.8,301.4c0,0,0-0.1,0-0.1c-2.6-7.8-10-13.3-18.2-13.3H399.1v0h-0.7l1.5-1.9h142.7
				c8.8,0,16.7,5.8,19.7,14.1c0,0,0,0.1,0,0.1"/>
			<path id="XMLID_2645_" class="st6" d="M447.3,230.9H465c-0.3,0.7-0.4,1.5-0.6,2.5v1.2c0,0.5,0,1.3-0.1,2.4
				c-0.1,1.2-0.2,2.8-0.3,4.3c-0.1,1.5-0.3,3-0.5,4.2c-0.1,0.3-0.1,0.6-0.2,0.9h-16.2c-3.6,0-6.6-3-6.6-6.6v-2.2
				C440.7,233.9,443.6,230.9,447.3,230.9z"/>
			<path id="XMLID_2644_" class="st6" d="M509.3,237.5v2.2c0,3.6-2.9,6.6-6.6,6.6h-12.8c0.7-3.7,1-7.1,1-9.9c0-0.5,0-1,0-1.4
				c0.1-1.1,0.2-2.6,0.7-4.1h11.1C508.7,231.6,509.3,233.9,509.3,237.5z"/>
			<path id="XMLID_2643_" class="st12" d="M514.6,386.4l-5.2,3.6H407c-3.6,0-6.9,1.2-9.6,3.2c3.1-4.2,7.9-6.9,13.3-6.9h102.4
				C513.6,386.3,514.1,386.3,514.6,386.4z"/>
			<path id="XMLID_2642_" class="st3" d="M393.5,510.9V405c0-4.5,1.4-8.6,3.8-11.8c2.7-2,6.1-3.2,9.6-3.2h102.4
				c9.5,0,17.2,8.4,17.2,18.7v106c0,4.5-1.4,8.6-3.8,11.8c-2.7,2-6.1,3.2-9.6,3.2H410.7C401.2,529.6,393.5,521.3,393.5,510.9z"/>
			<path id="XMLID_2641_" class="st12" d="M530.2,405v106c0,6.4-3,12.1-7.5,15.5c2.4-3.2,3.8-7.3,3.8-11.8v-106
				c0-10.3-7.7-18.7-17.2-18.7h0l5.2-3.6C523.4,387.2,530.2,395.2,530.2,405z"/>
			<path id="XMLID_2640_" class="st13" d="M491.6,230.9c-0.5,1.5-0.7,3-0.7,4.1c0,0.4,0,0.9,0,1.4c-0.1,2.7-0.3,6.2-1,9.9h-26.5
				c0.1-0.3,0.1-0.6,0.2-0.9c0.2-1.2,0.4-2.7,0.5-4.2c0.1-1.5,0.2-3,0.3-4.3c0.1-1.1,0.1-1.9,0.1-2.4v-1.2c0.1-1,0.3-1.8,0.6-2.5
				H491.6z"/>
			<path id="XMLID_2639_" class="st3" d="M206,21.6c-2.6,1.9-3.1,5.9-3.2,8.1v1.6c-0.1,4.1-0.6,9.5-2.1,15.2h-29.3
				c0.5-1.8,0.9-3.6,1.2-5.2c0.2-1.3,0.4-2.9,0.6-4.6c0.1-1.7,0.2-3.3,0.3-4.7c0.1-1.2,0.1-2.1,0.1-2.6v-1.3
				c0.4-3.6,1.9-5.4,3.1-6.3H206z"/>
			<path id="XMLID_2637_" class="st14" d="M203.6,19.6l-28,0c-2,0-2.9,0.7-3,0.8c-1.2,0.9-2.8,2.7-3.3,6.5c0,0.4,0,0.8,0,1.3
				c0,0.5,0,1.5-0.1,2.6c0,0,0,0,0,0h0c-0.1,2.8-0.4,6.8-0.9,9.4c-1.5,8.7-5.3,19.1-14.1,26.6c0,0-17.1,16.2-21.7,19.9l-2.3,2.4
				c2.8-1.9,10.6-1.9,10.6-1.9h20.3c4.6-2.2,22.5-20.4,22.5-20.4c12.6-10.7,14.9-27.3,15.1-36.6l0,0v0c0-0.5,0-1.1,0-1.6
				C198.8,26,199.5,20.9,203.6,19.6z"/>
			<path id="XMLID_2636_" class="st15" d="M187.4,57.9c7.1-9.6,8.6-21.1,8.8-28.2l0,0v0c0-0.5,0-1,0-1.5c0-1,0.2-2.3,0.6-3.6
				c0.4-1.4,1.1-2.7,2.2-3.7"/>
			<path id="XMLID_2635_" class="st15" d="M165.1,55.8c5.5-9.2,6.5-19.6,6.4-26.2l0,0l0,0c0-0.5,0-1,0-1.5c0-1,0.1-2.3,0.5-3.6
				c0.4-1.4,1-2.8,2-3.8"/>
			
				<text id="XMLID_2634_" transform="matrix(0.9992 4.040014e-002 -4.040014e-002 0.9992 173.8562 37.6785)" class="st16 st17 st18">GAU</text>
			
				<text id="XMLID_2633_" transform="matrix(0.9994 3.357987e-002 -3.357987e-002 0.9994 171.9633 46.2851)" class="st16 st17 st19">12344-423-442243242-2424-092340</text>
			
				<text id="XMLID_2632_" transform="matrix(0.9994 3.357987e-002 -3.357987e-002 0.9994 171.1201 48.9008)" class="st16 st17 st19">12344-423-442243242-2424-092340</text>
			<line id="XMLID_2631_" class="st15" x1="173" y1="41.9" x2="192.6" y2="42.5"/>
			<line id="XMLID_2630_" class="st15" x1="173" y1="26.8" x2="194.8" y2="27.5"/>
			<polyline id="XMLID_2629_" class="st20" points="170,76.6 165.1,81.4 160.3,85.5 			"/>
			<polyline id="XMLID_2628_" class="st20" points="146.8,76.6 142,81.4 137.1,85.5 			"/>
			<path id="XMLID_2256_" class="st14" d="M490.9,226.9l-25.3,0c-1.8,0-2.7,0.7-2.7,0.7c-1.1,0.8-2.5,2.4-2.9,5.9c0,0.4,0,0.7,0,1.2
				c0,0.5,0,1.3-0.1,2.4v0h0c-0.1,2.5-0.4,6.1-0.8,8.4c-1.4,7.9-4.8,17.3-12.7,24c0,0-15.5,14.6-19.6,17.9l-2.1,2.1
				c2.5-1.7,9.6-1.7,9.6-1.7h18.3c4.2-2,20.3-18.4,20.3-18.4c11.4-9.7,13.4-24.6,13.6-33l0,0v0c0-0.5,0-1,0-1.4
				C486.6,232.6,487.3,228,490.9,226.9z"/>
			<path id="XMLID_2255_" class="st15" d="M476.4,261.4c6.4-8.6,7.8-19.1,7.9-25.5l0,0v0c0-0.5,0-0.9,0-1.3c0-0.9,0.2-2.1,0.5-3.3
				c0.4-1.2,1-2.5,2-3.4"/>
			<path id="XMLID_2254_" class="st15" d="M456.3,259.5c5-8.3,5.8-17.7,5.8-23.6l0,0v0c0-0.5,0-0.9,0-1.3c0-0.9,0.1-2.1,0.4-3.3
				c0.3-1.2,0.9-2.5,1.9-3.4"/>
			
				<text id="XMLID_2249_" transform="matrix(0.9992 4.040014e-002 -4.040014e-002 0.9992 464.1005 243.1302)" class="st16 st17 st21">GAU</text>
			
				<text id="XMLID_2248_" transform="matrix(0.9994 3.357987e-002 -3.357987e-002 0.9994 462.4254 250.9203)" class="st16 st17 st22">12344-423-442243242-2424-092340</text>
			
				<text id="XMLID_2247_" transform="matrix(0.9994 3.357987e-002 -3.357987e-002 0.9994 461.6659 253.2828)" class="st16 st17 st22">12344-423-442243242-2424-092340</text>
			<line id="XMLID_2246_" class="st15" x1="463.3" y1="246.9" x2="481.1" y2="247.5"/>
			<line id="XMLID_2245_" class="st15" x1="463.3" y1="233.3" x2="483" y2="233.9"/>
			<polyline id="XMLID_2244_" class="st20" points="460.7,278.3 456.3,282.6 451.8,286.3 			"/>
			<polyline id="XMLID_2243_" class="st20" points="439.7,278.3 435.3,282.6 430.9,286.3 			"/>
		</g>
	</g>
</g>
<g id="XMLID_167_">
	<g id="XMLID_4264_">
		<path id="XMLID_4825_" class="st23" d="M4614.2,1627.4c0,0,67.6-355.5,368.6-418.8"/>
		<g id="XMLID_82_">
			<defs>
				<path id="XMLID_166_" d="M5126.6,1805h-643.2c-3.8,0-6.9-3.1-6.9-6.9V1029c0-3.8,3.1-6.9-43.9,18.5h643.2
					c54.5-25.4,57.6-22.3,57.6-18.5v769.1C5133.4,1801.9,5130.3,1805,5126.6,1805z"/>
			</defs>
			<clipPath id="XMLID_3_">
				<use xlink:href="#XMLID_166_"  style="overflow:visible;"/>
			</clipPath>
			<g id="XMLID_160_" class="st24">
				<g id="XMLID_164_">
					<g id="XMLID_4432_">
						<g id="XMLID_4433_">
							<path id="XMLID_4583_" class="st4" d="M4664.8,1504.8c0,0-18.4-38.6-61-38.4c-42.5-0.2-61,38.4-61,38.4
								c-21.5,43.7,3.1,79.3,3.1,79.3l53.4,82.9c0,0,3.1,2.4,4.3,1.8h0.3c1.3,0.6,4.3-1.8,4.3-1.8l53.4-82.9
								C4661.7,1584.1,4686.3,1548.5,4664.8,1504.8z M4603.8,1561.2c-13.3,0-24-11.5-24-25.7c0-14.2,10.8-25.7,24-25.7
								s24,11.5,24,25.7C4627.8,1549.7,4617.1,1561.2,4603.8,1561.2z"/>
							<path id="XMLID_4580_" class="st4" d="M5012.8,1113.4c0,0-10.5-21.9-34.6-21.8c-24.1-0.1-34.6,21.8-34.6,21.8
								c-12.2,24.8,1.7,44.9,1.7,44.9l30.3,47c0,0,1.7,1.4,2.4,1h0.2c0.7,0.3,2.5-1,2.5-1l30.3-47
								C5011.1,1158.4,5025,1138.2,5012.8,1113.4z M4978.3,1145.4c-7.5,0-13.6-6.5-13.6-14.6c0-8.1,6.1-14.6,13.6-14.6
								c7.5,0,13.6,6.5,13.6,14.6C4991.9,1138.9,4985.8,1145.4,4978.3,1145.4z"/>
							<g id="XMLID_4434_">
								<polygon id="XMLID_4577_" class="st25" points="4822.6,1270.5 4827.1,1268.6 4826.7,1272 								"/>
								<polygon id="XMLID_4574_" class="st25" points="4817.3,1349.5 4729.9,1335.4 4712.3,1332.6 4673.9,1405.5 4640.9,1320.8 
									4534.4,1304.9 4850.6,1073.8 4835.3,1200.3 4786.9,1170.5 4668.8,1288 4667.3,1289.7 4668.2,1291.6 4694.7,1310.4 
									4706.2,1292.9 4752.6,1299.1 4786.5,1285.2 4823.8,1295.4 								"/>
								<polygon id="XMLID_4571_" class="st26" points="4698.9,1358 4673.9,1405.5 4640.9,1320.8 4667.3,1289.7 4684.2,1326.3 
									4683.2,1327.9 4685.1,1328.2 								"/>
								<polygon id="XMLID_4568_" class="st26" points="4716.8,1276.9 4668.8,1288 4850.6,1073.8 								"/>
								<polygon id="XMLID_4567_" class="st25" points="4664.9,1224.7 4659.2,1262.2 4689.6,1289.4 4732.5,1292.6 4740.9,1257.3 
									4738.2,1239 4688,1220.3 4670.6,1216.8 								"/>
								<polygon id="XMLID_4564_" class="st27" points="4694.7,1310.4 4684.2,1326.3 4668.2,1291.6 								"/>
								<polygon id="XMLID_4563_" class="st25" points="4666.7,1288.4 4668.8,1288 4667.3,1289.7 								"/>
								<polygon id="XMLID_4560_" class="st27" points="4712.3,1332.6 4698.9,1358 4685.1,1328.2 								"/>
								<polygon id="XMLID_4557_" class="st27" points="4716.8,1276.9 4694.7,1310.4 4668.2,1291.6 4667.3,1289.7 4668.8,1288 
																	"/>
								<polygon id="XMLID_4554_" class="st25" points="4823.8,1295.4 4699.1,1261.4 4727.5,1242.2 4796.9,1260.4 4826.7,1272 
																	"/>
								<polygon id="XMLID_4551_" class="st28" points="4827.1,1268.6 4822.6,1270.5 4796.9,1260.4 4727.5,1242.2 4699.1,1261.4 
									4786.5,1285.2 4752.6,1299.1 4706.2,1292.9 4716.8,1276.9 4668.8,1288 4743.2,1213.9 4741.1,1227.6 4835.2,1201.1 								
									"/>
								<polygon id="XMLID_4550_" class="st25" points="4668.8,1288 4716.8,1276.9 4706.2,1292.9 								"/>
								<polygon id="XMLID_4547_" class="st28" points="4822.6,1270.5 4786.5,1285.2 4699.1,1261.4 4727.5,1242.2 4796.9,1260.4 
																	"/>
								<polygon id="XMLID_4493_" class="st25" points="4835.2,1201.1 4741.1,1227.6 4743.2,1213.9 4786.9,1170.5 4835.3,1200.3 
																	"/>
								<polyline id="XMLID_4490_" class="st28" points="4789,1213.2 4836.9,1186.8 4835.2,1201.1 4780.5,1226.7 4789.2,1213.7 
																	"/>
								<line id="XMLID_4489_" class="st25" x1="4659.1" y1="1284.8" x2="4789" y2="1213.2"/>
							</g>
						</g>
					</g>
				</g>
			</g>
		</g>
	</g>
	<g id="XMLID_1847_">
		<g id="XMLID_1868_">
			<path id="XMLID_3877_" class="st8" d="M4781.8,1206.5c0.4-3-1.7-5.8-4.7-6.2l-94.1-13.7c-3-0.4-5.8,1.6-6.3,4.6l-11.5,79.2
				c-0.4,3,1.7,5.8,4.7,6.2l66.4,9.7l1.1,3.5l7.2,13.5l22.4-13.4c0.5-0.2,0.9-0.4,1.3-0.8l0,0l0,0c1-0.8,1.8-2,2-3.4L4781.8,1206.5z
				"/>
			<path id="XMLID_3737_" class="st6" d="M4749.6,1213.6l-80.8-11.8c-5.4-0.8-10.6,3-11.4,8.5l-2.6,18.1l5.7-6.4
				c0,0,5.7,4.8,13.5,6.1c0,0,16.6,4.6,21.4,6.7l-2.6,17.7c-1-0.2-1.6-0.2-1.6-0.2s0.3,1.4,1,4l0,0.1l13.1-6.2
				c0.4,4.8-3.2,6.4-3.2,6.4l-11.2,8.5l-21.3,16.2l-4.1,0.8l-6.5,1.2c-1.1,0.6-2.3,0.6-3.4,0.3c0,0-7-0.1-8.4-3.2l-0.2,1.2
				c-0.8,5.4,3,10.6,8.5,11.3l80.8,11.8c5.4,0.8,10.5-3,11.3-8.5l10.4-71.3C4758.8,1219.5,4755,1214.4,4749.6,1213.6z
				 M4657.6,1270.6c-1.3-2.2-2.2-4-2.1-4.8c0,0-2.9-8-4.4-12.2l-2.9,20l1.9-0.2L4657.6,1270.6z"/>
			
				<rect id="XMLID_3735_" x="4656" y="1222.2" transform="matrix(0.9895 0.1442 -0.1442 0.9895 225.7529 -666.1036)" class="st10" width="101.6" height="3.4"/>
			<path id="XMLID_3734_" class="st9" d="M4787.9,1186.1l-3.2,21.9c-0.3,1.8-1.1,4.6-2.6,5.4l-24.8,16.2l-14.4-6.8l-0.1-9.7
				l16.2-16.5l25.1-16.2C4786.6,1181,4788.3,1183.5,4787.9,1186.1z"/>
			<path id="XMLID_3733_" class="st8" d="M4759.2,1196.5l-16.1,16.5l0.1,9.7l-33.8-16.2l-32.1-4.7c-2.8-0.4-4.8-3-4.4-5.9l0.9-6.4
				l-13.8-7.6l18.7-15.6c1.1-0.8,2.5-1.3,3.9-1.1l101,14.7c0.2,0,1.8,0.7,2,0.8L4759.2,1196.5z"/>
			<path id="XMLID_2224_" class="st6" d="M4756.9,1230.3l-99.1-14.4c-2.7-0.4-4.5-2.9-4.1-5.5l3.9-26.9c0.4-2.7,2.9-4.5,5.5-4.1
				l99.1,14.4c2.7,0.4,4.5,2.9,4.1,5.5l-3.9,26.9C4762.1,1228.8,4759.6,1230.6,4756.9,1230.3z"/>
			<polygon id="XMLID_2225_" class="st29" points="4720.4,1188.5 4740.7,1173.4 4722.9,1171.4 4700.9,1185.7 			"/>
			
				<rect id="XMLID_2971_" x="4690.1" y="1195.1" transform="matrix(0.1442 -0.9895 0.9895 0.1442 2836.6836 5689.9692)" class="st30" width="36.1" height="19.7"/>
			<path id="XMLID_2965_" class="st29" d="M4754.3,1147.6c-1.9-2.6-8-10.9-19.3-12.8c-11.9-1.9-20.7,4.8-23.1,6.6
				c-1.6,1.2-16.3,12.4-12.7,25.7c2.2,8.2,10,12.2,12.1,13.3l25.5,3.7c9.3,1.3,18.3-1.7,22.6-8.2
				C4766.9,1164.8,4756,1149.9,4754.3,1147.6z M4745.7,1168.9c-2.2,3.4-6.8,4.9-11.6,4.2l-13.1-1.9c-1.1-0.5-5.1-2.6-6.2-6.8
				c-1.8-6.8,5.7-12.6,6.5-13.2c1.2-0.9,5.8-4.4,11.9-3.4c5.8,0.9,9,5.2,9.9,6.6C4743.8,1155.5,4749.5,1163.1,4745.7,1168.9z"/>
			<path id="XMLID_2954_" class="st30" d="M4740.7,1145.7c-1.9-2.6-8-10.9-19.3-12.8c-11.9-1.9-20.7,4.8-23.1,6.6
				c-1.6,1.2-16.3,12.4-12.7,25.7c2.2,8.2,10,12.2,12.1,13.3l25.5,3.7c9.3,1.3,18.3-1.7,22.6-8.2
				C4753.3,1162.8,4742.4,1147.9,4740.7,1145.7z M4732.1,1166.9c-2.2,3.4-6.8,4.9-11.6,4.2l-13.1-1.9c-1.1-0.5-5.1-2.6-6.2-6.8
				c-1.8-6.8,5.7-12.6,6.5-13.2c1.2-0.9,5.8-4.4,11.9-3.4c5.8,0.9,9,5.2,9.9,6.6C4730.3,1153.5,4735.9,1161.2,4732.1,1166.9z"/>
		</g>
		<polygon id="XMLID_3732_" class="st6" points="4656.2,1219.1 4647.2,1281.7 4649,1287.8 4691.4,1285.5 4721.9,1251.2 
			4710.4,1238.1 4688.5,1225.8 		"/>
		<polygon id="XMLID_2226_" class="st30" points="4695.9,1224 4714.5,1226.7 4703.2,1299.9 4684.2,1297.1 		"/>
	</g>
</g>
<g id="XMLID_79_">
	<linearGradient id="XMLID_4_" gradientUnits="userSpaceOnUse" x1="3458.4216" y1="1519.6381" x2="3458.4216" y2="1519.6381">
		<stop  offset="0.15" style="stop-color:#0B0034"/>
		<stop  offset="0.4386" style="stop-color:#0D0337"/>
		<stop  offset="0.6693" style="stop-color:#150D41"/>
		<stop  offset="0.86" style="stop-color:#211C50"/>
	</linearGradient>
	<path id="XMLID_5388_" class="st31" d="M3458.4,1519.6"/>
	<polygon id="XMLID_5387_" class="st3" points="3286.4,1255.8 3276.6,1280.5 3087.8,1265.4 3090.7,1217.3 	"/>
	<path id="XMLID_5386_" class="st4" d="M3298.4,1225.6l-12,30.2l-195.7-38.6l2.4-38.6c0.5-8.4,9.6-14,18.3-11.3L3298.4,1225.6z"/>
	<path id="XMLID_5385_" class="st32" d="M3276.2,1360.4v30.1h-2.4c-0.1,0.9-0.3,1.7-0.6,2.5l9.5-0.8l9.7-29.8L3276.2,1360.4z"/>
	<path id="XMLID_5377_" class="st32" d="M3247.9,1364.8c-0.2,0-0.3,0-0.5,0c0.2,0,0.4-0.1,0.7-0.1L3247.9,1364.8z"/>
	<path id="XMLID_5376_" class="st8" d="M3527.9,1259.2c0-6.4-5.3-11.6-11.8-11.6h-201.9c-6.5,0-11.8,5.2-11.8,11.6v170
		c0,6.4,5.3,11.6,11.8,11.6h142.4l3.5,7.1l19.2,26.1l43-34.9c0.9-0.5,1.7-1.2,2.4-2l0.1-0.1l0,0c1.9-2.1,3.1-4.8,3.1-7.8V1259.2z"/>
	<path id="XMLID_5373_" class="st6" d="M3462.4,1283.8h-173.3c-11.7,0-21.3,9.6-21.3,21.3v38.8l10-15.2c0,0,13.4,8.3,30.2,8.7
		c0,0,36.2,4.6,46.9,7.6v37.9c-2.1,0-3.4,0.1-3.4,0.1s1.1,2.9,3.4,8v0.3l25.5-17.1c2.4,9.9-4.7,14.5-4.7,14.5l-20.8,21.3l-39.7,40.6
		l-8.5,2.9l-13.2,4.6c-2.2,1.5-4.6,1.9-7.1,1.6c0,0-14.6,1.9-18.6-4.2v2.6c0,11.7,9.6,21.2,21.3,21.2h173.3
		c11.7,0,21.2-9.6,21.2-21.2v-153C3483.6,1293.4,3474.1,1283.8,3462.4,1283.8z M3286.7,1431.8c-3.4-4.2-5.8-7.7-5.9-9.5
		c0,0-8.5-15.9-12.9-24.3v42.9l3.9-1L3286.7,1431.8z"/>
	<rect id="XMLID_5371_" x="3267.8" y="1315" class="st10" width="215.8" height="7.2"/>
	<path id="XMLID_5370_" class="st9" d="M3534.5,1214.3v47c0,3.8-0.8,10.1-3.8,12.1l-56,41.6l-23.4-9.8l-3.1-20.4l28.9-39.7
		l47.7-41.7C3530.3,1204,3534.5,1208.7,3534.5,1214.3z"/>
	<path id="XMLID_5363_" class="st8" d="M3477.3,1245.1l-28.8,39.7l3.1,20.4l-76-23.6h-68.8c-6.1,0-11-4.9-11-11v-13.8l-31.4-11.7
		l34.4-38.4c2-2.1,4.8-3.4,7.9-3.4h216.6c0.5,0,4,0.9,4.5,1L3477.3,1245.1z"/>
	<path id="XMLID_5362_" class="st6" d="M3463.6,1316.6h-180.2c-16.4,0-29.7-13.3-29.7-29.7V1268c0-16.4,13.3-29.7,29.7-29.7h180.2
		c16.4,0,29.7,13.3,29.7,29.7v18.9C3493.3,1303.3,3480,1316.6,3463.6,1316.6z"/>
	<path id="XMLID_5361_" class="st33" d="M3330.7,1203.3"/>
	<polygon id="XMLID_5360_" class="st29" points="3393.4,1240 3431.4,1202 3393.4,1203.3 3351.6,1240 	"/>
	<rect id="XMLID_5358_" x="3351.6" y="1240" class="st30" width="41.8" height="76.6"/>
	<rect id="XMLID_5357_" x="3354.9" y="1318.6" class="st34" width="41.2" height="3.6"/>
	<path id="XMLID_5354_" class="st29" d="M3452.1,1143.8c-4.8-4.8-20.2-20.5-44.5-20.9c-25.6-0.4-42.1,16.4-46.5,20.9
		c-3,3-30.5,31.1-18.9,57.9c7.1,16.5,24.8,22.6,29.5,24.1h54.8c20-0.1,38-9.1,45-24.1C3483.8,1176,3456.2,1148,3452.1,1143.8z
		 M3440.4,1191.2c-3.6,7.7-12.9,12.4-23.2,12.4h-28.2c-2.4-0.8-11.5-3.9-15.2-12.4c-6-13.8,8.2-28.2,9.7-29.8
		c2.3-2.3,10.7-11,23.9-10.7c12.5,0.2,20.4,8.3,22.9,10.7C3432.5,1163.5,3446.7,1177.9,3440.4,1191.2z"/>
	<path id="XMLID_5351_" class="st30" d="M3423,1143.8c-4.8-4.8-20.2-20.5-44.5-20.9c-25.6-0.4-42.1,16.4-46.5,20.9
		c-3,3-30.5,31.1-18.9,57.9c7.1,16.5,24.8,22.6,29.5,24.1h54.8c20-0.1,38-9.1,45-24.1C3454.6,1176,3427.1,1148,3423,1143.8z
		 M3411.3,1191.2c-3.6,7.7-12.9,12.4-23.2,12.4H3360c-2.4-0.8-11.5-3.9-15.2-12.4c-6-13.8,8.2-28.2,9.7-29.8
		c2.3-2.3,10.7-11,23.9-10.7c12.5,0.2,20.4,8.3,22.9,10.7C3403.4,1163.5,3417.5,1177.9,3411.3,1191.2z"/>
	<polyline id="XMLID_5350_" class="st6" points="3267.8,1428.8 3267.9,1460.1 3329.4,1473.9 3425.3,1473.9 3439.1,1387.2 
		3323.4,1380.2 3267.8,1427.1 	"/>
	<path id="XMLID_5349_" class="st35" d="M3392.3,1376.9l-1.6,76.4l-41.2-0.9l0.2-10.3c9,1.9,12.1-5.7,12.1-5.7
		c28.5,11.3,22.1-12.6,22.1-12.6c-17-25.3-27.5-48.1-32.4-59.7l0.2-8.2c4.9,0.2,14,1.5,18.7,8.8c6.7,10.3,19.5,11.6,19.5,11.6
		C3390.7,1376.5,3391.5,1376.7,3392.3,1376.9z"/>
	<path id="XMLID_5348_" class="st36" d="M3248.1,1337.4c-1.3,0.2-2.5,0.5-3.6,0.8C3245.8,1337.8,3246.9,1337.5,3248.1,1337.4z"/>
	<rect id="XMLID_5347_" x="3354.9" y="1316.6" class="st37" width="41.2" height="5.6"/>
	<rect id="XMLID_5346_" x="3354.9" y="1322.2" class="st29" width="41.2" height="157.1"/>
	<path id="XMLID_5345_" class="st37" d="M3396.1,1382v20.9c-0.8-0.1-1.6-0.3-2.5-0.5c0,0-12.9-1-19.8-11.2c-4.9-7.2-14-8.3-18.9-8.4
		V1345c0.8,0.2,1.5,0.5,2,0.7C3356.9,1345.6,3379.3,1368.3,3396.1,1382z"/>
	<polygon id="XMLID_5341_" class="st38" points="3367.7,1457.3 3353.9,1436.5 3350.7,1440.1 	"/>
	<polygon id="XMLID_5338_" class="st38" points="3348.3,1460.1 3336.4,1438.9 3332.8,1442.5 	"/>
	<polygon id="XMLID_5331_" class="st38" points="3329.4,1456.9 3319.9,1440.1 3317.5,1446.9 	"/>
	<path id="XMLID_5330_" class="st37" d="M3366.8,1463.1c0,0-2.9,7.6-11.9,5.9v-78c5.1,11.5,16.2,34.1,33.7,59
		C3388.6,1450,3395.5,1473.8,3366.8,1463.1z"/>
	<path id="XMLID_5327_" class="st39" d="M3351.5,1383c0,0,1.1,2.9,3.4,8v0.3l-25.1,16.8l-43.2,23.7c-3.4-4.2-5.8-7.7-5.9-9.5
		c0,0-8.5-15.9-12.9-24.3v-54.2l10-15.2c0,0,13.4,8.3,30.2,8.7c0,0,36.2,4.6,46.9,7.6v37.9C3352.8,1382.8,3351.5,1383,3351.5,1383z"
		/>
	<path id="XMLID_5326_" class="st39" d="M3354.9,1391.3v77.8c-2.2-0.4-4.8-1.4-7.8-3.2c0,0-7.4,7.4-19.3-3.2c0,0-4.4,6.3-12.9-1
		c0,0-3.5-3.3-8.2-8.1c-6.2-6.2-14.5-14.9-20.1-21.7l43.2-23.7L3354.9,1391.3z"/>
	<path id="XMLID_5325_" class="st39" d="M3396.1,1403V1382c7.3,6,13.5,10.2,16.3,10.2C3412.4,1392.2,3417.9,1407.2,3396.1,1403z"/>
	<path id="XMLID_5266_" class="st40" d="M3280.3,1322.9c0,0,13.1,8.3,29.6,8.7c0,0,41.3,5.3,48.1,8.3c0,0,45.1,46.6,54.4,46.6
		c0,0,5.8,16-18.4,10.2c0,0-12.6-1-19.4-11.2c-6.8-10.2-21.8-8.3-21.8-8.3s11.6,31.1,36.4,67c0,0,6.8,23.8-21.4,13.1
		c0,0-4.4,11.8-19.4,2.8c0,0-7.3,7.4-18.9-3.2c0,0-4.4,6.3-12.6-1c0,0-33-32.5-33.5-39.3c0,0-13.6-25.7-15-29.1l-26.2-4.9
		L3280.3,1322.9z"/>
	<path id="XMLID_4491_" class="st3" d="M3258.5,1365.6c-5.1,10.5-9.2,18.9-9.2,18.9s-4.4,4.9-8.7,3.4l-138.4,4.8
		c-7.9,0.3-14.4-5.4-14.4-12.6v-28.8C3138,1355.6,3219.3,1362.4,3258.5,1365.6z"/>
	<path id="XMLID_4431_" class="st4" d="M3280.3,1322.9c-2.1,3-13.4,25.7-21.8,42.7c-39.2-3.2-120.5-10-170.7-14.3v-70.5
		c0-5.9,6.2-10.3,12.6-8.7l173.5,43C3273.8,1315.1,3283.7,1318,3280.3,1322.9z"/>
	<path id="XMLID_4415_" class="st40" d="M3537.2,1508.5h-17.9l-38.8-5.2c-1.7-0.2-3.5-0.1-5.2,0.4l-32.1,9.7l-53.8-5.3L3374,1498
		c0,0-9.9-1.9-13.6,0c0,0-3.7-7.2-17.9-0.8c0,0-11.3-2.3-9.3,9.5l79.2,47c0,0,16.7,8.7,34.6,4.9l95.2-6.2l6.8,1.2L3537.2,1508.5z"/>
	<path id="XMLID_4414_" class="st41" d="M3729,1547.4v-62.9c0-5.3-4.5-9.5-9.7-8.9l-177.7,21.4c-3.9,0.5-6.5,4.4-5.5,8.3l7.5,28.8
		L3729,1547.4z"/>
	<path id="XMLID_4413_" class="st42" d="M3543.6,1534.1l5.1,19.5l172.3,31.9c4.2,0.8,8.1-2.5,8.1-7v-31.1L3543.6,1534.1z"/>
	<line id="XMLID_5194_" class="st43" x1="2904" y1="1804.5" x2="3887" y2="1804.5"/>
</g>
</svg>
