<?xml version="1.0" encoding="utf-8"?>
<!-- Generator: Adobe Illustrator 19.0.0, SVG Export Plug-In . SVG Version: 6.00 Build 0)  -->
<svg version="1.1" id="Layer_1" xmlns="http://www.w3.org/2000/svg" xmlns:xlink="http://www.w3.org/1999/xlink" x="0px" y="0px"
	 viewBox="0 0 18.1 18.3" style="enable-background:new 0 0 18.1 18.3;" xml:space="preserve">
<style type="text/css">
	.st0{opacity:0.8;}
	.st1{fill:#FFCD40;}
</style>
<g id="XMLID_202_">
	<g id="XMLID_376_" class="st0">
		<path id="XMLID_401_" class="st1" d="M11.8,5c-0.1-0.2-0.2-0.5-0.3-0.7C10.4,1.6,8,0.7,6,0.7c-2.7,0-5.6,1.8-6,5.5v0.7
			c0,0,0,0.3,0,0.5c0.2,1.8,1.6,3.6,2.6,5.4c1.1,1.9,2.3,3.7,3.4,5.6c0.7-1.2,1.4-2.4,2.1-3.6c0.2-0.3,0.4-0.7,0.6-1
			c0.1-0.2,0.4-0.4,0.5-0.6c1.1-2,2.9-4.1,2.9-6.1V6.1C12.1,5.9,11.8,5.1,11.8,5L11.8,5z M6,8.8C5.2,8.8,4.4,8.4,4,7.3
			C3.9,7.2,3.9,6.8,3.9,6.8V6.3c0-1.4,1.2-2,2.2-2c1.3,0,2.2,1,2.2,2.3C8.3,7.8,7.3,8.8,6,8.8L6,8.8z M6,8.8"/>
	</g>
	<g id="XMLID_334_">
		<polygon id="XMLID_338_" class="st1" points="18.1,0 15.5,4.6 12.8,0 		"/>
	</g>
</g>
</svg>
