<?xml version="1.0" encoding="utf-8"?>
<!-- Generator: Adobe Illustrator 19.0.0, SVG Export Plug-In . SVG Version: 6.00 Build 0)  -->
<svg version="1.1" id="Layer_1" xmlns="http://www.w3.org/2000/svg" xmlns:xlink="http://www.w3.org/1999/xlink" x="0px" y="0px"
	 viewBox="0 0 17.9 14.6" style="enable-background:new 0 0 17.9 14.6;" xml:space="preserve">
<style type="text/css">
	.st0{opacity:0.9;fill:#FFCD40;}
	.st1{opacity:0.9;}
	.st2{fill-rule:evenodd;clip-rule:evenodd;fill:#FFCD40;}
	.st3{fill:#FFCD40;}
</style>
<path id="XMLID_5088_" class="st0" d="M-27,97.3v-5.1h3.4v5.1h4.3v-6.8h2.6l-8.5-7.7l-8.5,7.7h2.6v6.8H-27z"/>
<g id="XMLID_3717_" class="st1">
	<path id="XMLID_3718_" class="st2" d="M-17.3,191.9h-14c-1,0-1.8,0.8-1.8,1.7v8.6c0,1,0.8,1.7,1.8,1.7h14c1,0,1.8-0.8,1.8-1.7v-8.6
		C-15.6,192.7-16.4,191.9-17.3,191.9L-17.3,191.9z M-29.8,195.3c0-1.2,0.9-1.8,1.6-1.8c0.8,0,1.6,0.6,1.6,1.8v0.9
		c0,1.2-1.2,1.8-1.6,1.8c-0.4,0-1.6-0.6-1.6-1.8V195.3z M-24.9,201.2c0,0.8-0.3,1.1-1.1,1.1h-4.4c-0.8,0-1.1-0.3-1.1-1.1
		c0,0,0-0.5,0-0.5c0-0.6,0.3-1.5,1.2-2.1c0.4-0.3,0.9,0.2,1.5,0.7l0.2,0.2c0,0,0.2,0.2,0.4,0.2c0.2,0,0.4-0.2,0.4-0.2v0l0.2-0.2
		c0.6-0.5,1-0.9,1.5-0.7c1,0.6,1.2,1.5,1.2,2.1C-24.9,200.7-24.9,201.2-24.9,201.2L-24.9,201.2z M-17.8,201.2h-4.9
		c-0.3,0-0.5-0.2-0.5-0.5c0-0.3,0.2-0.5,0.5-0.5h4.9c0.3,0,0.5,0.2,0.5,0.5C-17.2,201-17.5,201.2-17.8,201.2L-17.8,201.2z
		 M-17.8,198.5h-4.9c-0.3,0-0.5-0.2-0.5-0.5c0-0.3,0.2-0.5,0.5-0.5h4.9c0.3,0,0.5,0.2,0.5,0.5C-17.2,198.3-17.5,198.5-17.8,198.5
		L-17.8,198.5z M-17.8,195.8h-4.9c-0.3,0-0.5-0.2-0.5-0.5c0-0.3,0.2-0.5,0.5-0.5h4.9c0.3,0,0.5,0.2,0.5,0.5
		C-17.2,195.5-17.5,195.8-17.8,195.8L-17.8,195.8z M-17.8,195.8"/>
</g>
<g id="XMLID_3423_" class="st1">
	<path id="XMLID_3439_" class="st3" d="M-20.5,141.1c-0.1-0.1-0.1-0.1-0.3-0.1h-1.9c-0.1-0.6-0.4-1.1-0.7-1.6h2.5
		c0.1,0,0.2,0,0.3-0.1c0.1-0.1,0.1-0.1,0.1-0.3V138c0-0.1,0-0.2-0.1-0.3c-0.1-0.1-0.1-0.1-0.3-0.1h-9c-0.1,0-0.2,0-0.3,0.1
		c-0.1,0.1-0.1,0.1-0.1,0.3v1.4c0,0.1,0,0.2,0.1,0.2c0.1,0.1,0.1,0.1,0.2,0.1h1.6c1.5,0,2.5,0.4,2.9,1.2h-4.5c-0.1,0-0.2,0-0.3,0.1
		c-0.1,0.1-0.1,0.1-0.1,0.2v1.1c0,0.1,0,0.2,0.1,0.3c0.1,0.1,0.1,0.1,0.3,0.1h4.6c-0.2,0.6-0.5,1-1.1,1.4c-0.6,0.3-1.4,0.5-2.3,0.5
		h-1.2c-0.1,0-0.2,0-0.2,0.1c-0.1,0.1-0.1,0.2-0.1,0.2v1.4c0,0.1,0,0.2,0.1,0.2c1.4,1.5,3.2,3.5,5.4,6.2c0.1,0.1,0.2,0.1,0.3,0.1
		h2.1c0.2,0,0.3-0.1,0.3-0.2c0.1-0.1,0.1-0.3,0-0.4c-2.1-2.6-3.8-4.5-5-5.8c1.2-0.1,2.2-0.5,3-1.2c0.8-0.7,1.2-1.5,1.4-2.5h1.8
		c0.1,0,0.2,0,0.3-0.1c0.1-0.1,0.1-0.1,0.1-0.2v-1.1C-20.4,141.3-20.4,141.2-20.5,141.1L-20.5,141.1z M-20.5,141.1"/>
</g>
<path id="XMLID_2474_" class="st0" d="M3.3,8.3v3.3L9,14.6l5.7-3.1V8.3L9,11.4L3.3,8.3z M9,0L0,4.9l9,4.9l7.3-4v5.6h1.6V4.9L9,0z"/>
</svg>
