<?xml version="1.0" encoding="utf-8"?>
<!-- Generator: Adobe Illustrator 19.0.0, SVG Export Plug-In . SVG Version: 6.00 Build 0)  -->
<svg version="1.1" id="Layer_1" xmlns="http://www.w3.org/2000/svg" xmlns:xlink="http://www.w3.org/1999/xlink" x="0px" y="0px"
	 viewBox="13 45.6 125 11.4" style="enable-background:new 13 45.6 125 11.4;" xml:space="preserve">
<style type="text/css">
	.st0{opacity:0.8;}
	.st1{fill:#FFAB40;}
	.st2{opacity:0.25;}
</style>
<g id="XMLID_1_">
	<g id="XMLID_36_" class="st0">
		<g id="XMLID_37_">
			<path id="XMLID_38_" class="st1" d="M80.9,51.3c0-0.5-0.4-0.9-0.9-0.9h-3.3l-3-4.8h-1.2l1.5,4.8h-3.3l-0.9-1.2h-0.9l0.6,2.1
				l-0.6,2.1h0.9l0.9-1.2H74L72.5,57h1.2l3-4.8H80C80.5,52.2,80.9,51.8,80.9,51.3L80.9,51.3z"/>
		</g>
	</g>
	<g id="XMLID_19_" class="st2">
		<g id="XMLID_20_">
			<path id="XMLID_21_" d="M65,51.3c0-0.3,0.2-0.5,0.5-0.5l0,0c0.3,0,0.5,0.2,0.5,0.5l0,0c0,0.3-0.2,0.5-0.5,0.5l0,0
				C65.2,51.8,65,51.6,65,51.3z M61,51.3c0-0.3,0.2-0.5,0.5-0.5l0,0c0.3,0,0.5,0.2,0.5,0.5l0,0c0,0.3-0.2,0.5-0.5,0.5l0,0
				C61.2,51.8,61,51.6,61,51.3z M57,51.3c0-0.3,0.2-0.5,0.5-0.5l0,0c0.3,0,0.5,0.2,0.5,0.5l0,0c0,0.3-0.2,0.5-0.5,0.5l0,0
				C57.2,51.8,57,51.6,57,51.3z M53,51.3c0-0.3,0.2-0.5,0.5-0.5l0,0c0.3,0,0.5,0.2,0.5,0.5l0,0c0,0.3-0.2,0.5-0.5,0.5l0,0
				C53.2,51.8,53,51.6,53,51.3z M49,51.3c0-0.3,0.2-0.5,0.5-0.5l0,0c0.3,0,0.5,0.2,0.5,0.5l0,0c0,0.3-0.2,0.5-0.5,0.5l0,0
				C49.2,51.8,49,51.6,49,51.3z M45,51.3c0-0.3,0.2-0.5,0.5-0.5l0,0c0.3,0,0.5,0.2,0.5,0.5l0,0c0,0.3-0.2,0.5-0.5,0.5l0,0
				C45.2,51.8,45,51.6,45,51.3z M41,51.3c0-0.3,0.2-0.5,0.5-0.5l0,0c0.3,0,0.5,0.2,0.5,0.5l0,0c0,0.3-0.2,0.5-0.5,0.5l0,0
				C41.2,51.8,41,51.6,41,51.3z M37,51.3c0-0.3,0.2-0.5,0.5-0.5l0,0c0.3,0,0.5,0.2,0.5,0.5l0,0c0,0.3-0.2,0.5-0.5,0.5l0,0
				C37.2,51.8,37,51.6,37,51.3z M33,51.3c0-0.3,0.2-0.5,0.5-0.5l0,0c0.3,0,0.5,0.2,0.5,0.5l0,0c0,0.3-0.2,0.5-0.5,0.5l0,0
				C33.2,51.8,33,51.6,33,51.3z M29,51.3c0-0.3,0.2-0.5,0.5-0.5l0,0c0.3,0,0.5,0.2,0.5,0.5l0,0c0,0.3-0.2,0.5-0.5,0.5l0,0
				C29.2,51.8,29,51.6,29,51.3z M25,51.3c0-0.3,0.2-0.5,0.5-0.5l0,0c0.3,0,0.5,0.2,0.5,0.5l0,0c0,0.3-0.2,0.5-0.5,0.5l0,0
				C25.2,51.8,25,51.6,25,51.3z M21,51.3c0-0.3,0.2-0.5,0.5-0.5l0,0c0.3,0,0.5,0.2,0.5,0.5l0,0c0,0.3-0.2,0.5-0.5,0.5l0,0
				C21.2,51.8,21,51.6,21,51.3z M17,51.3c0-0.3,0.2-0.5,0.5-0.5l0,0c0.3,0,0.5,0.2,0.5,0.5l0,0c0,0.3-0.2,0.5-0.5,0.5l0,0
				C17.2,51.8,17,51.6,17,51.3z M13,51.3c0-0.3,0.2-0.5,0.5-0.5l0,0c0.3,0,0.5,0.2,0.5,0.5l0,0c0,0.3-0.2,0.5-0.5,0.5l0,0
				C13.2,51.8,13,51.6,13,51.3z"/>
		</g>
	</g>
	<g id="XMLID_2_" class="st2">
		<g id="XMLID_3_">
			<path id="XMLID_4_" d="M137,51.3c0-0.3,0.2-0.5,0.5-0.5l0,0c0.3,0,0.5,0.2,0.5,0.5l0,0c0,0.3-0.2,0.5-0.5,0.5l0,0
				C137.2,51.8,137,51.6,137,51.3z M133,51.3c0-0.3,0.2-0.5,0.5-0.5l0,0c0.3,0,0.5,0.2,0.5,0.5l0,0c0,0.3-0.2,0.5-0.5,0.5l0,0
				C133.2,51.8,133,51.6,133,51.3z M129,51.3c0-0.3,0.2-0.5,0.5-0.5l0,0c0.3,0,0.5,0.2,0.5,0.5l0,0c0,0.3-0.2,0.5-0.5,0.5l0,0
				C129.2,51.8,129,51.6,129,51.3z M125,51.3c0-0.3,0.2-0.5,0.5-0.5l0,0c0.3,0,0.5,0.2,0.5,0.5l0,0c0,0.3-0.2,0.5-0.5,0.5l0,0
				C125.2,51.8,125,51.6,125,51.3z M121,51.3c0-0.3,0.2-0.5,0.5-0.5l0,0c0.3,0,0.5,0.2,0.5,0.5l0,0c0,0.3-0.2,0.5-0.5,0.5l0,0
				C121.2,51.8,121,51.6,121,51.3z M117,51.3c0-0.3,0.2-0.5,0.5-0.5l0,0c0.3,0,0.5,0.2,0.5,0.5l0,0c0,0.3-0.2,0.5-0.5,0.5l0,0
				C117.2,51.8,117,51.6,117,51.3z M113,51.3c0-0.3,0.2-0.5,0.5-0.5l0,0c0.3,0,0.5,0.2,0.5,0.5l0,0c0,0.3-0.2,0.5-0.5,0.5l0,0
				C113.2,51.8,113,51.6,113,51.3z M109,51.3c0-0.3,0.2-0.5,0.5-0.5l0,0c0.3,0,0.5,0.2,0.5,0.5l0,0c0,0.3-0.2,0.5-0.5,0.5l0,0
				C109.2,51.8,109,51.6,109,51.3z M105,51.3c0-0.3,0.2-0.5,0.5-0.5l0,0c0.3,0,0.5,0.2,0.5,0.5l0,0c0,0.3-0.2,0.5-0.5,0.5l0,0
				C105.2,51.8,105,51.6,105,51.3z M101,51.3c0-0.3,0.2-0.5,0.5-0.5l0,0c0.3,0,0.5,0.2,0.5,0.5l0,0c0,0.3-0.2,0.5-0.5,0.5l0,0
				C101.2,51.8,101,51.6,101,51.3z M97,51.3c0-0.3,0.2-0.5,0.5-0.5l0,0c0.3,0,0.5,0.2,0.5,0.5l0,0c0,0.3-0.2,0.5-0.5,0.5l0,0
				C97.2,51.8,97,51.6,97,51.3z M93,51.3c0-0.3,0.2-0.5,0.5-0.5l0,0c0.3,0,0.5,0.2,0.5,0.5l0,0c0,0.3-0.2,0.5-0.5,0.5l0,0
				C93.2,51.8,93,51.6,93,51.3z M89,51.3c0-0.3,0.2-0.5,0.5-0.5l0,0c0.3,0,0.5,0.2,0.5,0.5l0,0c0,0.3-0.2,0.5-0.5,0.5l0,0
				C89.2,51.8,89,51.6,89,51.3z M85,51.3c0-0.3,0.2-0.5,0.5-0.5l0,0c0.3,0,0.5,0.2,0.5,0.5l0,0c0,0.3-0.2,0.5-0.5,0.5l0,0
				C85.2,51.8,85,51.6,85,51.3z"/>
		</g>
	</g>
</g>
</svg>
