<?xml version="1.0" encoding="utf-8"?>
<!-- Generator: Adobe Illustrator 19.0.0, SVG Export Plug-In . SVG Version: 6.00 Build 0)  -->
<svg version="1.1" id="Layer_1" xmlns="http://www.w3.org/2000/svg" xmlns:xlink="http://www.w3.org/1999/xlink" x="0px" y="0px"
	 viewBox="0 0 13.7 8" style="enable-background:new 0 0 13.7 8;" xml:space="preserve">
<style type="text/css">
	.st0{opacity:0.8;}
	.st1{fill:#FFCD40;}
</style>
<g id="XMLID_4609_" class="st0">
	<path id="XMLID_4621_" class="st1" d="M6.9,5.3L2.8,4.1v1.2v0.9c0,1,1.8,1.8,4.1,1.8C9.1,8,11,7.2,11,6.2c0,0,0,0,0,0V4.1L6.9,5.3z
		"/>
	<path id="XMLID_4620_" class="st1" d="M0,2.6l1.5,0.5l0.1-0.3l0.5,0l0.1,0.1L1.7,3L1.7,3.2c0,0-1,2.2-0.9,3.2c0,0,0.7,0.4,1.3,0
		l0.2-2.9V3.3l1-0.2L3.2,3.3L2.4,3.5l0.3,0.1l4.1,1.3L11,3.6l2.8-1L6.9,0L0,2.6z"/>
</g>
</svg>
