<?xml version="1.0" encoding="utf-8"?>
<!-- Generator: Adobe Illustrator 19.0.0, SVG Export Plug-In . SVG Version: 6.00 Build 0)  -->
<svg version="1.1" id="Layer_1" xmlns="http://www.w3.org/2000/svg" xmlns:xlink="http://www.w3.org/1999/xlink" x="0px" y="0px"
	 viewBox="0 0 17.9 17.9" style="enable-background:new 0 0 17.9 17.9;" xml:space="preserve">
<style type="text/css">
	.st0{opacity:0.8;}
	.st1{fill:#FFFFFF;}
	.st2{opacity:0.3;}
</style>
<g id="XMLID_2374_">
	<g id="XMLID_8094_" class="st0">
		<g id="XMLID_168_">
			<circle id="XMLID_170_" class="st1" cx="9" cy="9" r="9"/>
			<path id="XMLID_169_" class="st2" d="M14.9,15.7c0,0-3.1-1-3.8-1.7c-0.2-0.2-0.7-1.3-0.2-1.9c0,0,0.8-1.5,0.8-2.1
				c0,0,0.1,0,0.2,0c0.3,0,0.5-1.1,0.5-1.7c0-0.4-0.1-0.5-0.2-0.6c0,0-0.1-0.1-0.1-0.1V6.8c0-1.5-0.1-2.3-1-2.4
				c-0.1,0-0.1,0-0.1-0.1C10.7,3.8,9.8,3.5,9,3.5c-2.1,0-3,1.3-3,2.9v1.3c0,0,0,0.1-0.1,0.1C5.8,7.8,5.7,7.9,5.7,8.3
				c0,0.5,0.1,1.7,0.5,1.7h0.2c0,0.6,0.8,2.1,0.8,2.1c0.4,0.6,0,1.7-0.2,1.9C6.1,14.7,3,15.7,3,15.7s2,2.2,5.9,2.2
				S14.9,15.7,14.9,15.7z"/>
		</g>
	</g>
</g>
</svg>
