<?xml version="1.0" encoding="utf-8"?>
<!-- Generator: Adobe Illustrator 19.0.0, SVG Export Plug-In . SVG Version: 6.00 Build 0)  -->
<svg version="1.1" id="Layer_1" xmlns="http://www.w3.org/2000/svg" xmlns:xlink="http://www.w3.org/1999/xlink" x="0px" y="0px"
	 viewBox="0 0 9.8 15.2" style="enable-background:new 0 0 9.8 15.2;" xml:space="preserve">
<style type="text/css">
	.st0{opacity:0.9;}
	.st1{fill-rule:evenodd;clip-rule:evenodd;fill:#FFCD40;}
	.st2{fill:#FFCD40;}
</style>
<g id="XMLID_3717_" class="st0">
	<path id="XMLID_3718_" class="st1" d="M36.4,54.3h-14c-1,0-1.8,0.8-1.8,1.7v8.6c0,1,0.8,1.7,1.8,1.7h14c1,0,1.8-0.8,1.8-1.7V56
		C38.1,55.1,37.3,54.3,36.4,54.3L36.4,54.3z M23.9,57.7c0-1.2,0.9-1.8,1.6-1.8c0.8,0,1.6,0.6,1.6,1.8v0.9c0,1.2-1.2,1.8-1.6,1.8
		c-0.4,0-1.6-0.6-1.6-1.8V57.7z M28.8,63.6c0,0.8-0.3,1.1-1.1,1.1h-4.4c-0.8,0-1.1-0.3-1.1-1.1c0,0,0-0.5,0-0.5
		c0-0.6,0.3-1.5,1.2-2.1c0.4-0.3,0.9,0.2,1.5,0.7l0.2,0.2c0,0,0.2,0.2,0.4,0.2c0.2,0,0.4-0.2,0.4-0.2v0l0.2-0.2
		c0.6-0.5,1-0.9,1.5-0.7c1,0.6,1.2,1.5,1.2,2.1C28.8,63.1,28.8,63.6,28.8,63.6L28.8,63.6z M35.9,63.6H31c-0.3,0-0.5-0.2-0.5-0.5
		c0-0.3,0.2-0.5,0.5-0.5h4.9c0.3,0,0.5,0.2,0.5,0.5C36.5,63.4,36.2,63.6,35.9,63.6L35.9,63.6z M35.9,60.9H31c-0.3,0-0.5-0.2-0.5-0.5
		c0-0.3,0.2-0.5,0.5-0.5h4.9c0.3,0,0.5,0.2,0.5,0.5C36.5,60.6,36.2,60.9,35.9,60.9L35.9,60.9z M35.9,58.1H31c-0.3,0-0.5-0.2-0.5-0.5
		c0-0.3,0.2-0.5,0.5-0.5h4.9c0.3,0,0.5,0.2,0.5,0.5C36.5,57.9,36.2,58.1,35.9,58.1L35.9,58.1z M35.9,58.1"/>
</g>
<g id="XMLID_3423_" class="st0">
	<path id="XMLID_3439_" class="st2" d="M9.7,3.5C9.6,3.4,9.5,3.4,9.4,3.4H7.6C7.4,2.8,7.2,2.2,6.9,1.8h2.5c0.1,0,0.2,0,0.3-0.1
		c0.1-0.1,0.1-0.1,0.1-0.3V0.3c0-0.1,0-0.2-0.1-0.3C9.6,0,9.5,0,9.4,0h-9C0.2,0,0.2,0,0.1,0.1C0,0.2,0,0.2,0,0.3v1.4
		C0,1.9,0,2,0.1,2c0.1,0.1,0.1,0.1,0.2,0.1h1.6c1.5,0,2.5,0.4,2.9,1.2H0.3c-0.1,0-0.2,0-0.3,0.1C0,3.5,0,3.6,0,3.7v1.1
		C0,4.9,0,5,0.1,5.1c0.1,0.1,0.1,0.1,0.3,0.1H5c-0.2,0.6-0.5,1-1.1,1.4C3.3,6.8,2.5,7,1.6,7H0.3C0.3,7,0.2,7,0.1,7.1
		C0,7.2,0,7.3,0,7.3v1.4C0,8.8,0,8.9,0.1,9c1.4,1.5,3.2,3.5,5.4,6.2c0.1,0.1,0.2,0.1,0.3,0.1h2.1c0.2,0,0.3-0.1,0.3-0.2
		c0.1-0.1,0.1-0.3,0-0.4c-2.1-2.6-3.8-4.5-5-5.8c1.2-0.1,2.2-0.5,3-1.2C7,7.1,7.4,6.2,7.6,5.2h1.8c0.1,0,0.2,0,0.3-0.1
		C9.7,5,9.8,4.9,9.8,4.8V3.7C9.8,3.6,9.7,3.5,9.7,3.5L9.7,3.5z M9.7,3.5"/>
</g>
</svg>
