<?xml version="1.0" encoding="utf-8"?>
<!-- Generator: Adobe Illustrator 19.0.0, SVG Export Plug-In . SVG Version: 6.00 Build 0)  -->
<svg version="1.1" id="Layer_1" xmlns="http://www.w3.org/2000/svg" xmlns:xlink="http://www.w3.org/1999/xlink" x="0px" y="0px"
	 viewBox="0 0 17.6 12.1" style="enable-background:new 0 0 17.6 12.1;" xml:space="preserve">
<style type="text/css">
	.st0{opacity:0.9;}
	.st1{fill-rule:evenodd;clip-rule:evenodd;fill:#FFCD40;}
</style>
<g id="XMLID_3717_" class="st0">
	<path id="XMLID_3718_" class="st1" d="M15.8,0h-14C0.8,0,0,0.8,0,1.7v8.6c0,1,0.8,1.7,1.8,1.7h14c1,0,1.8-0.8,1.8-1.7V1.7
		C17.6,0.8,16.8,0,15.8,0L15.8,0z M3.3,3.4c0-1.2,0.9-1.8,1.6-1.8c0.8,0,1.6,0.6,1.6,1.8v0.9C6.6,5.5,5.4,6,4.9,6
		C4.5,6,3.3,5.5,3.3,4.3V3.4z M8.2,9.3c0,0.8-0.3,1.1-1.1,1.1H2.7c-0.8,0-1.1-0.3-1.1-1.1c0,0,0-0.5,0-0.5c0-0.6,0.3-1.5,1.2-2.1
		c0.4-0.3,0.9,0.2,1.5,0.7l0.2,0.2c0,0,0.2,0.2,0.4,0.2c0.2,0,0.4-0.2,0.4-0.2v0l0.2-0.2c0.6-0.5,1-0.9,1.5-0.7
		c1,0.6,1.2,1.5,1.2,2.1C8.2,8.8,8.2,9.3,8.2,9.3L8.2,9.3z M15.4,9.3h-4.9c-0.3,0-0.5-0.2-0.5-0.5c0-0.3,0.2-0.5,0.5-0.5h4.9
		c0.3,0,0.5,0.2,0.5,0.5C15.9,9.1,15.7,9.3,15.4,9.3L15.4,9.3z M15.4,6.6h-4.9c-0.3,0-0.5-0.2-0.5-0.5c0-0.3,0.2-0.5,0.5-0.5h4.9
		c0.3,0,0.5,0.2,0.5,0.5C15.9,6.3,15.7,6.6,15.4,6.6L15.4,6.6z M15.4,3.8h-4.9c-0.3,0-0.5-0.2-0.5-0.5s0.2-0.5,0.5-0.5h4.9
		c0.3,0,0.5,0.2,0.5,0.5S15.7,3.8,15.4,3.8L15.4,3.8z M15.4,3.8"/>
</g>
</svg>
