<?xml version="1.0" encoding="utf-8"?>
<!-- Generator: Adobe Illustrator 19.0.0, SVG Export Plug-In . SVG Version: 6.00 Build 0)  -->
<svg version="1.1" id="Layer_1" xmlns="http://www.w3.org/2000/svg" xmlns:xlink="http://www.w3.org/1999/xlink" x="0px" y="0px"
	 viewBox="0 0 17 14.5" style="enable-background:new 0 0 17 14.5;" xml:space="preserve">
<style type="text/css">
	.st0{opacity:0.9;fill:#FFCD40;}
	.st1{opacity:0.9;}
	.st2{fill-rule:evenodd;clip-rule:evenodd;fill:#FFCD40;}
	.st3{fill:#FFCD40;}
</style>
<path id="XMLID_3338_" class="st0" d="M-17.8,36.7h-2.9v-1.4c0-0.8-0.6-1.4-1.4-1.4h-2.9c-0.8,0-1.4,0.6-1.4,1.4v1.4h-2.9
	c-0.8,0-1.4,0.6-1.4,1.4l0,7.9c0,0.8,0.6,1.4,1.4,1.4h11.4c0.8,0,1.4-0.6,1.4-1.4v-7.9C-16.4,37.4-17,36.7-17.8,36.7z M-22.1,36.7
	h-2.9v-1.4h2.9V36.7z"/>
<path id="XMLID_3921_" class="st0" d="M6.8,14.5V9.4h3.4v5.1h4.3V7.7H17L8.5,0L0,7.7h2.6v6.8H6.8z"/>
<path id="XMLID_5088_" class="st0" d="M-25.2,97.7v-5.1h3.4v5.1h4.3v-6.8h2.6l-8.5-7.7l-8.5,7.7h2.6v6.8H-25.2z"/>
<g id="XMLID_3717_" class="st1">
	<path id="XMLID_3718_" class="st2" d="M-15.6,192.4h-14c-1,0-1.8,0.8-1.8,1.7v8.6c0,1,0.8,1.7,1.8,1.7h14c1,0,1.8-0.8,1.8-1.7v-8.6
		C-13.8,193.1-14.6,192.4-15.6,192.4L-15.6,192.4z M-28.1,195.8c0-1.2,0.9-1.8,1.6-1.8c0.8,0,1.6,0.6,1.6,1.8v0.9
		c0,1.2-1.2,1.8-1.6,1.8c-0.4,0-1.6-0.6-1.6-1.8V195.8z M-23.2,201.7c0,0.8-0.3,1.1-1.1,1.1h-4.4c-0.8,0-1.1-0.3-1.1-1.1
		c0,0,0-0.5,0-0.5c0-0.6,0.3-1.5,1.2-2.1c0.4-0.3,0.9,0.2,1.5,0.7l0.2,0.2c0,0,0.2,0.2,0.4,0.2c0.2,0,0.4-0.2,0.4-0.2v0l0.2-0.2
		c0.6-0.5,1-0.9,1.5-0.7c1,0.6,1.2,1.5,1.2,2.1C-23.2,201.2-23.2,201.7-23.2,201.7L-23.2,201.7z M-16,201.7H-21
		c-0.3,0-0.5-0.2-0.5-0.5c0-0.3,0.2-0.5,0.5-0.5h4.9c0.3,0,0.5,0.2,0.5,0.5C-15.5,201.4-15.7,201.7-16,201.7L-16,201.7z M-16,198.9
		H-21c-0.3,0-0.5-0.2-0.5-0.5c0-0.3,0.2-0.5,0.5-0.5h4.9c0.3,0,0.5,0.2,0.5,0.5C-15.5,198.7-15.7,198.9-16,198.9L-16,198.9z
		 M-16,196.2H-21c-0.3,0-0.5-0.2-0.5-0.5c0-0.3,0.2-0.5,0.5-0.5h4.9c0.3,0,0.5,0.2,0.5,0.5C-15.5,196-15.7,196.2-16,196.2L-16,196.2
		z M-16,196.2"/>
</g>
<g id="XMLID_3423_" class="st1">
	<path id="XMLID_3439_" class="st3" d="M-18.7,141.6c-0.1-0.1-0.1-0.1-0.3-0.1h-1.9c-0.1-0.6-0.4-1.1-0.7-1.6h2.5
		c0.1,0,0.2,0,0.3-0.1c0.1-0.1,0.1-0.1,0.1-0.3v-1.1c0-0.1,0-0.2-0.1-0.3c-0.1-0.1-0.1-0.1-0.3-0.1h-9c-0.1,0-0.2,0-0.3,0.1
		c-0.1,0.1-0.1,0.1-0.1,0.3v1.4c0,0.1,0,0.2,0.1,0.2c0.1,0.1,0.1,0.1,0.2,0.1h1.6c1.5,0,2.5,0.4,2.9,1.2H-28c-0.1,0-0.2,0-0.3,0.1
		c-0.1,0.1-0.1,0.1-0.1,0.2v1.1c0,0.1,0,0.2,0.1,0.3c0.1,0.1,0.1,0.1,0.3,0.1h4.6c-0.2,0.6-0.5,1-1.1,1.4c-0.6,0.3-1.4,0.5-2.3,0.5
		H-28c-0.1,0-0.2,0-0.2,0.1c-0.1,0.1-0.1,0.2-0.1,0.2v1.4c0,0.1,0,0.2,0.1,0.2c1.4,1.5,3.2,3.5,5.4,6.2c0.1,0.1,0.2,0.1,0.3,0.1h2.1
		c0.2,0,0.3-0.1,0.3-0.2c0.1-0.1,0.1-0.3,0-0.4c-2.1-2.6-3.8-4.5-5-5.8c1.2-0.1,2.2-0.5,3-1.2c0.8-0.7,1.2-1.5,1.4-2.5h1.8
		c0.1,0,0.2,0,0.3-0.1c0.1-0.1,0.1-0.1,0.1-0.2v-1.1C-18.6,141.7-18.7,141.6-18.7,141.6L-18.7,141.6z M-18.7,141.6"/>
</g>
<path id="XMLID_3945_" class="st0" d="M-16.4-62.2c0,0.2,0,0.4-0.2,0.6l-2,2c-0.1,0.1-0.2,0.2-0.4,0.3c-0.1,0.1-0.3,0.1-0.4,0.1
	c0,0,0,0-0.1,0c-0.1,0-0.1,0-0.2,0c-0.2,0-0.5,0-0.9-0.1c-0.4-0.1-0.9-0.2-1.6-0.5c-0.6-0.3-1.3-0.6-2.1-1.2
	c-0.8-0.5-1.6-1.2-2.5-2.1c-0.7-0.7-1.3-1.4-1.7-2c-0.5-0.6-0.8-1.2-1.1-1.8c-0.3-0.5-0.5-1-0.6-1.5c-0.1-0.4-0.2-0.8-0.3-1.1
	c-0.1-0.3-0.1-0.6-0.1-0.7c0-0.2,0-0.3,0-0.3c0-0.1,0.1-0.3,0.1-0.4c0.1-0.1,0.2-0.3,0.3-0.4l2-2c0.1-0.1,0.3-0.2,0.5-0.2
	c0.1,0,0.2,0,0.3,0.1c0.1,0.1,0.2,0.2,0.3,0.3l1.6,3.1c0.1,0.2,0.1,0.3,0.1,0.5c0,0.2-0.1,0.4-0.3,0.5l-0.7,0.7c0,0,0,0.1-0.1,0.1
	c0,0,0,0.1,0,0.1c0,0.2,0.1,0.5,0.3,0.7c0.1,0.2,0.3,0.5,0.6,0.9c0.3,0.3,0.6,0.7,1.1,1.2c0.5,0.5,0.9,0.8,1.2,1.1
	c0.4,0.3,0.6,0.4,0.9,0.6c0.2,0.1,0.4,0.2,0.5,0.2l0.2,0c0,0,0.1,0,0.1,0c0,0,0.1,0,0.1-0.1l0.9-0.9c0.2-0.2,0.4-0.2,0.6-0.2
	c0.2,0,0.3,0,0.4,0.1h0l2.9,1.7C-16.6-62.6-16.4-62.4-16.4-62.2L-16.4-62.2z M-16.4-62.2"/>
</svg>
