<?xml version="1.0" encoding="utf-8"?>
<!-- Generator: Adobe Illustrator 19.0.0, SVG Export Plug-In . SVG Version: 6.00 Build 0)  -->
<svg version="1.1" id="Layer_1" xmlns="http://www.w3.org/2000/svg" xmlns:xlink="http://www.w3.org/1999/xlink" x="0px" y="0px"
	 viewBox="0 0 13.9 13.9" style="enable-background:new 0 0 13.9 13.9;" xml:space="preserve">
<style type="text/css">
	.st0{opacity:0.9;fill:#FFCD40;}
	.st1{opacity:0.9;}
	.st2{fill-rule:evenodd;clip-rule:evenodd;fill:#FFCD40;}
	.st3{fill:#FFCD40;}
	.st4{fill:none;}
</style>
<path id="XMLID_3338_" class="st0" d="M-356.5,99.6h-2.9v-1.4c0-0.8-0.6-1.4-1.4-1.4h-2.9c-0.8,0-1.4,0.6-1.4,1.4v1.4h-2.9
	c-0.8,0-1.4,0.6-1.4,1.4l0,7.9c0,0.8,0.6,1.4,1.4,1.4h11.4c0.8,0,1.4-0.6,1.4-1.4V101C-355.1,100.3-355.7,99.6-356.5,99.6z
	 M-360.8,99.6h-2.9v-1.4h2.9V99.6z"/>
<path id="XMLID_3921_" class="st0" d="M-363.9,54.8v-5.1h3.4v5.1h4.3V48h2.6l-8.5-7.7l-8.5,7.7h2.6v6.8H-363.9z"/>
<path id="XMLID_5088_" class="st0" d="M-363.9,160.6v-5.1h3.4v5.1h4.3v-6.8h2.6l-8.5-7.7l-8.5,7.7h2.6v6.8H-363.9z"/>
<g id="XMLID_3717_" class="st1">
	<path id="XMLID_3718_" class="st2" d="M-354.3,255.3h-14c-1,0-1.8,0.8-1.8,1.7v8.6c0,1,0.8,1.7,1.8,1.7h14c1,0,1.8-0.8,1.8-1.7V257
		C-352.6,256-353.3,255.3-354.3,255.3L-354.3,255.3z M-366.8,258.7c0-1.2,0.9-1.8,1.6-1.8c0.8,0,1.6,0.6,1.6,1.8v0.9
		c0,1.2-1.2,1.8-1.6,1.8c-0.4,0-1.6-0.6-1.6-1.8V258.7z M-361.9,264.6c0,0.8-0.3,1.1-1.1,1.1h-4.4c-0.8,0-1.1-0.3-1.1-1.1
		c0,0,0-0.5,0-0.5c0-0.6,0.3-1.5,1.2-2.1c0.4-0.3,0.9,0.2,1.5,0.7l0.2,0.2c0,0,0.2,0.2,0.4,0.2c0.2,0,0.4-0.2,0.4-0.2v0l0.2-0.2
		c0.6-0.5,1-0.9,1.5-0.7c1,0.6,1.2,1.5,1.2,2.1C-361.9,264-361.9,264.6-361.9,264.6L-361.9,264.6z M-354.7,264.6h-4.9
		c-0.3,0-0.5-0.2-0.5-0.5c0-0.3,0.2-0.5,0.5-0.5h4.9c0.3,0,0.5,0.2,0.5,0.5C-354.2,264.3-354.4,264.6-354.7,264.6L-354.7,264.6z
		 M-354.7,261.8h-4.9c-0.3,0-0.5-0.2-0.5-0.5c0-0.3,0.2-0.5,0.5-0.5h4.9c0.3,0,0.5,0.2,0.5,0.5
		C-354.2,261.6-354.4,261.8-354.7,261.8L-354.7,261.8z M-354.7,259.1h-4.9c-0.3,0-0.5-0.2-0.5-0.5s0.2-0.5,0.5-0.5h4.9
		c0.3,0,0.5,0.2,0.5,0.5S-354.4,259.1-354.7,259.1L-354.7,259.1z M-354.7,259.1"/>
</g>
<g id="XMLID_3423_" class="st1">
	<path id="XMLID_3439_" class="st3" d="M-357.5,204.4c-0.1-0.1-0.1-0.1-0.3-0.1h-1.9c-0.1-0.6-0.4-1.1-0.7-1.6h2.5
		c0.1,0,0.2,0,0.3-0.1c0.1-0.1,0.1-0.1,0.1-0.3v-1.1c0-0.1,0-0.2-0.1-0.3c-0.1-0.1-0.1-0.1-0.3-0.1h-9c-0.1,0-0.2,0-0.3,0.1
		c-0.1,0.1-0.1,0.1-0.1,0.3v1.4c0,0.1,0,0.2,0.1,0.2c0.1,0.1,0.1,0.1,0.2,0.1h1.6c1.5,0,2.5,0.4,2.9,1.2h-4.5c-0.1,0-0.2,0-0.3,0.1
		c-0.1,0.1-0.1,0.1-0.1,0.2v1.1c0,0.1,0,0.2,0.1,0.3c0.1,0.1,0.1,0.1,0.3,0.1h4.6c-0.2,0.6-0.5,1-1.1,1.4c-0.6,0.3-1.4,0.5-2.3,0.5
		h-1.2c-0.1,0-0.2,0-0.2,0.1c-0.1,0.1-0.1,0.2-0.1,0.2v1.4c0,0.1,0,0.2,0.1,0.2c1.4,1.5,3.2,3.5,5.4,6.2c0.1,0.1,0.2,0.1,0.3,0.1
		h2.1c0.2,0,0.3-0.1,0.3-0.2c0.1-0.1,0.1-0.3,0-0.4c-2.1-2.6-3.8-4.5-5-5.8c1.2-0.1,2.2-0.5,3-1.2c0.8-0.7,1.2-1.5,1.4-2.5h1.8
		c0.1,0,0.2,0,0.3-0.1c0.1-0.1,0.1-0.1,0.1-0.2v-1.1C-357.4,204.6-357.4,204.5-357.5,204.4L-357.5,204.4z M-357.5,204.4"/>
</g>
<g id="XMLID_2514_">
	<g id="XMLID_5085_" class="st1">
		<path id="XMLID_5217_" class="st3" d="M6.9,6.9c1.9,0,3.5-1.6,3.5-3.5C10.4,1.6,8.9,0,6.9,0C5,0,3.5,1.6,3.5,3.5
			C3.5,5.4,5,6.9,6.9,6.9z M6.9,8.7C4.6,8.7,0,9.8,0,12.2v1.7h13.9v-1.7C13.9,9.8,9.3,8.7,6.9,8.7z"/>
	</g>
	<rect id="XMLID_2520_" x="-3.5" y="-3.5" class="st4" width="20.8" height="20.8"/>
</g>
<g id="XMLID_5381_">
	<path id="XMLID_5382_" class="st3" d="M-352.9-53.1c0,0.3-0.1,0.7-0.3,1l-5-5.6l4.9-4.3c0.2,0.3,0.3,0.7,0.3,1.1V-53.1z
		 M-360.8-56.7l6.9-6c-0.3-0.2-0.6-0.2-0.9-0.2h-11.9c-0.3,0-0.7,0.1-0.9,0.2L-360.8-56.7z M-358.9-57.1l-1.6,1.4
		c-0.1,0.1-0.2,0.1-0.3,0.1c-0.1,0-0.2,0-0.3-0.1l-1.6-1.4l-5.1,5.7c0.3,0.2,0.7,0.3,1,0.3h11.9c0.4,0,0.7-0.1,1-0.3L-358.9-57.1z
		 M-368.4-62.1c-0.2,0.3-0.3,0.7-0.3,1.1v7.9c0,0.3,0.1,0.7,0.3,1l5-5.6L-368.4-62.1z M-368.4-62.1"/>
</g>
<path id="XMLID_3945_" class="st0" d="M-355.1,0.6c0,0.2,0,0.4-0.2,0.6l-2,2c-0.1,0.1-0.2,0.2-0.4,0.3c-0.1,0.1-0.3,0.1-0.4,0.1
	c0,0,0,0-0.1,0c-0.1,0-0.1,0-0.2,0c-0.2,0-0.5,0-0.9-0.1c-0.4-0.1-0.9-0.2-1.6-0.5c-0.6-0.3-1.3-0.6-2.1-1.2
	c-0.8-0.5-1.6-1.2-2.5-2.1c-0.7-0.7-1.3-1.4-1.7-2c-0.5-0.6-0.8-1.2-1.1-1.8c-0.3-0.5-0.5-1-0.6-1.5c-0.1-0.4-0.2-0.8-0.3-1.1
	c-0.1-0.3-0.1-0.6-0.1-0.7c0-0.2,0-0.3,0-0.3c0-0.1,0.1-0.3,0.1-0.4c0.1-0.1,0.2-0.3,0.3-0.4l2-2c0.1-0.1,0.3-0.2,0.5-0.2
	c0.1,0,0.2,0,0.3,0.1c0.1,0.1,0.2,0.2,0.3,0.3l1.6,3.1c0.1,0.2,0.1,0.3,0.1,0.5c0,0.2-0.1,0.4-0.3,0.5l-0.7,0.7c0,0,0,0.1-0.1,0.1
	c0,0,0,0.1,0,0.1c0,0.2,0.1,0.5,0.3,0.7c0.1,0.2,0.3,0.5,0.6,0.9c0.3,0.3,0.6,0.7,1.1,1.2c0.5,0.5,0.9,0.8,1.2,1.1
	c0.4,0.3,0.6,0.4,0.9,0.6c0.2,0.1,0.4,0.2,0.5,0.2l0.2,0c0,0,0.1,0,0.1,0c0,0,0.1,0,0.1-0.1l0.9-0.9c0.2-0.2,0.4-0.2,0.6-0.2
	c0.2,0,0.3,0,0.4,0.1h0l2.9,1.7C-355.3,0.3-355.2,0.4-355.1,0.6L-355.1,0.6z M-355.1,0.6"/>
</svg>
