<?xml version="1.0" encoding="utf-8"?>
<!-- Generator: Adobe Illustrator 19.0.0, SVG Export Plug-In . SVG Version: 6.00 Build 0)  -->
<svg version="1.1" id="Layer_1" xmlns="http://www.w3.org/2000/svg" xmlns:xlink="http://www.w3.org/1999/xlink" x="0px" y="0px"
	 viewBox="0 0 14.2 14.2" style="enable-background:new 0 0 14.2 14.2;" xml:space="preserve">
<style type="text/css">
	.st0{opacity:0.9;fill:#FFCD40;}
	.st1{opacity:0.9;}
	.st2{fill-rule:evenodd;clip-rule:evenodd;fill:#FFCD40;}
	.st3{fill:#FFCD40;}
</style>
<path id="XMLID_3338_" class="st0" d="M-19.5,36.6h-2.9v-1.4c0-0.8-0.6-1.4-1.4-1.4h-2.9c-0.8,0-1.4,0.6-1.4,1.4v1.4H-31
	c-0.8,0-1.4,0.6-1.4,1.4l0,7.9c0,0.8,0.6,1.4,1.4,1.4h11.4c0.8,0,1.4-0.6,1.4-1.4V38C-18.1,37.3-18.8,36.6-19.5,36.6z M-23.8,36.6
	h-2.9v-1.4h2.9V36.6z"/>
<path id="XMLID_5088_" class="st0" d="M-27,97.6v-5.1h3.4v5.1h4.3v-6.8h2.6l-8.5-7.7l-8.5,7.7h2.6v6.8H-27z"/>
<g id="XMLID_3717_" class="st1">
	<path id="XMLID_3718_" class="st2" d="M-17.3,192.3h-14c-1,0-1.8,0.8-1.8,1.7v8.6c0,1,0.8,1.7,1.8,1.7h14c1,0,1.8-0.8,1.8-1.7V194
		C-15.6,193-16.4,192.3-17.3,192.3L-17.3,192.3z M-29.8,195.7c0-1.2,0.9-1.8,1.6-1.8c0.8,0,1.6,0.6,1.6,1.8v0.9
		c0,1.2-1.2,1.8-1.6,1.8c-0.4,0-1.6-0.6-1.6-1.8V195.7z M-24.9,201.6c0,0.8-0.3,1.1-1.1,1.1h-4.4c-0.8,0-1.1-0.3-1.1-1.1
		c0,0,0-0.5,0-0.5c0-0.6,0.3-1.5,1.2-2.1c0.4-0.3,0.9,0.2,1.5,0.7l0.2,0.2c0,0,0.2,0.2,0.4,0.2c0.2,0,0.4-0.2,0.4-0.2v0l0.2-0.2
		c0.6-0.5,1-0.9,1.5-0.7c1,0.6,1.2,1.5,1.2,2.1C-24.9,201-24.9,201.6-24.9,201.6L-24.9,201.6z M-17.8,201.6h-4.9
		c-0.3,0-0.5-0.2-0.5-0.5c0-0.3,0.2-0.5,0.5-0.5h4.9c0.3,0,0.5,0.2,0.5,0.5C-17.2,201.3-17.5,201.6-17.8,201.6L-17.8,201.6z
		 M-17.8,198.8h-4.9c-0.3,0-0.5-0.2-0.5-0.5c0-0.3,0.2-0.5,0.5-0.5h4.9c0.3,0,0.5,0.2,0.5,0.5C-17.2,198.6-17.5,198.8-17.8,198.8
		L-17.8,198.8z M-17.8,196.1h-4.9c-0.3,0-0.5-0.2-0.5-0.5c0-0.3,0.2-0.5,0.5-0.5h4.9c0.3,0,0.5,0.2,0.5,0.5
		C-17.2,195.8-17.5,196.1-17.8,196.1L-17.8,196.1z M-17.8,196.1"/>
</g>
<g id="XMLID_3423_" class="st1">
	<path id="XMLID_3439_" class="st3" d="M-20.5,141.4c-0.1-0.1-0.1-0.1-0.3-0.1h-1.9c-0.1-0.6-0.4-1.1-0.7-1.6h2.5
		c0.1,0,0.2,0,0.3-0.1c0.1-0.1,0.1-0.1,0.1-0.3v-1.1c0-0.1,0-0.2-0.1-0.3c-0.1-0.1-0.1-0.1-0.3-0.1h-9c-0.1,0-0.2,0-0.3,0.1
		c-0.1,0.1-0.1,0.1-0.1,0.3v1.4c0,0.1,0,0.2,0.1,0.2c0.1,0.1,0.1,0.1,0.2,0.1h1.6c1.5,0,2.5,0.4,2.9,1.2h-4.5c-0.1,0-0.2,0-0.3,0.1
		c-0.1,0.1-0.1,0.1-0.1,0.2v1.1c0,0.1,0,0.2,0.1,0.3c0.1,0.1,0.1,0.1,0.3,0.1h4.6c-0.2,0.6-0.5,1-1.1,1.4c-0.6,0.3-1.4,0.5-2.3,0.5
		h-1.2c-0.1,0-0.2,0-0.2,0.1c-0.1,0.1-0.1,0.2-0.1,0.2v1.4c0,0.1,0,0.2,0.1,0.2c1.4,1.5,3.2,3.5,5.4,6.2c0.1,0.1,0.2,0.1,0.3,0.1
		h2.1c0.2,0,0.3-0.1,0.3-0.2c0.1-0.1,0.1-0.3,0-0.4c-2.1-2.6-3.8-4.5-5-5.8c1.2-0.1,2.2-0.5,3-1.2c0.8-0.7,1.2-1.5,1.4-2.5h1.8
		c0.1,0,0.2,0,0.3-0.1c0.1-0.1,0.1-0.1,0.1-0.2v-1.1C-20.4,141.6-20.4,141.5-20.5,141.4L-20.5,141.4z M-20.5,141.4"/>
</g>
<path id="XMLID_3945_" class="st0" d="M14.2,11.2c0,0.2,0,0.4-0.2,0.6l-2,2c-0.1,0.1-0.2,0.2-0.4,0.3c-0.1,0.1-0.3,0.1-0.4,0.1
	c0,0,0,0-0.1,0c-0.1,0-0.1,0-0.2,0c-0.2,0-0.5,0-0.9-0.1c-0.4-0.1-0.9-0.2-1.6-0.5c-0.6-0.3-1.3-0.6-2.1-1.2
	c-0.8-0.5-1.6-1.2-2.5-2.1C3.1,9.7,2.6,9,2.1,8.4C1.6,7.8,1.3,7.2,1,6.6c-0.3-0.5-0.5-1-0.6-1.5C0.2,4.7,0.1,4.4,0.1,4
	C0,3.7,0,3.5,0,3.3C0,3.1,0,3,0,3c0-0.1,0.1-0.3,0.1-0.4c0.1-0.1,0.2-0.3,0.3-0.4l2-2C2.6,0.1,2.7,0,2.9,0C3,0,3.1,0,3.2,0.1
	c0.1,0.1,0.2,0.2,0.3,0.3l1.6,3.1C5.2,3.6,5.2,3.8,5.2,4c0,0.2-0.1,0.4-0.3,0.5L4.2,5.2c0,0,0,0.1-0.1,0.1c0,0,0,0.1,0,0.1
	c0,0.2,0.1,0.5,0.3,0.7C4.5,6.4,4.7,6.7,4.9,7C5.2,7.4,5.6,7.8,6,8.2C6.5,8.7,6.9,9,7.2,9.3c0.4,0.3,0.6,0.4,0.9,0.6
	C8.3,10,8.5,10,8.6,10.1l0.2,0c0,0,0.1,0,0.1,0c0,0,0.1,0,0.1-0.1l0.9-0.9c0.2-0.2,0.4-0.2,0.6-0.2c0.2,0,0.3,0,0.4,0.1h0l2.9,1.7
	C14.1,10.9,14.2,11,14.2,11.2L14.2,11.2z M14.2,11.2"/>
</svg>
