<?xml version="1.0" encoding="utf-8"?>
<!-- Generator: Adobe Illustrator 19.0.0, SVG Export Plug-In . SVG Version: 6.00 Build 0)  -->
<svg version="1.1" id="Layer_1" xmlns="http://www.w3.org/2000/svg" xmlns:xlink="http://www.w3.org/1999/xlink" x="0px" y="0px"
	 viewBox="0 0 8 11.6" style="enable-background:new 0 0 8 11.6;" xml:space="preserve">
<style type="text/css">
	.st0{opacity:0.8;}
	.st1{fill:#FFCD40;}
</style>
<g id="XMLID_4595_" class="st0">
	<path id="XMLID_4596_" class="st1" d="M7.8,2.9c0-0.2-0.1-0.3-0.2-0.5C6.9,0.6,5.3,0,3.9,0C2.2,0,0.3,1.2,0,3.6v0.5
		c0,0,0,0.2,0,0.3c0.1,1.2,1.1,2.4,1.7,3.5c0.7,1.2,1.5,2.5,2.2,3.7c0.5-0.8,0.9-1.6,1.4-2.4C5.5,9,5.7,8.8,5.8,8.6
		C5.9,8.4,6,8.3,6.1,8.1C6.8,6.8,8,5.5,8,4.1V3.6C8,3.4,7.8,2.9,7.8,2.9L7.8,2.9z M4,5.4c-0.5,0-1.1-0.3-1.4-1c0-0.1,0-0.3,0-0.4
		V3.7c0-0.9,0.8-1.3,1.4-1.3c0.8,0,1.5,0.7,1.5,1.5C5.5,4.7,4.8,5.4,4,5.4L4,5.4z M4,5.4"/>
</g>
</svg>
