<?xml version="1.0" encoding="utf-8"?>
<!-- Generator: Adobe Illustrator 19.0.0, SVG Export Plug-In . SVG Version: 6.00 Build 0)  -->
<svg version="1.1" id="Layer_1" xmlns="http://www.w3.org/2000/svg" xmlns:xlink="http://www.w3.org/1999/xlink" x="0px" y="0px"
	 viewBox="0 0 21.1 18" style="enable-background:new 0 0 21.1 18;" xml:space="preserve">
<style type="text/css">
	.st0{opacity:0.8;}
	.st1{fill:#FFFFFF;}
	.st2{opacity:0.3;}
</style>
<g id="XMLID_2283_">
	<g id="XMLID_1468_" class="st0">
		<path id="XMLID_5572_" class="st1" d="M19.6,14.5l-3.2-1.6c-0.4-0.2-0.7-0.6-0.7-1.1v-1.3c0.1-0.1,0.2-0.2,0.3-0.4
			c0.4-0.6,0.8-1.3,1-2c0.4-0.1,0.7-0.5,0.7-1V5.8c0-0.3-0.1-0.6-0.3-0.8v-2c0,0,0.4-3.1-3.7-3.1S9.9,3.1,9.9,3.1v2
			C9.7,5.2,9.6,5.5,9.6,5.8v1.4C9.6,7.5,9.8,7.8,10,8c0.3,1.5,1.2,2.5,1.2,2.5v1.2c0,0.5-0.2,0.9-0.6,1.1l-3,1.7
			c-0.9,0.5-1.4,1.4-1.4,2.4V18h14.9v-1C21.1,15.9,20.5,15,19.6,14.5L19.6,14.5z M19.6,14.5"/>
		<path id="XMLID_5564_" class="st1" d="M6.2,14.5l2-1.1c0,0,0,0,0,0l1-0.5c0.4-0.2,0.6-0.6,0.6-1.1v-1.2c0,0-0.4-0.4-0.7-1.1
			C9.1,9.3,9,9.2,9,9.1c0,0,0,0,0,0c0-0.1-0.1-0.2-0.1-0.3c0,0,0,0,0,0c0-0.1-0.1-0.2-0.1-0.3c0,0,0-0.1,0-0.1
			c0-0.1-0.1-0.2-0.1-0.4C8.3,7.8,8.2,7.5,8.2,7.1V5.8c0-0.3,0.1-0.6,0.3-0.8V3.1C8,2.7,7.3,2.4,6.1,2.4c-3.2,0-3.4,2.7-3.4,2.7v1.7
			C2.5,7,2.4,7.2,2.4,7.4v1.2c0,0.3,0.2,0.6,0.4,0.7c0.3,1.3,1.3,2.2,1.3,2.2v1.1c0,0.4-0.2,0.8-0.6,0.9L1.2,15
			C0.5,15.4,0,16.2,0,17.1V18h4.8v-1.1C4.8,15.9,5.3,15,6.2,14.5L6.2,14.5z M6.2,14.5"/>
	</g>
</g>
<g id="XMLID_2299_">
	<g id="XMLID_7941_" class="st0">
		<g id="XMLID_108_">
			<path id="XMLID_112_" class="st1" d="M-19.2-2.2c-0.2,1-0.3,0.8-0.3,1.2c0,1.1,0.9,2.1,2,2.1s2-1,2-2.1c0-0.4-0.1-0.1-0.3-1.1
				H-19.2z"/>
			<path id="XMLID_109_" class="st1" d="M-13-7.9c0-0.9,0-1.3,0-1.5c0-2.1-0.2-3.7-2-4.5v-0.5c0-1.2-1.3-2.5-2.5-2.5
				c-1.2,0-2.5,1.3-2.5,2.5v0.5c-1,0.8-2,2.4-2,4.5c0,0.3,0,0.8,0,1.5c0,1.8-0.8,2.7-1.6,3C-23.9-4.9-24-4.7-24-4.5v1.1
				c0,0.3,0.2,0.5,0.5,0.5h12c0.3,0,0.5-0.2,0.5-0.5v-1.1c0-0.2-0.1-0.4-0.4-0.5C-12.2-5.1-13-6.1-13-7.9z M-17.5-13.4
				c-0.6,0-1-0.4-1-1s0.4-1,1-1s1,0.4,1,1S-16.9-13.4-17.5-13.4z"/>
		</g>
	</g>
</g>
<g id="XMLID_2374_">
	<g id="XMLID_8094_" class="st0">
		<g id="XMLID_90_">
			<circle id="XMLID_92_" class="st1" cx="117" cy="-7.9" r="10.3"/>
			<path id="XMLID_91_" class="st2" d="M123.9-0.2c0,0-3.5-1.2-4.3-2c-0.3-0.3-0.8-1.5-0.3-2.2c0,0,0.9-1.7,0.9-2.4c0,0,0.2,0,0.2,0
				c0.3,0,0.5-1.3,0.5-1.9c0-0.4-0.2-0.6-0.3-0.7c0,0-0.1-0.1-0.1-0.1v-1c0-1.7-0.1-2.7-1.1-2.7c-0.1,0-0.1,0-0.1-0.1
				c-0.2-0.6-1.3-0.9-2.2-0.9c-2.4,0-3.5,1.5-3.5,3.3v1.5c0,0.1,0,0.1-0.1,0.1c-0.1,0.1-0.3,0.2-0.3,0.7c0,0.6,0.2,1.9,0.5,1.9h0.2
				c0,0.7,0.9,2.4,0.9,2.4c0.5,0.7,0,1.9-0.3,2.2c-0.8,0.8-4.3,2-4.3,2s2.3,2.6,6.8,2.6C121.5,2.4,123.9-0.2,123.9-0.2z"/>
		</g>
	</g>
</g>
</svg>
