<?xml version="1.0" encoding="utf-8"?>
<!-- Generator: Adobe Illustrator 19.0.0, SVG Export Plug-In . SVG Version: 6.00 Build 0)  -->
<svg version="1.1" id="Layer_1" xmlns="http://www.w3.org/2000/svg" xmlns:xlink="http://www.w3.org/1999/xlink" x="0px" y="0px"
	 viewBox="-954 535.4 11 11.6" style="enable-background:new -954 535.4 11 11.6;" xml:space="preserve">
<style type="text/css">
	.st0{opacity:0.8;}
	.st1{fill:#FAAA43;}
</style>
<g id="ui_x5F_appBar">
</g>
<g id="XMLID_1986_" class="st0">
	<g id="XMLID_2007_">
		<path id="XMLID_2011_" class="st1" d="M-944.6,538.6h-1.9v-1l-1-1h-1.9l-1,1v1h-1.9c-0.5,0-1,0.4-1,1v5.3c0,0.5,0.4,1,1,1h7.7
			c0.5,0,1-0.4,1-1v-5.3C-943.7,539-944.1,538.6-944.6,538.6L-944.6,538.6z M-949.5,537.6h1.9v1h-1.9V537.6z M-949.2,544.1l-1.7-1.7
			l0.7-0.7l1,1l2.5-2.5l0.7,0.7L-949.2,544.1z M-949.2,544.1"/>
	</g>
</g>
</svg>
