<?xml version="1.0" encoding="utf-8"?>
<!-- Generator: Adobe Illustrator 19.0.0, SVG Export Plug-In . SVG Version: 6.00 Build 0)  -->
<svg version="1.1" id="Layer_1" xmlns="http://www.w3.org/2000/svg" xmlns:xlink="http://www.w3.org/1999/xlink" x="0px" y="0px"
	 viewBox="0 0 2.7 10.7" style="enable-background:new 0 0 2.7 10.7;" xml:space="preserve">
<style type="text/css">
	.st0{fill:none;}
	.st1{display:none;fill:none;}
</style>
<symbol  id="ic_x5F_more_x5F_vert" viewBox="0 -24 12 24">
	<polygon id="XMLID_5369_" class="st0" points="12,-24 0,-24 0,0 12,0 	"/>
	<path id="XMLID_5365_" d="M6-8c1.1,0,2,0.9,2,2S7.1-4,6-4C4.9-4,4-4.9,4-6S4.9-8,6-8z M6-10c-1.1,0-2-0.9-2-2s0.9-2,2-2
		c1.1,0,2,0.9,2,2S7.1-10,6-10z M6-16c-1.1,0-2-0.9-2-2s0.9-2,2-2c1.1,0,2,0.9,2,2S7.1-16,6-16z"/>
	<polygon id="XMLID_5364_" class="st1" points="0,0 12,0 12,-24 0,-24 	"/>
</symbol>
<use xlink:href="#ic_x5F_more_x5F_vert"  width="12" height="24" id="XMLID_2719_" y="-24" transform="matrix(0.6667 0 0 -0.6667 -2.6667 -2.6667)" style="overflow:visible;opacity:0.5;"/>
</svg>
