<?xml version="1.0" encoding="utf-8"?>
<!-- Generator: Adobe Illustrator 19.0.0, SVG Export Plug-In . SVG Version: 6.00 Build 0)  -->
<svg version="1.1" id="Layer_1" xmlns="http://www.w3.org/2000/svg" xmlns:xlink="http://www.w3.org/1999/xlink" x="0px" y="0px"
	 viewBox="0 0 10.3 10.3" style="enable-background:new 0 0 10.3 10.3;" xml:space="preserve">
<style type="text/css">
	.st0{opacity:0.8;}
	.st1{fill:#FFAB40;}
</style>
<g id="XMLID_1986_" class="st0">
	<g id="XMLID_2007_">
		<path id="XMLID_2011_" class="st1" d="M9,2.5H7.1v-1l-1-1H4.2l-1,1v1H1.3c-0.5,0-1,0.4-1,1v5.3c0,0.5,0.4,1,1,1H9c0.5,0,1-0.4,1-1
			V3.4C9.9,2.9,9.5,2.5,9,2.5L9,2.5z M4.2,1.5h1.9v1H4.2V1.5z M4.4,8L2.7,6.3l0.7-0.7l1,1l2.5-2.5l0.7,0.7L4.4,8z M4.4,8"/>
	</g>
</g>
</svg>
