<?xml version="1.0" encoding="utf-8"?>
<!-- Generator: Adobe Illustrator 19.0.0, SVG Export Plug-In . SVG Version: 6.00 Build 0)  -->
<svg version="1.1" id="Layer_1" xmlns="http://www.w3.org/2000/svg" xmlns:xlink="http://www.w3.org/1999/xlink" x="0px" y="0px"
	 viewBox="0 0 515 600" style="enable-background:new 0 0 515 600;" xml:space="preserve">
<style type="text/css">
	.st0{clip-path:url(#XMLID_96_);}
	.st1{fill:#444A4F;}
	.st2{fill:#474E53;}
	.st3{fill:#32244D;}
	.st4{fill:#483A6A;}
	.st5{fill:#7E1D35;}
	.st6{fill:#E61E67;}
	.st7{fill:#008AB6;}
	.st8{fill:#C2185B;}
	.st9{fill:#AD1457;}
	.st10{fill:#880E4F;}
	.st11{fill:#75211B;}
	.st12{fill:#140E23;}
	.st13{opacity:0.94;fill:#933C2B;}
	.st14{fill:#E5E5E4;}
	.st15{opacity:0.78;fill:none;stroke:#00AB4E;stroke-width:0.3206;stroke-miterlimit:10;}
	.st16{opacity:0.94;fill:none;stroke:#00B05B;stroke-width:0.3206;stroke-miterlimit:10;}
	
		.st17{opacity:0.6;fill:none;stroke:#AAAAAA;stroke-width:7.9871;stroke-linecap:round;stroke-miterlimit:10;stroke-dasharray:3.9936,26.6237;}
	.st18{clip-path:url(#XMLID_97_);}
	.st19{fill:#EEE7DA;}
	.st20{fill:#CABF9D;}
	.st21{fill:#958E76;}
	.st22{fill:#D1CAAD;}
	.st23{fill:#4F3A50;}
	.st24{fill:#664C67;}
	.st25{fill:url(#XMLID_98_);}
	.st26{fill:#F58E73;}
	.st27{fill:#DCAC51;}
	.st28{fill:#AB4834;}
	.st29{fill:#D45A44;}
	.st30{fill:#FDC985;}
	.st31{fill:#3F2C40;}
	.st32{fill:#CBA386;}
	.st33{fill:#B74457;}
	.st34{fill:#FDCD94;}
	.st35{fill:#304156;}
	.st36{fill:#1E2C3E;}
</style>
<g id="XMLID_125_">
	<defs>
		<path id="XMLID_133_" d="M1260.5,1848.9H690.2c-3.1,0-5.5-2.5-5.5-5.5v-567c0-3.1,2.5-5.5,5.5-5.5h570.2c3.1,0,5.5,2.5,5.5,5.5
			v567C1266,1846.4,1263.5,1848.9,1260.5,1848.9z"/>
	</defs>
	<clipPath id="XMLID_96_">
		<use xlink:href="#XMLID_133_"  style="overflow:visible;"/>
	</clipPath>
	<g id="XMLID_136_" class="st0">
		<g id="XMLID_162_">
			<path id="XMLID_2952_" class="st1" d="M882.6,1279.5l-13.7,3.2l-2.8,17.5l-1.5,11.8l-6,10.7l1.9,6.1c0,0,11-6.8,19.6-14.6
				c0.8-0.7,1.6-1.4,2.2-2.1c0.2-0.3,4.5-5.6,5.2-15.8v-13.1C887.6,1283.1,885.8,1279.3,882.6,1279.5z"/>
			<path id="XMLID_2951_" class="st2" d="M1170,1486.7l-12.4,2.9l-2.5,15.8l-1.4,10.6l-5.4,9.7l1.7,5.5c0,0,9.9-6.1,17.7-13.2
				c0.7-0.6,1.4-1.3,2-1.9c0.2-0.3,4-5.1,4.7-14.3V1490C1174.4,1490,1172.9,1486.5,1170,1486.7z"/>
			<path id="XMLID_2949_" class="st3" d="M915.8,1288.2l-7.4-5.4l3.2,4.2c0,0-0.1,0-0.1,0H809.7c-4.6,0-8.5,3.8-8.5,8.5v2.5
				c0,4.6,3.8,8.5,8.5,8.5h101.8c4.6,0,8.5-3.8,8.5-8.5v-2.5C919.9,1292.3,918.2,1289.6,915.8,1288.2z"/>
			<rect id="XMLID_2947_" x="813.6" y="1306.3" class="st4" width="11.6" height="81.4"/>
			<polygon id="XMLID_2945_" class="st3" points="825.2,1387.7 833.1,1379.8 833.1,1298.9 825.2,1306.1 			"/>
			<rect id="XMLID_2940_" x="890" y="1306.3" class="st4" width="11.6" height="81.4"/>
			<polygon id="XMLID_2939_" class="st3" points="901.7,1387.7 909.5,1379.8 909.5,1298.9 901.7,1306.1 			"/>
			<polygon id="XMLID_2938_" class="st5" points="781.7,1830.3 828.4,1797.2 805.1,1784.6 781.7,1797.2 			"/>
			<polygon id="XMLID_2937_" class="st5" points="899.6,1830.3 946.2,1797.2 922.9,1784.6 899.6,1797.2 			"/>
			<rect id="XMLID_2936_" x="876.3" y="1797.2" class="st6" width="23.2" height="33.1"/>
			<path id="XMLID_2935_" class="st7" d="M935.6,1486.3c-0.4,0.3-0.9,0.7-1.3,1c-11.3-14.4-27.6-35.7-27.6-35.7l17-11.1
				c7.5,0.7,14.2,4.6,18.6,10.3c0.7,0.9,1.3,1.8,1.9,2.8c3.7,11,3.7,23.2-6.6,31.1C936.9,1485.2,936.3,1485.7,935.6,1486.3z"/>
			<path id="XMLID_2934_" class="st7" d="M971.4,1465.1c0,0-25.2,35.7-26.7,35c-0.5-0.3-4.8-5.6-10.4-12.7c2.4-1.5,4.5-3,6.3-4.5
				c0.7-0.5,1.3-1.1,2-1.6c10.1-7.8,10.1-19.8,6.5-30.7c-0.6-1-1.2-1.9-1.9-2.8c-4.5-5.8-11.4-9.7-19.1-10.2l14.1-9.2h13
				L971.4,1465.1z"/>
			<path id="XMLID_2933_" class="st8" d="M1012.4,1383.8l-7.4,5.2l-2.6,1.8l-3.9,2.7l-2.5,1.8l-277.6,195.4v-149l-13.4-30.5
				l5.6-11.6l-5.6-0.3l13.6-16.1l8-9.5l2.5-3l2.5-3l2.2-2.6c0,0,0.2-0.2,0.5-0.4c1.8-1.4,8-5.9,14.2-6.3c0.2,0,0.5,0,0.7,0h233
				C996.9,1358.6,1009.3,1369.4,1012.4,1383.8z"/>
			<path id="XMLID_2932_" class="st9" d="M718.3,1733.3v-142.5l294-207c0.5,2.3,0.8,4.6,0.8,7.1v342.4c0,9.6-4.1,18.2-10.5,24.2v0
				l-34.5,39.7l-24.4-31.6H749.2C732.2,1765.6,718.3,1751.1,718.3,1733.3z"/>
			<path id="XMLID_2931_" class="st6" d="M725.2,1386.8h227c14.5,0,26.4,11.9,26.4,26.4v365.9c0,14.5-11.9,26.4-26.4,26.4h-227
				c-14.5,0-26.4-11.9-26.4-26.4v-365.9C698.8,1398.7,710.7,1386.8,725.2,1386.8z"/>
			<path id="XMLID_2930_" class="st9" d="M942.6,1481.3c-0.6,0.5-1.3,1-2,1.6c-1.9,1.4-4,3-6.3,4.5c0,0,0,0,0,0
				c0.5-0.3,0.9-0.7,1.3-1c0.7-0.5,1.3-1.1,2-1.6c10.3-7.9,10.3-20,6.6-31.1c-0.6-1-1.2-1.9-1.9-2.8c-4.4-5.7-11-9.6-18.6-10.3
				l4.4-2.9c7.7,0.5,14.6,4.4,19.1,10.2c0.7,0.9,1.3,1.8,1.9,2.8C952.7,1461.5,952.7,1473.5,942.6,1481.3z"/>
			<path id="XMLID_2929_" class="st9" d="M926.3,1437.5c0.6,0,1.2,0,1.7,0.1l-4.4,2.9c-0.8-0.1-1.7-0.1-2.5-0.1H743.6
				c-1.8,0-3.5,0.2-5.2,0.5c3.8-2.1,8.1-3.3,12.7-3.3H926.3z"/>
			<path id="XMLID_2928_" class="st7" d="M934.2,1487.3c-0.2,0.1-0.4,0.3-0.6,0.4C933.9,1487.6,934,1487.4,934.2,1487.3
				C934.2,1487.3,934.2,1487.3,934.2,1487.3z"/>
			<path id="XMLID_2927_" class="st8" d="M728.4,1450.6c0.6-1,1.2-1.9,1.9-2.8c2.2-2.8,5-5.2,8.1-7c1.7-0.3,3.4-0.5,5.2-0.5h177.5
				c8.6,0,16.2,4.1,21.1,10.4c0.7,0.9,1.3,1.8,1.9,2.8c3.7,11,3.7,23.2-6.6,31.1c-0.6,0.5-1.3,1.1-2,1.6c-0.6,0.5-1.2,0.9-1.9,1.4
				c0,0-0.1,0-0.1,0.1c-16.3,10.2-45,21-93.3,21h-3c-56.2,0-85.9-14.7-100.3-25.9c-0.7-0.5-1.3-1.1-2-1.6
				C724.8,1473.5,724.8,1461.5,728.4,1450.6z"/>
			<rect id="XMLID_2926_" x="758.5" y="1797.2" class="st6" width="23.2" height="33.1"/>
			<path id="XMLID_2925_" class="st10" d="M1006.6,1399.8V1754h-3v-354.2c0-2.4-0.3-4.8-0.8-7c-0.1-0.6-0.3-1.3-0.5-1.9
				c-3.8-13.5-16.1-23.1-29.9-23.1H737.1v0h-5.5l2.2-2.6c0,0,0.2-0.2,0.5-0.4h238.1c14.8,0,28,10,32.5,24.2c0.3,1,0.6,2,0.8,3.1
				C1006.3,1394.6,1006.6,1397.2,1006.6,1399.8z"/>
			<path id="XMLID_2924_" class="st10" d="M1000.6,1405.8V1760h-3v-354.2c0-2.4-0.3-4.8-0.8-7c-0.3-1.2-0.6-2.3-0.9-3.4
				c-4.3-12.7-16.2-21.6-29.5-21.6H733.8v0h-7.2l2.5-3h237.3c14.3,0,27.1,9.3,32,22.8c0.5,1.5,1,3,1.3,4.5
				C1000.3,1400.6,1000.6,1403.2,1000.6,1405.8z"/>
			<path id="XMLID_2913_" class="st4" d="M808.5,1281.4h47.1c-1.2,0.9-2.7,2.7-3.1,6.3v1.3c0,0.5,0,1.5-0.1,2.6
				c-0.1,1.4-0.2,3.1-0.3,4.7c-0.1,1.7-0.3,3.3-0.6,4.6c-0.3,1.7-0.7,3.4-1.2,5.2h-41.9c-4,0-7.2-3.3-7.2-7.2v-10.4
				C801.2,1284.7,804.5,1281.4,808.5,1281.4z"/>
			<path id="XMLID_2893_" class="st4" d="M912.4,1288.7v10.4c0,4-3.3,7.2-7.2,7.2h-25.4c1.6-5.7,2-11.2,2.1-15.2v-1.6
				c0.1-2.2,0.7-6.2,3.2-8.1h20.1C909.1,1281.4,912.4,1284.7,912.4,1288.7z"/>
			<path id="XMLID_2892_" class="st9" d="M921,1533.4l-8.5,5.9h-166c-5.8,0-11.2,1.9-15.6,5.2c5.1-6.8,12.9-11.2,21.6-11.2h166
				C919.4,1533.3,920.2,1533.3,921,1533.4z"/>
			<path id="XMLID_2839_" class="st8" d="M724.7,1735.3v-171.7c0-7.2,2.3-13.9,6.2-19.1c4.5-3.3,9.8-5.2,15.6-5.2h166
				c15.4,0,27.8,13.6,27.8,30.3v171.7c0,7.2-2.3,13.9-6.2,19.1c-4.5,3.3-9.8,5.2-15.6,5.2h-166
				C737.2,1765.6,724.7,1752,724.7,1735.3z"/>
			<path id="XMLID_2813_" class="st9" d="M946.4,1563.6v171.7c0,10.4-4.8,19.6-12.2,25.1c3.9-5.2,6.2-11.9,6.2-19.1v-171.7
				c0-16.7-12.5-30.3-27.8-30.3h0l8.5-5.9C935.2,1534.7,946.4,1547.7,946.4,1563.6z"/>
			<path id="XMLID_2809_" class="st11" d="M1190.4,1494.9l-5.8-3.5l3.2,2.7c0,0-0.1,0-0.1,0H1125c-2.9,0-5.2,2.3-5.2,5.2v1.5
				c0,2.9,2.3,5.2,5.2,5.2h62.8c2.9,0,5.2-2.3,5.2-5.2v-1.5C1193,1497.5,1192,1495.8,1190.4,1494.9z"/>
			<rect id="XMLID_2807_" x="1127.4" y="1506.1" class="st6" width="7.2" height="50.2"/>
			<polygon id="XMLID_2799_" class="st11" points="1134.6,1556.4 1139.4,1551.5 1139.4,1501.6 1134.6,1506 			"/>
			<rect id="XMLID_2798_" x="1174.6" y="1506.1" class="st6" width="7.2" height="50.2"/>
			<polygon id="XMLID_2796_" class="st11" points="1181.7,1556.4 1186.6,1551.5 1186.6,1501.6 1181.7,1506 			"/>
			<polygon id="XMLID_2795_" class="st12" points="1107.7,1829.4 1136.5,1809 1122.1,1801.2 1107.7,1809 			"/>
			<polygon id="XMLID_2773_" class="st12" points="1180.4,1829.4 1209.2,1809 1194.8,1801.2 1180.4,1809 			"/>
			<rect id="XMLID_2769_" x="1166.1" y="1809" class="st4" width="14.3" height="20.4"/>
			<path id="XMLID_2735_" class="st7" d="M1202.6,1617.1c-0.3,0.2-0.5,0.4-0.8,0.6c-6.9-8.9-17-22-17-22l10.5-6.9
				c4.7,0.4,8.7,2.8,11.5,6.3c0.4,0.6,0.8,1.1,1.2,1.8c2.3,6.8,2.3,14.3-4.1,19.2C1203.5,1616.5,1203.1,1616.8,1202.6,1617.1z"/>
			<path id="XMLID_2715_" class="st7" d="M1224.7,1604.1c0,0-15.6,22-16.5,21.6c-0.3-0.2-3-3.5-6.4-7.9c1.5-0.9,2.8-1.9,3.9-2.8
				c0.4-0.3,0.8-0.7,1.2-1c6.2-4.8,6.2-12.2,4-18.9c-0.3-0.6-0.7-1.2-1.2-1.7c-2.8-3.6-7-6-11.8-6.3l8.7-5.7h8L1224.7,1604.1z"/>
			<path id="XMLID_2714_" class="st3" d="M1250,1553.9l-4.5,3.2l-0.1,0.1l-1.5,1.1l-0.1,0.1l-2.2,1.6l-0.1,0.1l-1.4,1l-0.2,0.1
				l-167.4,120.4v-91.9l-8.1-18.8l3.4-7.1l-3.4-0.2l8.2-9.9l4.8-5.9l1.5-1.9l1.5-1.8l0,0l1.3-1.6c0,0,0.1-0.1,0.3-0.3
				c1.1-0.9,4.9-3.7,8.6-3.9c0.1,0,0.3,0,0.4,0h140.6C1240.7,1538.3,1248.2,1545.1,1250,1553.9z"/>
			<path id="XMLID_2712_" class="st12" d="M1068.6,1769.6v-87.9L1250,1554c0.3,1.4,0.5,2.9,0.5,4.4v211.2c0,5.9-2.5,11.2-6.5,14.9v0
				l-23,22.3l-13.3-17.3h-120C1077.2,1789.5,1068.6,1780.5,1068.6,1769.6z"/>
			<path id="XMLID_2711_" class="st4" d="M1083,1555.8h119.8c14.5,0,26.4,11.9,26.4,26.4v205.5c0,14.5-11.9,26.4-26.4,26.4H1083
				c-14.5,0-26.4-11.9-26.4-26.4v-205.5C1056.6,1567.7,1068.5,1555.8,1083,1555.8z"/>
			<path id="XMLID_2675_" class="st12" d="M1207,1614.1c-0.4,0.3-0.8,0.6-1.2,1c-1.1,0.9-2.4,1.8-3.9,2.8c0,0,0,0,0,0
				c0.3-0.2,0.6-0.4,0.8-0.6c0.4-0.3,0.8-0.7,1.2-1c6.3-4.9,6.3-12.4,4.1-19.2c-0.4-0.6-0.7-1.2-1.2-1.8c-2.7-3.5-6.8-5.9-11.5-6.3
				l2.7-1.8c4.8,0.3,9,2.7,11.8,6.3c0.4,0.6,0.8,1.1,1.2,1.7C1213.2,1601.9,1213.2,1609.3,1207,1614.1z"/>
			<path id="XMLID_2657_" class="st12" d="M1196.9,1587.1c0.4,0,0.7,0,1.1,0l-2.7,1.8c-0.5-0.1-1-0.1-1.6-0.1h-109.5
				c-1.1,0-2.2,0.1-3.2,0.3c2.3-1.3,5-2.1,7.9-2.1H1196.9z"/>
			<path id="XMLID_2653_" class="st7" d="M1201.8,1617.8c-0.1,0.1-0.2,0.2-0.4,0.2C1201.6,1617.9,1201.7,1617.9,1201.8,1617.8
				C1201.8,1617.8,1201.8,1617.8,1201.8,1617.8z"/>
			<path id="XMLID_2652_" class="st3" d="M1074.8,1595.2c0.3-0.6,0.7-1.2,1.2-1.7c1.4-1.7,3.1-3.2,5-4.3c1-0.2,2.1-0.3,3.2-0.3
				h109.5c5.3,0,10,2.5,13,6.4c0.4,0.6,0.8,1.1,1.2,1.8c2.3,6.8,2.3,14.3-4.1,19.2c-0.4,0.3-0.8,0.7-1.2,1c-0.4,0.3-0.8,0.6-1.2,0.9
				c0,0,0,0-0.1,0c-10.1,6.3-27.8,13-57.6,13h-1.9c-34.7,0-53-9.1-61.9-16c-0.4-0.3-0.8-0.7-1.2-1
				C1072.6,1609.3,1072.6,1601.9,1074.8,1595.2z"/>
			<rect id="XMLID_2649_" x="1093.4" y="1809" class="st4" width="14.3" height="20.4"/>
			<path id="XMLID_165_" class="st3" d="M1245.4,1557.2C1245.4,1557.2,1245.4,1557.2,1245.4,1557.2c0.2,0.7,0.4,1.3,0.5,1.9
				c0.3,1.5,0.5,3.1,0.5,4.7v218.5h-1.8v-218.5c0-1.5-0.2-2.9-0.5-4.3c-0.1-0.4-0.2-0.7-0.3-1.1"/>
			<path id="XMLID_2648_" class="st12" d="M1243.9,1558.4C1243.8,1558.4,1243.8,1558.3,1243.9,1558.4c-2.4-8.4-10-14.3-18.5-14.3
				h-144.8l1.3-1.6c0,0,0.1-0.1,0.3-0.3h143.2c9.1,0,17.3,6.2,20,15"/>
			<path id="XMLID_161_" class="st3" d="M1241.5,1560.1c0.3,0.9,0.6,1.8,0.8,2.7c0.3,1.5,0.5,3.1,0.5,4.7V1786h-1.8v-218.5
				c0-1.5-0.2-2.9-0.5-4.3c-0.1-0.7-0.3-1.3-0.5-1.9"/>
			<path id="XMLID_2646_" class="st12" d="M1239.9,1561.2c0,0,0-0.1,0-0.1c-2.6-7.8-10-13.3-18.2-13.3h-143.5v0h-0.7l1.5-1.9h142.7
				c8.8,0,16.7,5.8,19.7,14.1c0,0,0,0.1,0,0.1"/>
			<path id="XMLID_2645_" class="st6" d="M1126.3,1490.8h17.7c-0.3,0.7-0.4,1.5-0.6,2.5v1.2c0,0.5,0,1.3-0.1,2.4
				c-0.1,1.2-0.2,2.8-0.3,4.3c-0.1,1.5-0.3,3-0.5,4.2c-0.1,0.3-0.1,0.6-0.2,0.9h-16.2c-3.6,0-6.6-3-6.6-6.6v-2.2
				C1119.8,1493.7,1122.7,1490.8,1126.3,1490.8z"/>
			<path id="XMLID_2644_" class="st6" d="M1188.3,1497.3v2.2c0,3.6-2.9,6.6-6.6,6.6H1169c0.7-3.7,1-7.1,1-9.9c0-0.5,0-1,0-1.4
				c0.1-1.1,0.2-2.6,0.7-4.1h11.1C1187.7,1491.5,1188.3,1493.7,1188.3,1497.3z"/>
			<path id="XMLID_2643_" class="st12" d="M1193.6,1646.2l-5.2,3.6H1086c-3.6,0-6.9,1.2-9.6,3.2c3.1-4.2,7.9-6.9,13.3-6.9h102.4
				C1192.6,1646.2,1193.1,1646.2,1193.6,1646.2z"/>
			<path id="XMLID_2642_" class="st3" d="M1072.6,1770.8v-106c0-4.5,1.4-8.6,3.8-11.8c2.7-2,6.1-3.2,9.6-3.2h102.4
				c9.5,0,17.2,8.4,17.2,18.7v106c0,4.5-1.4,8.6-3.8,11.8c-2.7,2-6.1,3.2-9.6,3.2h-102.4C1080.2,1789.5,1072.6,1781.1,1072.6,1770.8
				z"/>
			<path id="XMLID_2641_" class="st12" d="M1209.3,1664.8v106c0,6.4-3,12.1-7.5,15.5c2.4-3.2,3.8-7.3,3.8-11.8v-106
				c0-10.3-7.7-18.7-17.2-18.7h0l5.2-3.6C1202.4,1647.1,1209.3,1655.1,1209.3,1664.8z"/>
			<path id="XMLID_2640_" class="st13" d="M1170.7,1490.8c-0.5,1.5-0.7,3-0.7,4.1c0,0.4,0,0.9,0,1.4c-0.1,2.7-0.3,6.2-1,9.9h-26.5
				c0.1-0.3,0.1-0.6,0.2-0.9c0.2-1.2,0.4-2.7,0.5-4.2c0.1-1.5,0.2-3,0.3-4.3c0.1-1.1,0.1-1.9,0.1-2.4v-1.2c0.1-1,0.3-1.8,0.6-2.5
				H1170.7z"/>
			<path id="XMLID_2639_" class="st3" d="M885.1,1281.4c-2.6,1.9-3.1,5.9-3.2,8.1v1.6c-0.1,4.1-0.6,9.5-2.1,15.2h-29.3
				c0.5-1.8,0.9-3.6,1.2-5.2c0.2-1.3,0.4-2.9,0.6-4.6c0.1-1.7,0.2-3.3,0.3-4.7c0.1-1.2,0.1-2.1,0.1-2.6v-1.3
				c0.4-3.6,1.9-5.4,3.1-6.3H885.1z"/>
			<path id="XMLID_2637_" class="st14" d="M882.6,1279.5l-28,0c-2,0-2.9,0.7-3,0.8c-1.2,0.9-2.8,2.7-3.3,6.5c0,0.4,0,0.8,0,1.3
				c0,0.5,0,1.5-0.1,2.6c0,0,0,0,0,0h0c-0.1,2.8-0.4,6.8-0.9,9.4c-1.5,8.7-5.3,19.1-14.1,26.6c0,0-17.1,16.2-21.7,19.9l-2.3,2.4
				c2.8-1.9,10.6-1.9,10.6-1.9h20.3c4.6-2.2,22.5-20.4,22.5-20.4c12.6-10.7,14.9-27.3,15.1-36.6l0,0v0c0-0.5,0-1.1,0-1.6
				C877.8,1285.9,878.6,1280.8,882.6,1279.5z"/>
			<path id="XMLID_2636_" class="st15" d="M866.5,1317.8c7.1-9.6,8.6-21.1,8.8-28.2l0,0v0c0-0.5,0-1,0-1.5c0-1,0.2-2.3,0.6-3.6
				c0.4-1.4,1.1-2.7,2.2-3.7"/>
			<path id="XMLID_2635_" class="st15" d="M844.2,1315.7c5.5-9.2,6.5-19.6,6.4-26.2l0,0v0c0-0.5,0-1,0-1.5c0-1,0.1-2.3,0.5-3.6
				c0.4-1.4,1-2.8,2-3.8"/>
			
				<text id="XMLID_2634_" transform="matrix(0.9992 4.040014e-002 -4.040014e-002 0.9992 852.9315 1297.5503)" style="opacity:0.78;fill:#231F20; font-family:'Helvetica'; font-size:8.5323px;">GAU</text>
			
				<text id="XMLID_2633_" transform="matrix(0.9994 3.357987e-002 -3.357987e-002 0.9994 851.0386 1306.1569)" style="opacity:0.78;fill:#231F20; font-family:'Helvetica'; font-size:1.1653px;">12344-423-442243242-2424-092340</text>
			
				<text id="XMLID_2632_" transform="matrix(0.9994 3.357987e-002 -3.357987e-002 0.9994 850.1954 1308.7726)" style="opacity:0.78;fill:#231F20; font-family:'Helvetica'; font-size:1.1653px;">12344-423-442243242-2424-092340</text>
			<line id="XMLID_2631_" class="st15" x1="852" y1="1301.7" x2="871.7" y2="1302.4"/>
			<line id="XMLID_2630_" class="st15" x1="852" y1="1286.7" x2="873.8" y2="1287.3"/>
			<polyline id="XMLID_2629_" class="st16" points="849.1,1336.5 844.2,1341.2 839.3,1345.3 			"/>
			<polyline id="XMLID_2628_" class="st16" points="825.9,1336.5 821,1341.2 816.2,1345.3 			"/>
			<path id="XMLID_2256_" class="st14" d="M1170,1486.7l-25.3,0c-1.8,0-2.7,0.7-2.7,0.7c-1.1,0.8-2.5,2.4-2.9,5.9c0,0.4,0,0.7,0,1.2
				c0,0.5,0,1.3-0.1,2.4v0h0c-0.1,2.5-0.4,6.1-0.8,8.4c-1.4,7.9-4.8,17.3-12.7,24c0,0-15.5,14.6-19.6,17.9l-2.1,2.1
				c2.5-1.7,9.6-1.7,9.6-1.7h18.3c4.2-2,20.3-18.4,20.3-18.4c11.4-9.7,13.4-24.6,13.6-33l0,0v0c0-0.5,0-1,0-1.4
				C1165.7,1492.5,1166.4,1487.9,1170,1486.7z"/>
			<path id="XMLID_2255_" class="st15" d="M1155.4,1521.3c6.4-8.6,7.8-19.1,7.9-25.5l0,0v0c0-0.5,0-0.9,0-1.3c0-0.9,0.2-2.1,0.5-3.3
				c0.4-1.2,1-2.5,2-3.4"/>
			<path id="XMLID_2254_" class="st15" d="M1135.3,1519.4c5-8.3,5.8-17.7,5.8-23.6l0,0l0,0c0-0.5,0-0.9,0-1.3c0-0.9,0.1-2.1,0.4-3.3
				c0.3-1.2,0.9-2.5,1.9-3.4"/>
			
				<text id="XMLID_2249_" transform="matrix(0.9992 4.040014e-002 -4.040014e-002 0.9992 1143.1758 1503.0021)" style="opacity:0.78;fill:#231F20; font-family:'Helvetica'; font-size:7.7004px;">GAU</text>
			
				<text id="XMLID_2248_" transform="matrix(0.9994 3.357987e-002 -3.357987e-002 0.9994 1141.5007 1510.7921)" style="opacity:0.78;fill:#231F20; font-family:'Helvetica'; font-size:1.0517px;">12344-423-442243242-2424-092340</text>
			
				<text id="XMLID_2247_" transform="matrix(0.9994 3.357987e-002 -3.357987e-002 0.9994 1140.7412 1513.1547)" style="opacity:0.78;fill:#231F20; font-family:'Helvetica'; font-size:1.0517px;">12344-423-442243242-2424-092340</text>
			<line id="XMLID_2246_" class="st15" x1="1142.4" y1="1506.8" x2="1160.1" y2="1507.3"/>
			<line id="XMLID_2245_" class="st15" x1="1142.4" y1="1493.2" x2="1162.1" y2="1493.8"/>
			<polyline id="XMLID_2244_" class="st16" points="1139.7,1538.1 1135.3,1542.4 1130.9,1546.1 			"/>
			<polyline id="XMLID_2243_" class="st16" points="1118.8,1538.1 1114.4,1542.4 1110,1546.1 			"/>
		</g>
	</g>
</g>
<g id="XMLID_167_">
	<g id="XMLID_4264_">
		<path id="XMLID_4825_" class="st17" d="M104.2,555.4c0,0,67.6-355.5,368.6-418.8"/>
		<g id="XMLID_82_">
			<defs>
				<path id="XMLID_166_" d="M616.6,733H-26.6c-3.8,0-6.9-3.1-6.9-6.9V-43c0-3.8,3.1-6.9-43.9,18.5h643.2
					c54.5-25.4,57.6-22.3,57.6-18.5v769.1C623.4,729.9,620.3,733,616.6,733z"/>
			</defs>
			<clipPath id="XMLID_97_">
				<use xlink:href="#XMLID_166_"  style="overflow:visible;"/>
			</clipPath>
			<g id="XMLID_160_" class="st18">
				<g id="XMLID_164_">
					<g id="XMLID_4432_">
						<g id="XMLID_4433_">
							<path id="XMLID_4583_" class="st4" d="M154.8,432.8c0,0-18.4-38.6-61-38.4c-42.5-0.2-61,38.4-61,38.4
								c-21.5,43.7,3.1,79.3,3.1,79.3L89.3,595c0,0,3.1,2.4,4.3,1.8H94c1.3,0.6,4.3-1.8,4.3-1.8l53.4-82.9
								C151.7,512.1,176.3,476.5,154.8,432.8z M93.8,489.2c-13.3,0-24-11.5-24-25.7c0-14.2,10.8-25.7,24-25.7
								c13.3,0,24,11.5,24,25.7C117.8,477.7,107.1,489.2,93.8,489.2z"/>
							<path id="XMLID_4580_" class="st4" d="M502.8,41.4c0,0-10.5-21.9-34.6-21.8c-24.1-0.1-34.6,21.8-34.6,21.8
								c-12.2,24.8,1.7,44.9,1.7,44.9l30.3,47c0,0,1.7,1.4,2.4,1h0.2c0.7,0.3,2.4-1,2.4-1l30.3-47C501.1,86.4,515,66.2,502.8,41.4z
								 M468.3,73.4c-7.5,0-13.6-6.5-13.6-14.6c0-8.1,6.1-14.6,13.6-14.6c7.5,0,13.6,6.5,13.6,14.6
								C481.9,66.9,475.8,73.4,468.3,73.4z"/>
							<g id="XMLID_4434_">
								<polygon id="XMLID_4577_" class="st19" points="312.6,198.5 317.1,196.6 316.7,200 								"/>
								<polygon id="XMLID_4574_" class="st19" points="307.3,277.5 219.9,263.4 202.3,260.6 163.9,333.5 130.9,248.8 24.4,232.9 
									340.6,1.8 325.3,128.3 276.9,98.5 158.8,216 157.3,217.7 158.2,219.6 184.7,238.4 196.2,220.9 242.6,227.1 276.5,213.2 
									313.8,223.4 								"/>
								<polygon id="XMLID_4571_" class="st20" points="188.9,286 163.9,333.5 130.9,248.8 157.3,217.7 174.2,254.3 173.2,255.9 
									175.1,256.2 								"/>
								<polygon id="XMLID_4568_" class="st20" points="206.8,204.9 158.8,216 340.6,1.8 								"/>
								<polygon id="XMLID_4567_" class="st19" points="154.9,152.7 149.2,190.2 179.6,217.4 222.5,220.6 230.9,185.3 228.2,167 
									178,148.3 160.6,144.8 								"/>
								<polygon id="XMLID_4564_" class="st21" points="184.7,238.4 174.2,254.3 158.2,219.6 								"/>
								<polygon id="XMLID_4563_" class="st19" points="156.7,216.4 158.8,216 157.3,217.7 								"/>
								<polygon id="XMLID_4560_" class="st21" points="202.3,260.6 188.9,286 175.1,256.2 								"/>
								<polygon id="XMLID_4557_" class="st21" points="206.8,204.9 184.7,238.4 158.2,219.6 157.3,217.7 158.8,216 								"/>
								<polygon id="XMLID_4554_" class="st19" points="313.8,223.4 189.1,189.4 217.5,170.2 286.9,188.4 316.7,200 								"/>
								<polygon id="XMLID_4551_" class="st22" points="317.1,196.6 312.6,198.5 286.9,188.4 217.5,170.2 189.1,189.4 276.5,213.2 
									242.6,227.1 196.2,220.9 206.8,204.9 158.8,216 233.2,141.9 231.1,155.6 325.2,129.1 								"/>
								<polygon id="XMLID_4550_" class="st19" points="158.8,216 206.8,204.9 196.2,220.9 								"/>
								<polygon id="XMLID_4547_" class="st22" points="312.6,198.5 276.5,213.2 189.1,189.4 217.5,170.2 286.9,188.4 								"/>
								<polygon id="XMLID_4493_" class="st19" points="325.2,129.1 231.1,155.6 233.2,141.9 276.9,98.5 325.3,128.3 								"/>
								<polyline id="XMLID_4490_" class="st22" points="278.9,141.2 326.9,114.8 325.2,129.1 270.5,154.7 279.2,141.7 								"/>
								<line id="XMLID_4489_" class="st19" x1="149.1" y1="212.8" x2="278.9" y2="141.2"/>
							</g>
						</g>
					</g>
				</g>
			</g>
		</g>
	</g>
	<g id="XMLID_1847_">
		<g id="XMLID_1868_">
			<path id="XMLID_3877_" class="st8" d="M271.8,134.5c0.4-3-1.7-5.8-4.7-6.2L173,114.6c-3-0.4-5.8,1.6-6.3,4.6l-11.5,79.2
				c-0.4,3,1.7,5.8,4.7,6.2l66.4,9.7l1.1,3.5l7.2,13.5L257,218c0.5-0.2,0.9-0.4,1.3-0.8l0,0l0,0c1-0.8,1.8-2,2-3.4L271.8,134.5z"/>
			<path id="XMLID_3737_" class="st6" d="M239.6,141.6l-80.8-11.8c-5.4-0.8-10.6,3-11.4,8.5l-2.6,18.1l5.7-6.4c0,0,5.7,4.8,13.5,6.1
				c0,0,16.6,4.6,21.4,6.7l-2.6,17.7c-1-0.2-1.6-0.2-1.6-0.2s0.3,1.4,1,4l0,0.1l13.1-6.2c0.4,4.8-3.2,6.4-3.2,6.4l-11.2,8.5
				l-21.3,16.2l-4.1,0.8l-6.5,1.2c-1.1,0.6-2.3,0.6-3.4,0.3c0,0-7-0.1-8.4-3.2l-0.2,1.2c-0.8,5.4,3,10.6,8.5,11.3l80.8,11.8
				c5.4,0.8,10.5-3,11.3-8.5l10.4-71.3C248.8,147.5,245,142.4,239.6,141.6z M147.6,198.6c-1.3-2.2-2.2-4-2.1-4.8c0,0-2.9-8-4.4-12.2
				l-2.9,20l1.9-0.2L147.6,198.6z"/>
			
				<rect id="XMLID_3735_" x="146" y="150.2" transform="matrix(0.9895 0.1442 -0.1442 0.9895 23.9694 -26.8015)" class="st10" width="101.6" height="3.4"/>
			<path id="XMLID_3734_" class="st9" d="M277.9,114.1l-3.2,21.9c-0.3,1.8-1.1,4.6-2.6,5.4l-24.8,16.2l-14.4-6.8l-0.1-9.7l16.2-16.5
				l25.1-16.2C276.6,109,278.3,111.5,277.9,114.1z"/>
			<path id="XMLID_3733_" class="st8" d="M249.2,124.5l-16.1,16.5l0.1,9.7l-33.8-16.2l-32.1-4.7c-2.8-0.4-4.8-3-4.4-5.9l0.9-6.4
				l-13.8-7.6l18.7-15.6c1.1-0.8,2.5-1.3,3.9-1.1l101,14.7c0.2,0,1.8,0.7,2,0.8L249.2,124.5z"/>
			<path id="XMLID_2224_" class="st6" d="M246.9,158.3l-99.1-14.4c-2.7-0.4-4.5-2.9-4.1-5.5l3.9-26.9c0.4-2.7,2.9-4.5,5.5-4.1
				l99.1,14.4c2.7,0.4,4.5,2.9,4.1,5.5l-3.9,26.9C252.1,156.8,249.6,158.6,246.9,158.3z"/>
			<polygon id="XMLID_2225_" class="st23" points="210.4,116.5 230.7,101.4 212.9,99.4 190.9,113.7 			"/>
			
				<rect id="XMLID_2971_" x="180.1" y="123.1" transform="matrix(0.1442 -0.9895 0.9895 0.1442 37.9856 309.7528)" class="st24" width="36.1" height="19.7"/>
			<path id="XMLID_2965_" class="st23" d="M244.3,75.6c-1.9-2.6-8-10.9-19.3-12.8c-11.9-1.9-20.7,4.8-23.1,6.6
				c-1.6,1.2-16.3,12.4-12.7,25.7c2.2,8.2,10,12.2,12.1,13.3l25.5,3.7c9.3,1.3,18.3-1.7,22.6-8.2C256.9,92.8,246,77.9,244.3,75.6z
				 M235.7,96.9c-2.2,3.4-6.8,4.9-11.6,4.2l-13.1-1.9c-1.1-0.5-5.1-2.6-6.2-6.8c-1.8-6.8,5.7-12.6,6.5-13.2
				c1.2-0.9,5.8-4.4,11.9-3.4c5.8,0.9,9,5.2,9.9,6.6C233.8,83.5,239.5,91.1,235.7,96.9z"/>
			<path id="XMLID_2954_" class="st24" d="M230.7,73.7c-1.9-2.6-8-10.9-19.3-12.8c-11.9-1.9-20.7,4.8-23.1,6.6
				c-1.6,1.2-16.3,12.4-12.7,25.7c2.2,8.2,10,12.2,12.1,13.3l25.5,3.7c9.3,1.3,18.3-1.7,22.6-8.2C243.3,90.8,232.4,75.9,230.7,73.7z
				 M222.1,94.9c-2.2,3.4-6.8,4.9-11.6,4.2l-13.1-1.9c-1.1-0.5-5.1-2.6-6.2-6.8c-1.8-6.8,5.7-12.6,6.5-13.2
				c1.2-0.9,5.8-4.4,11.9-3.4c5.8,0.9,9,5.2,9.9,6.6C220.3,81.5,225.9,89.2,222.1,94.9z"/>
		</g>
		<polygon id="XMLID_3732_" class="st6" points="146.2,147.1 137.2,209.7 139,215.8 181.4,213.5 211.9,179.2 200.4,166.1 
			178.5,153.8 		"/>
		<polygon id="XMLID_2226_" class="st24" points="185.9,152 204.5,154.7 193.2,227.9 174.2,225.1 		"/>
	</g>
</g>
<g id="XMLID_79_">
	<linearGradient id="XMLID_98_" gradientUnits="userSpaceOnUse" x1="-93.1141" y1="1581.1107" x2="-93.1141" y2="1581.1107">
		<stop  offset="0.15" style="stop-color:#0B0034"/>
		<stop  offset="0.4386" style="stop-color:#0D0337"/>
		<stop  offset="0.6693" style="stop-color:#150D41"/>
		<stop  offset="0.86" style="stop-color:#211C50"/>
	</linearGradient>
	<path id="XMLID_5388_" class="st25" d="M-93.1,1581.1"/>
	<polygon id="XMLID_5387_" class="st3" points="-265.1,1317.3 -274.9,1341.9 -463.8,1326.9 -460.8,1278.7 	"/>
	<path id="XMLID_5386_" class="st4" d="M-253.2,1287.1l-12,30.2l-195.7-38.6l2.4-38.6c0.5-8.4,9.6-14,18.3-11.3L-253.2,1287.1z"/>
	<path id="XMLID_5385_" class="st26" d="M-275.3,1421.9v30.1h-2.4c-0.1,0.9-0.3,1.7-0.6,2.5l9.5-0.8l9.7-29.8L-275.3,1421.9z"/>
	<path id="XMLID_5377_" class="st26" d="M-303.6,1426.3c-0.2,0-0.3,0-0.5,0c0.2,0,0.4-0.1,0.7-0.1L-303.6,1426.3z"/>
	<path id="XMLID_5376_" class="st8" d="M-23.6,1320.6c0-6.4-5.3-11.6-11.8-11.6h-201.9c-6.5,0-11.8,5.2-11.8,11.6v170
		c0,6.4,5.3,11.6,11.8,11.6h142.4l3.5,7.1l19.2,26.1l43-34.9c0.9-0.5,1.7-1.2,2.4-2l0.1-0.1l0,0c1.9-2.1,3.1-4.8,3.1-7.8V1320.6z"/>
	<path id="XMLID_5373_" class="st6" d="M-89.2,1345.3h-173.3c-11.7,0-21.3,9.6-21.3,21.3v38.8l10-15.2c0,0,13.4,8.3,30.2,8.7
		c0,0,36.2,4.6,46.9,7.6v37.9c-2.1,0-3.4,0.1-3.4,0.1s1.1,2.9,3.4,8v0.3l25.5-17.1c2.4,9.9-4.7,14.5-4.7,14.5l-20.8,21.3l-39.7,40.6
		l-8.5,2.9l-13.2,4.6c-2.2,1.5-4.6,1.9-7.1,1.6c0,0-14.6,1.9-18.6-4.2v2.6c0,11.7,9.6,21.2,21.3,21.2h173.3
		c11.7,0,21.2-9.6,21.2-21.2v-153C-67.9,1354.8-77.5,1345.3-89.2,1345.3z M-264.9,1493.3c-3.4-4.2-5.8-7.7-5.9-9.5
		c0,0-8.5-15.9-12.9-24.3v42.9l3.9-1L-264.9,1493.3z"/>
	<rect id="XMLID_5371_" x="-283.7" y="1376.5" class="st10" width="215.8" height="7.2"/>
	<path id="XMLID_5370_" class="st9" d="M-17.1,1275.8v47c0,3.8-0.8,10.1-3.8,12.1l-56,41.6l-23.4-9.8l-3.1-20.4l28.9-39.7l47.7-41.7
		C-21.3,1265.5-17.1,1270.1-17.1,1275.8z"/>
	<path id="XMLID_5363_" class="st8" d="M-74.2,1306.6l-28.8,39.7l3.1,20.4l-76-23.6h-68.8c-6.1,0-11-4.9-11-11v-13.8l-31.4-11.7
		l34.4-38.4c2-2.1,4.8-3.4,7.9-3.4h216.6c0.5,0,4,0.9,4.5,1L-74.2,1306.6z"/>
	<path id="XMLID_5362_" class="st6" d="M-88,1378.1h-180.2c-16.4,0-29.7-13.3-29.7-29.7v-18.9c0-16.4,13.3-29.7,29.7-29.7H-88
		c16.4,0,29.7,13.3,29.7,29.7v18.9C-58.2,1364.8-71.5,1378.1-88,1378.1z"/>
	<path id="XMLID_5361_" class="st27" d="M-220.8,1264.7"/>
	<polygon id="XMLID_5360_" class="st23" points="-158.1,1301.5 -120.1,1263.5 -158.1,1264.7 -199.9,1301.5 	"/>
	<rect id="XMLID_5358_" x="-199.9" y="1301.5" class="st24" width="41.8" height="76.6"/>
	<rect id="XMLID_5357_" x="-196.6" y="1380.1" class="st28" width="41.2" height="3.6"/>
	<path id="XMLID_5354_" class="st23" d="M-99.4,1205.3c-4.8-4.8-20.2-20.5-44.5-20.9c-25.6-0.4-42.1,16.4-46.5,20.9
		c-3,3-30.5,31.1-18.9,57.9c7.1,16.5,24.8,22.6,29.5,24.1h54.8c20-0.1,38-9.1,45-24.1C-67.8,1237.4-95.3,1209.5-99.4,1205.3z
		 M-111.1,1252.6c-3.6,7.7-12.9,12.4-23.2,12.4h-28.2c-2.4-0.8-11.5-3.9-15.2-12.4c-6-13.8,8.2-28.2,9.7-29.8
		c2.3-2.3,10.7-11,23.9-10.7c12.5,0.2,20.4,8.3,22.9,10.7C-119,1225-104.9,1239.4-111.1,1252.6z"/>
	<path id="XMLID_5351_" class="st24" d="M-128.5,1205.3c-4.8-4.8-20.2-20.5-44.5-20.9c-25.6-0.4-42.1,16.4-46.5,20.9
		c-3,3-30.5,31.1-18.9,57.9c7.1,16.5,24.8,22.6,29.5,24.1h54.8c20-0.1,38-9.1,45-24.1C-96.9,1237.4-124.4,1209.5-128.5,1205.3z
		 M-140.2,1252.6c-3.6,7.7-12.9,12.4-23.2,12.4h-28.2c-2.4-0.8-11.5-3.9-15.2-12.4c-6-13.8,8.2-28.2,9.7-29.8
		c2.3-2.3,10.7-11,23.9-10.7c12.5,0.2,20.4,8.3,22.9,10.7C-148.1,1225-134,1239.4-140.2,1252.6z"/>
	<polyline id="XMLID_5350_" class="st6" points="-283.7,1490.3 -283.6,1521.6 -222.2,1535.4 -126.2,1535.4 -112.5,1448.7 
		-228.1,1441.7 -283.7,1488.5 	"/>
	<path id="XMLID_5349_" class="st29" d="M-159.2,1438.4l-1.6,76.4l-41.2-0.9l0.2-10.3c9,1.9,12.1-5.7,12.1-5.7
		c28.5,11.3,22.1-12.6,22.1-12.6c-17-25.3-27.5-48.1-32.4-59.7l0.2-8.2c4.9,0.2,14,1.5,18.7,8.8c6.7,10.3,19.5,11.6,19.5,11.6
		C-160.8,1438-160,1438.2-159.2,1438.4z"/>
	<path id="XMLID_5348_" class="st30" d="M-303.5,1398.9c-1.3,0.2-2.5,0.5-3.6,0.8C-305.8,1399.2-304.6,1399-303.5,1398.9z"/>
	<rect id="XMLID_5347_" x="-196.6" y="1378.1" class="st31" width="41.2" height="5.6"/>
	<rect id="XMLID_5346_" x="-196.6" y="1383.7" class="st23" width="41.2" height="157.1"/>
	<path id="XMLID_5345_" class="st31" d="M-155.5,1443.5v20.9c-0.8-0.1-1.6-0.3-2.5-0.5c0,0-12.9-1-19.8-11.2
		c-4.9-7.2-14-8.3-18.9-8.4v-37.9c0.8,0.2,1.5,0.5,2,0.7C-194.6,1407.1-172.2,1429.8-155.5,1443.5z"/>
	<polygon id="XMLID_5341_" class="st32" points="-183.8,1518.8 -197.7,1497.9 -200.8,1501.6 	"/>
	<polygon id="XMLID_5338_" class="st32" points="-203.2,1521.6 -215.1,1500.4 -218.8,1504 	"/>
	<polygon id="XMLID_5331_" class="st32" points="-222.2,1518.3 -231.6,1501.6 -234.1,1508.4 	"/>
	<path id="XMLID_5330_" class="st31" d="M-184.7,1524.6c0,0-2.9,7.6-11.9,5.9v-78c5.1,11.5,16.2,34.1,33.7,59
		C-162.9,1511.5-156,1535.3-184.7,1524.6z"/>
	<path id="XMLID_5327_" class="st33" d="M-200,1444.5c0,0,1.1,2.9,3.4,8v0.3l-25.1,16.8l-43.2,23.7c-3.4-4.2-5.8-7.7-5.9-9.5
		c0,0-8.5-15.9-12.9-24.3v-54.2l10-15.2c0,0,13.4,8.3,30.2,8.7c0,0,36.2,4.6,46.9,7.6v37.9C-198.7,1444.3-200,1444.5-200,1444.5z"/>
	<path id="XMLID_5326_" class="st33" d="M-196.6,1452.8v77.8c-2.2-0.4-4.8-1.4-7.8-3.2c0,0-7.4,7.4-19.3-3.2c0,0-4.4,6.3-12.9-1
		c0,0-3.5-3.3-8.2-8.1c-6.2-6.2-14.5-14.9-20.1-21.7l43.2-23.7L-196.6,1452.8z"/>
	<path id="XMLID_5325_" class="st33" d="M-155.5,1464.4v-20.9c7.3,6,13.5,10.2,16.3,10.2C-139.2,1453.7-133.6,1468.6-155.5,1464.4z"
		/>
	<path id="XMLID_5266_" class="st34" d="M-271.2,1384.4c0,0,13.1,8.3,29.6,8.7c0,0,41.3,5.3,48.1,8.3c0,0,45.1,46.6,54.4,46.6
		c0,0,5.8,16-18.4,10.2c0,0-12.6-1-19.4-11.2c-6.8-10.2-21.8-8.3-21.8-8.3s11.6,31.1,36.4,67c0,0,6.8,23.8-21.4,13.1
		c0,0-4.4,11.8-19.4,2.8c0,0-7.3,7.4-18.9-3.2c0,0-4.4,6.3-12.6-1c0,0-33-32.5-33.5-39.3c0,0-13.6-25.7-15-29.1l-26.2-4.9
		L-271.2,1384.4z"/>
	<path id="XMLID_4491_" class="st3" d="M-293.1,1427.1c-5.1,10.5-9.2,18.9-9.2,18.9s-4.4,4.9-8.7,3.4l-138.4,4.8
		c-7.9,0.3-14.4-5.4-14.4-12.6v-28.8C-413.5,1417.1-332.2,1423.9-293.1,1427.1z"/>
	<path id="XMLID_4431_" class="st4" d="M-271.3,1384.4c-2.1,3-13.4,25.7-21.8,42.7c-39.2-3.2-120.5-10-170.7-14.3v-70.5
		c0-5.9,6.2-10.3,12.6-8.7l173.5,43C-277.7,1376.6-267.8,1379.5-271.3,1384.4z"/>
	<path id="XMLID_4415_" class="st34" d="M-14.3,1569.9h-17.9l-38.8-5.2c-1.7-0.2-3.5-0.1-5.2,0.4l-32.1,9.7l-53.8-5.3l-15.5-10.2
		c0,0-9.9-1.9-13.6,0c0,0-3.7-7.2-17.9-0.8c0,0-11.3-2.3-9.3,9.5l79.2,47c0,0,16.7,8.7,34.6,4.9l95.2-6.2l6.8,1.2L-14.3,1569.9z"/>
	<path id="XMLID_4414_" class="st35" d="M177.5,1608.9V1546c0-5.3-4.5-9.5-9.7-8.9L-10,1558.5c-3.9,0.5-6.5,4.4-5.5,8.3l7.5,28.8
		L177.5,1608.9z"/>
	<path id="XMLID_4413_" class="st36" d="M-8,1595.6l5.1,19.5l172.3,31.9c4.2,0.8,8.1-2.5,8.1-7v-31.1L-8,1595.6z"/>
</g>
</svg>
