<?xml version="1.0" encoding="utf-8"?>
<!-- Generator: Adobe Illustrator 19.0.0, SVG Export Plug-In . SVG Version: 6.00 Build 0)  -->
<svg version="1.1" id="Layer_1" xmlns="http://www.w3.org/2000/svg" xmlns:xlink="http://www.w3.org/1999/xlink" x="0px" y="0px"
	 viewBox="0 0 13 17.9" style="enable-background:new 0 0 13 17.9;" xml:space="preserve">
<style type="text/css">
	.st0{opacity:0.8;}
	.st1{fill:#FFFFFF;}
	.st2{opacity:0.3;}
</style>
<g id="XMLID_2299_">
	<g id="XMLID_7941_" class="st0">
		<g id="XMLID_147_">
			<path id="XMLID_151_" class="st1" d="M4.8,14.7c-0.2,1-0.3,0.8-0.3,1.2c0,1.1,0.9,2.1,2,2.1s2-1,2-2.1c0-0.4-0.1-0.1-0.3-1.1H4.8
				z"/>
			<path id="XMLID_148_" class="st1" d="M11,9c0-0.9,0-1.3,0-1.5c0-2.1-0.2-3.7-2-4.5V2.5C9,1.3,7.7,0,6.5,0S4,1.3,4,2.5V3
				C3,3.8,2,5.4,2,7.5C2,7.8,2,8.3,2,9c0,1.8-0.8,2.7-1.6,3C0.1,12,0,12.2,0,12.4v1.1C0,13.8,0.2,14,0.5,14h12
				c0.3,0,0.5-0.2,0.5-0.5v-1.1c0-0.2-0.1-0.4-0.4-0.5C11.8,11.7,11,10.8,11,9z M6.5,3.5c-0.6,0-1-0.4-1-1s0.4-1,1-1s1,0.4,1,1
				S7.1,3.5,6.5,3.5z"/>
		</g>
	</g>
</g>
<g id="XMLID_2374_">
	<g id="XMLID_8094_" class="st0">
		<g id="XMLID_90_">
			<circle id="XMLID_92_" class="st1" cx="113" cy="-8" r="10.3"/>
			<path id="XMLID_91_" class="st2" d="M119.9-0.3c0,0-3.5-1.2-4.3-2c-0.3-0.3-0.8-1.5-0.3-2.2c0,0,0.9-1.7,0.9-2.4c0,0,0.2,0,0.2,0
				c0.3,0,0.5-1.3,0.5-1.9c0-0.4-0.2-0.6-0.3-0.7c0,0-0.1-0.1-0.1-0.1v-1c0-1.7-0.1-2.7-1.1-2.7c-0.1,0-0.1,0-0.1-0.1
				c-0.2-0.6-1.3-0.9-2.2-0.9c-2.4,0-3.5,1.5-3.5,3.3v1.5c0,0.1,0,0.1-0.1,0.1c-0.1,0.1-0.3,0.2-0.3,0.7c0,0.6,0.2,1.9,0.5,1.9h0.2
				c0,0.7,0.9,2.4,0.9,2.4c0.5,0.7,0,1.9-0.3,2.2c-0.8,0.8-4.3,2-4.3,2s2.3,2.6,6.8,2.6C117.5,2.3,119.9-0.3,119.9-0.3z"/>
		</g>
	</g>
</g>
</svg>
