<?xml version="1.0" encoding="utf-8"?>
<!-- Generator: Adobe Illustrator 19.0.0, SVG Export Plug-In . SVG Version: 6.00 Build 0)  -->
<svg version="1.1" id="Layer_1" xmlns:svg="http://www.w3.org/2000/svg"
	 xmlns="http://www.w3.org/2000/svg" xmlns:xlink="http://www.w3.org/1999/xlink" x="0px" y="0px" viewBox="-386.6 558.2 125 11.4"
	 style="enable-background:new -386.6 558.2 125 11.4;" xml:space="preserve">
<style type="text/css">
	.st0{opacity:0.8;}
	.st1{fill:#FFAB40;}
	.st2{opacity:0.25;}
</style>
<g id="XMLID_4543_">
	<g id="XMLID_4526_" class="st0">
		<g id="XMLID_4527_">
			<path id="XMLID_4528_" class="st1" d="M-318.7,563.9c0-0.5-0.4-0.9-0.9-0.9h-3.3l-3-4.8h-1.2l1.5,4.8h-3.3l-0.9-1.2h-0.9l0.6,2.1
				l-0.6,2.1h0.9l0.9-1.2h3.3l-1.5,4.8h1.2l3-4.8h3.3C-319.1,564.8-318.7,564.4-318.7,563.9L-318.7,563.9z M-318.7,563.9"/>
		</g>
	</g>
	<g id="XMLID_4509_" class="st2">
		<g id="XMLID_4510_">
			<path id="XMLID_4511_" d="M-334.6,563.9c0-0.3,0.2-0.5,0.5-0.5l0,0c0.3,0,0.5,0.2,0.5,0.5l0,0c0,0.3-0.2,0.5-0.5,0.5l0,0
				C-334.4,564.4-334.6,564.2-334.6,563.9z M-338.6,563.9c0-0.3,0.2-0.5,0.5-0.5l0,0c0.3,0,0.5,0.2,0.5,0.5l0,0
				c0,0.3-0.2,0.5-0.5,0.5l0,0C-338.4,564.4-338.6,564.2-338.6,563.9z M-342.6,563.9c0-0.3,0.2-0.5,0.5-0.5l0,0
				c0.3,0,0.5,0.2,0.5,0.5l0,0c0,0.3-0.2,0.5-0.5,0.5l0,0C-342.4,564.4-342.6,564.2-342.6,563.9z M-346.6,563.9
				c0-0.3,0.2-0.5,0.5-0.5l0,0c0.3,0,0.5,0.2,0.5,0.5l0,0c0,0.3-0.2,0.5-0.5,0.5l0,0C-346.4,564.4-346.6,564.2-346.6,563.9z
				 M-350.6,563.9c0-0.3,0.2-0.5,0.5-0.5l0,0c0.3,0,0.5,0.2,0.5,0.5l0,0c0,0.3-0.2,0.5-0.5,0.5l0,0
				C-350.4,564.4-350.6,564.2-350.6,563.9z M-354.6,563.9c0-0.3,0.2-0.5,0.5-0.5l0,0c0.3,0,0.5,0.2,0.5,0.5l0,0
				c0,0.3-0.2,0.5-0.5,0.5l0,0C-354.4,564.4-354.6,564.2-354.6,563.9z M-358.6,563.9c0-0.3,0.2-0.5,0.5-0.5l0,0
				c0.3,0,0.5,0.2,0.5,0.5l0,0c0,0.3-0.2,0.5-0.5,0.5l0,0C-358.4,564.4-358.6,564.2-358.6,563.9z M-362.6,563.9
				c0-0.3,0.2-0.5,0.5-0.5l0,0c0.3,0,0.5,0.2,0.5,0.5l0,0c0,0.3-0.2,0.5-0.5,0.5l0,0C-362.4,564.4-362.6,564.2-362.6,563.9z
				 M-366.6,563.9c0-0.3,0.2-0.5,0.5-0.5l0,0c0.3,0,0.5,0.2,0.5,0.5l0,0c0,0.3-0.2,0.5-0.5,0.5l0,0
				C-366.4,564.4-366.6,564.2-366.6,563.9z M-370.6,563.9c0-0.3,0.2-0.5,0.5-0.5l0,0c0.3,0,0.5,0.2,0.5,0.5l0,0
				c0,0.3-0.2,0.5-0.5,0.5l0,0C-370.4,564.4-370.6,564.2-370.6,563.9z M-374.6,563.9c0-0.3,0.2-0.5,0.5-0.5l0,0
				c0.3,0,0.5,0.2,0.5,0.5l0,0c0,0.3-0.2,0.5-0.5,0.5l0,0C-374.4,564.4-374.6,564.2-374.6,563.9z M-378.6,563.9
				c0-0.3,0.2-0.5,0.5-0.5l0,0c0.3,0,0.5,0.2,0.5,0.5l0,0c0,0.3-0.2,0.5-0.5,0.5l0,0C-378.4,564.4-378.6,564.2-378.6,563.9z
				 M-382.6,563.9c0-0.3,0.2-0.5,0.5-0.5l0,0c0.3,0,0.5,0.2,0.5,0.5l0,0c0,0.3-0.2,0.5-0.5,0.5l0,0
				C-382.4,564.4-382.6,564.2-382.6,563.9z M-386.6,563.9c0-0.3,0.2-0.5,0.5-0.5l0,0c0.3,0,0.5,0.2,0.5,0.5l0,0
				c0,0.3-0.2,0.5-0.5,0.5l0,0C-386.4,564.4-386.6,564.2-386.6,563.9z"/>
		</g>
	</g>
	<g id="XMLID_4492_" class="st2">
		<g id="XMLID_4493_">
			<path id="XMLID_4494_" d="M-262.6,563.9c0-0.3,0.2-0.5,0.5-0.5l0,0c0.3,0,0.5,0.2,0.5,0.5l0,0c0,0.3-0.2,0.5-0.5,0.5l0,0
				C-262.4,564.4-262.6,564.2-262.6,563.9z M-266.6,563.9c0-0.3,0.2-0.5,0.5-0.5l0,0c0.3,0,0.5,0.2,0.5,0.5l0,0
				c0,0.3-0.2,0.5-0.5,0.5l0,0C-266.4,564.4-266.6,564.2-266.6,563.9z M-270.6,563.9c0-0.3,0.2-0.5,0.5-0.5l0,0
				c0.3,0,0.5,0.2,0.5,0.5l0,0c0,0.3-0.2,0.5-0.5,0.5l0,0C-270.4,564.4-270.6,564.2-270.6,563.9z M-274.6,563.9
				c0-0.3,0.2-0.5,0.5-0.5l0,0c0.3,0,0.5,0.2,0.5,0.5l0,0c0,0.3-0.2,0.5-0.5,0.5l0,0C-274.4,564.4-274.6,564.2-274.6,563.9z
				 M-278.6,563.9c0-0.3,0.2-0.5,0.5-0.5l0,0c0.3,0,0.5,0.2,0.5,0.5l0,0c0,0.3-0.2,0.5-0.5,0.5l0,0
				C-278.4,564.4-278.6,564.2-278.6,563.9z M-282.6,563.9c0-0.3,0.2-0.5,0.5-0.5l0,0c0.3,0,0.5,0.2,0.5,0.5l0,0
				c0,0.3-0.2,0.5-0.5,0.5l0,0C-282.4,564.4-282.6,564.2-282.6,563.9z M-286.6,563.9c0-0.3,0.2-0.5,0.5-0.5l0,0
				c0.3,0,0.5,0.2,0.5,0.5l0,0c0,0.3-0.2,0.5-0.5,0.5l0,0C-286.4,564.4-286.6,564.2-286.6,563.9z M-290.6,563.9
				c0-0.3,0.2-0.5,0.5-0.5l0,0c0.3,0,0.5,0.2,0.5,0.5l0,0c0,0.3-0.2,0.5-0.5,0.5l0,0C-290.4,564.4-290.6,564.2-290.6,563.9z
				 M-294.6,563.9c0-0.3,0.2-0.5,0.5-0.5l0,0c0.3,0,0.5,0.2,0.5,0.5l0,0c0,0.3-0.2,0.5-0.5,0.5l0,0
				C-294.4,564.4-294.6,564.2-294.6,563.9z M-298.6,563.9c0-0.3,0.2-0.5,0.5-0.5l0,0c0.3,0,0.5,0.2,0.5,0.5l0,0
				c0,0.3-0.2,0.5-0.5,0.5l0,0C-298.4,564.4-298.6,564.2-298.6,563.9z M-302.6,563.9c0-0.3,0.2-0.5,0.5-0.5l0,0
				c0.3,0,0.5,0.2,0.5,0.5l0,0c0,0.3-0.2,0.5-0.5,0.5l0,0C-302.4,564.4-302.6,564.2-302.6,563.9z M-306.6,563.9
				c0-0.3,0.2-0.5,0.5-0.5l0,0c0.3,0,0.5,0.2,0.5,0.5l0,0c0,0.3-0.2,0.5-0.5,0.5l0,0C-306.4,564.4-306.6,564.2-306.6,563.9z
				 M-310.6,563.9c0-0.3,0.2-0.5,0.5-0.5l0,0c0.3,0,0.5,0.2,0.5,0.5l0,0c0,0.3-0.2,0.5-0.5,0.5l0,0
				C-310.4,564.4-310.6,564.2-310.6,563.9z M-314.6,563.9c0-0.3,0.2-0.5,0.5-0.5l0,0c0.3,0,0.5,0.2,0.5,0.5l0,0
				c0,0.3-0.2,0.5-0.5,0.5l0,0C-314.4,564.4-314.6,564.2-314.6,563.9z"/>
		</g>
	</g>
</g>
</svg>
