<?xml version="1.0" encoding="utf-8"?>
<!-- Generator: Adobe Illustrator 19.0.0, SVG Export Plug-In . SVG Version: 6.00 Build 0)  -->
<svg version="1.1" id="Layer_1" xmlns="http://www.w3.org/2000/svg" xmlns:xlink="http://www.w3.org/1999/xlink" x="0px" y="0px"
	 viewBox="-897 535.2 125 11.8" style="enable-background:new -897 535.2 125 11.8;" xml:space="preserve">
<style type="text/css">
	.st0{opacity:0.8;}
	.st1{fill:#FAAA43;}
	.st2{opacity:0.25;}
	.st3{fill:#010101;}
	.st4{fill:#FFAB40;}
</style>
<g id="ui_x5F_appBar">
</g>
<g id="XMLID_4543_">
	<g id="XMLID_4526_" class="st0">
		<g id="XMLID_4527_">
			<path id="XMLID_4528_" class="st1" d="M-1726.1,1076.3c0-0.5-0.4-0.9-0.9-0.9h-3.3l-3-4.8h-1.2l1.5,4.8h-3.3l-0.9-1.2h-0.9
				l0.6,2.1l-0.6,2.1h0.9l0.9-1.2h3.3l-1.5,4.8h1.2l3-4.8h3.3C-1726.5,1077.2-1726.1,1076.8-1726.1,1076.3L-1726.1,1076.3z"/>
		</g>
	</g>
	<g id="XMLID_4509_" class="st2">
		<g id="XMLID_4510_">
			<path id="XMLID_4511_" class="st3" d="M-1742,1076.3c0-0.3,0.2-0.5,0.5-0.5l0,0c0.3,0,0.5,0.2,0.5,0.5l0,0c0,0.3-0.2,0.5-0.5,0.5
				l0,0C-1741.8,1076.8-1742,1076.6-1742,1076.3z M-1746,1076.3c0-0.3,0.2-0.5,0.5-0.5l0,0c0.3,0,0.5,0.2,0.5,0.5l0,0
				c0,0.3-0.2,0.5-0.5,0.5l0,0C-1745.8,1076.8-1746,1076.6-1746,1076.3z M-1750,1076.3c0-0.3,0.2-0.5,0.5-0.5l0,0
				c0.3,0,0.5,0.2,0.5,0.5l0,0c0,0.3-0.2,0.5-0.5,0.5l0,0C-1749.8,1076.8-1750,1076.6-1750,1076.3z M-1754,1076.3
				c0-0.3,0.2-0.5,0.5-0.5l0,0c0.3,0,0.5,0.2,0.5,0.5l0,0c0,0.3-0.2,0.5-0.5,0.5l0,0C-1753.8,1076.8-1754,1076.6-1754,1076.3z
				 M-1758,1076.3c0-0.3,0.2-0.5,0.5-0.5l0,0c0.3,0,0.5,0.2,0.5,0.5l0,0c0,0.3-0.2,0.5-0.5,0.5l0,0
				C-1757.8,1076.8-1758,1076.6-1758,1076.3z M-1762,1076.3c0-0.3,0.2-0.5,0.5-0.5l0,0c0.3,0,0.5,0.2,0.5,0.5l0,0
				c0,0.3-0.2,0.5-0.5,0.5l0,0C-1761.8,1076.8-1762,1076.6-1762,1076.3z M-1766,1076.3c0-0.3,0.2-0.5,0.5-0.5l0,0
				c0.3,0,0.5,0.2,0.5,0.5l0,0c0,0.3-0.2,0.5-0.5,0.5l0,0C-1765.8,1076.8-1766,1076.6-1766,1076.3z M-1770,1076.3
				c0-0.3,0.2-0.5,0.5-0.5l0,0c0.3,0,0.5,0.2,0.5,0.5l0,0c0,0.3-0.2,0.5-0.5,0.5l0,0C-1769.8,1076.8-1770,1076.6-1770,1076.3z
				 M-1774,1076.3c0-0.3,0.2-0.5,0.5-0.5l0,0c0.3,0,0.5,0.2,0.5,0.5l0,0c0,0.3-0.2,0.5-0.5,0.5l0,0
				C-1773.8,1076.8-1774,1076.6-1774,1076.3z M-1778,1076.3c0-0.3,0.2-0.5,0.5-0.5l0,0c0.3,0,0.5,0.2,0.5,0.5l0,0
				c0,0.3-0.2,0.5-0.5,0.5l0,0C-1777.8,1076.8-1778,1076.6-1778,1076.3z M-1782,1076.3c0-0.3,0.2-0.5,0.5-0.5l0,0
				c0.3,0,0.5,0.2,0.5,0.5l0,0c0,0.3-0.2,0.5-0.5,0.5l0,0C-1781.8,1076.8-1782,1076.6-1782,1076.3z M-1786,1076.3
				c0-0.3,0.2-0.5,0.5-0.5l0,0c0.3,0,0.5,0.2,0.5,0.5l0,0c0,0.3-0.2,0.5-0.5,0.5l0,0C-1785.8,1076.8-1786,1076.6-1786,1076.3z
				 M-1790,1076.3c0-0.3,0.2-0.5,0.5-0.5l0,0c0.3,0,0.5,0.2,0.5,0.5l0,0c0,0.3-0.2,0.5-0.5,0.5l0,0
				C-1789.8,1076.8-1790,1076.6-1790,1076.3z M-1794,1076.3c0-0.3,0.2-0.5,0.5-0.5l0,0c0.3,0,0.5,0.2,0.5,0.5l0,0
				c0,0.3-0.2,0.5-0.5,0.5l0,0C-1793.8,1076.8-1794,1076.6-1794,1076.3z"/>
		</g>
	</g>
	<g id="XMLID_4492_" class="st2">
		<g id="XMLID_4493_">
			<path id="XMLID_4494_" class="st3" d="M-1670,1076.3c0-0.3,0.2-0.5,0.5-0.5l0,0c0.3,0,0.5,0.2,0.5,0.5l0,0c0,0.3-0.2,0.5-0.5,0.5
				l0,0C-1669.8,1076.8-1670,1076.6-1670,1076.3z M-1674,1076.3c0-0.3,0.2-0.5,0.5-0.5l0,0c0.3,0,0.5,0.2,0.5,0.5l0,0
				c0,0.3-0.2,0.5-0.5,0.5l0,0C-1673.8,1076.8-1674,1076.6-1674,1076.3z M-1678,1076.3c0-0.3,0.2-0.5,0.5-0.5l0,0
				c0.3,0,0.5,0.2,0.5,0.5l0,0c0,0.3-0.2,0.5-0.5,0.5l0,0C-1677.8,1076.8-1678,1076.6-1678,1076.3z M-1682,1076.3
				c0-0.3,0.2-0.5,0.5-0.5l0,0c0.3,0,0.5,0.2,0.5,0.5l0,0c0,0.3-0.2,0.5-0.5,0.5l0,0C-1681.8,1076.8-1682,1076.6-1682,1076.3z
				 M-1686,1076.3c0-0.3,0.2-0.5,0.5-0.5l0,0c0.3,0,0.5,0.2,0.5,0.5l0,0c0,0.3-0.2,0.5-0.5,0.5l0,0
				C-1685.8,1076.8-1686,1076.6-1686,1076.3z M-1690,1076.3c0-0.3,0.2-0.5,0.5-0.5l0,0c0.3,0,0.5,0.2,0.5,0.5l0,0
				c0,0.3-0.2,0.5-0.5,0.5l0,0C-1689.8,1076.8-1690,1076.6-1690,1076.3z M-1694,1076.3c0-0.3,0.2-0.5,0.5-0.5l0,0
				c0.3,0,0.5,0.2,0.5,0.5l0,0c0,0.3-0.2,0.5-0.5,0.5l0,0C-1693.8,1076.8-1694,1076.6-1694,1076.3z M-1698,1076.3
				c0-0.3,0.2-0.5,0.5-0.5l0,0c0.3,0,0.5,0.2,0.5,0.5l0,0c0,0.3-0.2,0.5-0.5,0.5l0,0C-1697.8,1076.8-1698,1076.6-1698,1076.3z
				 M-1702,1076.3c0-0.3,0.2-0.5,0.5-0.5l0,0c0.3,0,0.5,0.2,0.5,0.5l0,0c0,0.3-0.2,0.5-0.5,0.5l0,0
				C-1701.8,1076.8-1702,1076.6-1702,1076.3z M-1706,1076.3c0-0.3,0.2-0.5,0.5-0.5l0,0c0.3,0,0.5,0.2,0.5,0.5l0,0
				c0,0.3-0.2,0.5-0.5,0.5l0,0C-1705.8,1076.8-1706,1076.6-1706,1076.3z M-1710,1076.3c0-0.3,0.2-0.5,0.5-0.5l0,0
				c0.3,0,0.5,0.2,0.5,0.5l0,0c0,0.3-0.2,0.5-0.5,0.5l0,0C-1709.8,1076.8-1710,1076.6-1710,1076.3z M-1714,1076.3
				c0-0.3,0.2-0.5,0.5-0.5l0,0c0.3,0,0.5,0.2,0.5,0.5l0,0c0,0.3-0.2,0.5-0.5,0.5l0,0C-1713.8,1076.8-1714,1076.6-1714,1076.3z
				 M-1718,1076.3c0-0.3,0.2-0.5,0.5-0.5l0,0c0.3,0,0.5,0.2,0.5,0.5l0,0c0,0.3-0.2,0.5-0.5,0.5l0,0
				C-1717.8,1076.8-1718,1076.6-1718,1076.3z M-1722,1076.3c0-0.3,0.2-0.5,0.5-0.5l0,0c0.3,0,0.5,0.2,0.5,0.5l0,0
				c0,0.3-0.2,0.5-0.5,0.5l0,0C-1721.8,1076.8-1722,1076.6-1722,1076.3z"/>
		</g>
	</g>
</g>
<g id="XMLID_1_">
	<g id="XMLID_8_" class="st0">
		<g id="XMLID_9_">
			<path id="XMLID_10_" class="st4" d="M-829.1,541.1c0-0.5-0.4-0.9-0.9-0.9h-3.3l-3-4.8h-1.2l1.5,4.8h-3.3l-0.9-1.2h-0.9l0.6,2.1
				l-0.6,2.1h0.9l0.9-1.2h3.3l-1.5,4.8h1.2l3-4.8h3.3C-829.5,542-829.1,541.6-829.1,541.1L-829.1,541.1z M-829.1,541.1"/>
		</g>
	</g>
	<g id="XMLID_5_" class="st2">
		<g id="XMLID_6_">
			<path id="XMLID_7_" d="M-845,541.1c0-0.3,0.2-0.5,0.5-0.5l0,0c0.3,0,0.5,0.2,0.5,0.5l0,0c0,0.3-0.2,0.5-0.5,0.5l0,0
				C-844.8,541.6-845,541.4-845,541.1z M-849,541.1c0-0.3,0.2-0.5,0.5-0.5l0,0c0.3,0,0.5,0.2,0.5,0.5l0,0c0,0.3-0.2,0.5-0.5,0.5l0,0
				C-848.8,541.6-849,541.4-849,541.1z M-853,541.1c0-0.3,0.2-0.5,0.5-0.5l0,0c0.3,0,0.5,0.2,0.5,0.5l0,0c0,0.3-0.2,0.5-0.5,0.5l0,0
				C-852.8,541.6-853,541.4-853,541.1z M-857,541.1c0-0.3,0.2-0.5,0.5-0.5l0,0c0.3,0,0.5,0.2,0.5,0.5l0,0c0,0.3-0.2,0.5-0.5,0.5l0,0
				C-856.8,541.6-857,541.4-857,541.1z M-861,541.1c0-0.3,0.2-0.5,0.5-0.5l0,0c0.3,0,0.5,0.2,0.5,0.5l0,0c0,0.3-0.2,0.5-0.5,0.5l0,0
				C-860.8,541.6-861,541.4-861,541.1z M-865,541.1c0-0.3,0.2-0.5,0.5-0.5l0,0c0.3,0,0.5,0.2,0.5,0.5l0,0c0,0.3-0.2,0.5-0.5,0.5l0,0
				C-864.8,541.6-865,541.4-865,541.1z M-869,541.1c0-0.3,0.2-0.5,0.5-0.5l0,0c0.3,0,0.5,0.2,0.5,0.5l0,0c0,0.3-0.2,0.5-0.5,0.5l0,0
				C-868.8,541.6-869,541.4-869,541.1z M-873,541.1c0-0.3,0.2-0.5,0.5-0.5l0,0c0.3,0,0.5,0.2,0.5,0.5l0,0c0,0.3-0.2,0.5-0.5,0.5l0,0
				C-872.8,541.6-873,541.4-873,541.1z M-877,541.1c0-0.3,0.2-0.5,0.5-0.5l0,0c0.3,0,0.5,0.2,0.5,0.5l0,0c0,0.3-0.2,0.5-0.5,0.5l0,0
				C-876.8,541.6-877,541.4-877,541.1z M-881,541.1c0-0.3,0.2-0.5,0.5-0.5l0,0c0.3,0,0.5,0.2,0.5,0.5l0,0c0,0.3-0.2,0.5-0.5,0.5l0,0
				C-880.8,541.6-881,541.4-881,541.1z M-885,541.1c0-0.3,0.2-0.5,0.5-0.5l0,0c0.3,0,0.5,0.2,0.5,0.5l0,0c0,0.3-0.2,0.5-0.5,0.5l0,0
				C-884.8,541.6-885,541.4-885,541.1z M-889,541.1c0-0.3,0.2-0.5,0.5-0.5l0,0c0.3,0,0.5,0.2,0.5,0.5l0,0c0,0.3-0.2,0.5-0.5,0.5l0,0
				C-888.8,541.6-889,541.4-889,541.1z M-893,541.1c0-0.3,0.2-0.5,0.5-0.5l0,0c0.3,0,0.5,0.2,0.5,0.5l0,0c0,0.3-0.2,0.5-0.5,0.5l0,0
				C-892.8,541.6-893,541.4-893,541.1z M-897,541.1c0-0.3,0.2-0.5,0.5-0.5l0,0c0.3,0,0.5,0.2,0.5,0.5l0,0c0,0.3-0.2,0.5-0.5,0.5l0,0
				C-896.8,541.6-897,541.4-897,541.1z"/>
		</g>
	</g>
	<g id="XMLID_2_" class="st2">
		<g id="XMLID_3_">
			<path id="XMLID_4_" d="M-773,541.1c0-0.3,0.2-0.5,0.5-0.5l0,0c0.3,0,0.5,0.2,0.5,0.5l0,0c0,0.3-0.2,0.5-0.5,0.5l0,0
				C-772.8,541.6-773,541.4-773,541.1z M-777,541.1c0-0.3,0.2-0.5,0.5-0.5l0,0c0.3,0,0.5,0.2,0.5,0.5l0,0c0,0.3-0.2,0.5-0.5,0.5l0,0
				C-776.8,541.6-777,541.4-777,541.1z M-781,541.1c0-0.3,0.2-0.5,0.5-0.5l0,0c0.3,0,0.5,0.2,0.5,0.5l0,0c0,0.3-0.2,0.5-0.5,0.5l0,0
				C-780.8,541.6-781,541.4-781,541.1z M-785,541.1c0-0.3,0.2-0.5,0.5-0.5l0,0c0.3,0,0.5,0.2,0.5,0.5l0,0c0,0.3-0.2,0.5-0.5,0.5l0,0
				C-784.8,541.6-785,541.4-785,541.1z M-789,541.1c0-0.3,0.2-0.5,0.5-0.5l0,0c0.3,0,0.5,0.2,0.5,0.5l0,0c0,0.3-0.2,0.5-0.5,0.5l0,0
				C-788.8,541.6-789,541.4-789,541.1z M-793,541.1c0-0.3,0.2-0.5,0.5-0.5l0,0c0.3,0,0.5,0.2,0.5,0.5l0,0c0,0.3-0.2,0.5-0.5,0.5l0,0
				C-792.8,541.6-793,541.4-793,541.1z M-797,541.1c0-0.3,0.2-0.5,0.5-0.5l0,0c0.3,0,0.5,0.2,0.5,0.5l0,0c0,0.3-0.2,0.5-0.5,0.5l0,0
				C-796.8,541.6-797,541.4-797,541.1z M-801,541.1c0-0.3,0.2-0.5,0.5-0.5l0,0c0.3,0,0.5,0.2,0.5,0.5l0,0c0,0.3-0.2,0.5-0.5,0.5l0,0
				C-800.8,541.6-801,541.4-801,541.1z M-805,541.1c0-0.3,0.2-0.5,0.5-0.5l0,0c0.3,0,0.5,0.2,0.5,0.5l0,0c0,0.3-0.2,0.5-0.5,0.5l0,0
				C-804.8,541.6-805,541.4-805,541.1z M-809,541.1c0-0.3,0.2-0.5,0.5-0.5l0,0c0.3,0,0.5,0.2,0.5,0.5l0,0c0,0.3-0.2,0.5-0.5,0.5l0,0
				C-808.8,541.6-809,541.4-809,541.1z M-813,541.1c0-0.3,0.2-0.5,0.5-0.5l0,0c0.3,0,0.5,0.2,0.5,0.5l0,0c0,0.3-0.2,0.5-0.5,0.5l0,0
				C-812.8,541.6-813,541.4-813,541.1z M-817,541.1c0-0.3,0.2-0.5,0.5-0.5l0,0c0.3,0,0.5,0.2,0.5,0.5l0,0c0,0.3-0.2,0.5-0.5,0.5l0,0
				C-816.8,541.6-817,541.4-817,541.1z M-821,541.1c0-0.3,0.2-0.5,0.5-0.5l0,0c0.3,0,0.5,0.2,0.5,0.5l0,0c0,0.3-0.2,0.5-0.5,0.5l0,0
				C-820.8,541.6-821,541.4-821,541.1z M-825,541.1c0-0.3,0.2-0.5,0.5-0.5l0,0c0.3,0,0.5,0.2,0.5,0.5l0,0c0,0.3-0.2,0.5-0.5,0.5l0,0
				C-824.8,541.6-825,541.4-825,541.1z"/>
		</g>
	</g>
</g>
</svg>
