<?xml version="1.0" encoding="utf-8"?>
<!-- Generator: Adobe Illustrator 19.0.0, SVG Export Plug-In . SVG Version: 6.00 Build 0)  -->
<svg version="1.1" id="Layer_1" xmlns="http://www.w3.org/2000/svg" xmlns:xlink="http://www.w3.org/1999/xlink" x="0px" y="0px"
	 viewBox="0 0 264.2 15.1" style="enable-background:new 0 0 264.2 15.1;" xml:space="preserve">
<style type="text/css">
	.st0{fill:#DDDDDD;}
	.st1{fill:#DDDDDD;stroke:#DDDDDD;stroke-miterlimit:10;}
	.st2{fill:#40C4FF;}
</style>
<path id="XMLID_2527_" class="st0" d="M173.7,0c-4.1,0-7.5,3.3-7.5,7.5s3.3,7.5,7.5,7.5s7.5-3.3,7.5-7.5S177.8,0,173.7,0z"/>
<path id="XMLID_300_" class="st0" d="M256.7,0.1c-4.1,0-7.5,3.3-7.5,7.5s3.3,7.5,7.5,7.5c4.1,0,7.5-3.3,7.5-7.5S260.9,0.1,256.7,0.1
	z"/>
<line id="XMLID_236_" class="st1" x1="96.8" y1="7.5" x2="167.6" y2="7.5"/>
<line id="XMLID_233_" class="st1" x1="177.8" y1="7.5" x2="254" y2="7.5"/>
<path id="XMLID_942_" class="st0" d="M90.6,0.1c-4.1,0-7.5,3.3-7.5,7.5s3.3,7.5,7.5,7.5S98,11.7,98,7.6S94.7,0.1,90.6,0.1z"/>
<line id="XMLID_260_" class="st1" x1="14.1" y1="7.4" x2="84.1" y2="7.4"/>
<path id="XMLID_2556_" class="st2" d="M7.5,0C3.3,0,0,3.3,0,7.5s3.3,7.5,7.5,7.5s7.5-3.3,7.5-7.5S11.6,0,7.5,0z M6,11.2L2.2,7.5
	l1.1-1.1L6,9.1l5.7-5.7l1.1,1.1L6,11.2z"/>
</svg>
