<?xml version="1.0" encoding="utf-8"?>
<!-- Generator: Adobe Illustrator 19.0.0, SVG Export Plug-In . SVG Version: 6.00 Build 0)  -->
<svg version="1.1" id="Layer_1" xmlns="http://www.w3.org/2000/svg" xmlns:xlink="http://www.w3.org/1999/xlink" x="0px" y="0px"
	 viewBox="0 0 663 600" style="enable-background:new 0 0 663 600;" xml:space="preserve">
<style type="text/css">
	.st0{clip-path:url(#XMLID_71_);}
	.st1{fill:#444A4F;}
	.st2{fill:#474E53;}
	.st3{fill:#32244D;}
	.st4{fill:#483A6A;}
	.st5{fill:#7E1D35;}
	.st6{fill:#E61E67;}
	.st7{fill:#008AB6;}
	.st8{fill:#C2185B;}
	.st9{fill:#AD1457;}
	.st10{fill:#880E4F;}
	.st11{fill:#75211B;}
	.st12{fill:#140E23;}
	.st13{opacity:0.94;fill:#933C2B;}
	.st14{fill:#E5E5E4;}
	.st15{opacity:0.78;fill:none;stroke:#00AB4E;stroke-width:0.3206;stroke-miterlimit:10;}
	.st16{opacity:0.94;fill:none;stroke:#00B05B;stroke-width:0.3206;stroke-miterlimit:10;}
	
		.st17{opacity:0.6;fill:none;stroke:#AAAAAA;stroke-width:7.9871;stroke-linecap:round;stroke-miterlimit:10;stroke-dasharray:3.9936,26.6237;}
	.st18{clip-path:url(#XMLID_72_);}
	.st19{fill:#EEE7DA;}
	.st20{fill:#CABF9D;}
	.st21{fill:#958E76;}
	.st22{fill:#D1CAAD;}
	.st23{fill:#4F3A50;}
	.st24{fill:#664C67;}
	.st25{fill:url(#XMLID_73_);}
	.st26{fill:#F58E73;}
	.st27{fill:#DCAC51;}
	.st28{fill:#AB4834;}
	.st29{fill:#D45A44;}
	.st30{fill:#FDC985;}
	.st31{fill:#3F2C40;}
	.st32{fill:#CBA386;}
	.st33{fill:#B74457;}
	.st34{fill:#FDCD94;}
	.st35{fill:#304156;}
	.st36{fill:#1E2C3E;}
</style>
<g id="XMLID_125_">
	<defs>
		<path id="XMLID_133_" d="M1334.5,1848.9H764.2c-3.1,0-5.5-2.5-5.5-5.5v-567c0-3.1,2.5-5.5,5.5-5.5h570.2c3.1,0,5.5,2.5,5.5,5.5
			v567C1340,1846.4,1337.5,1848.9,1334.5,1848.9z"/>
	</defs>
	<clipPath id="XMLID_71_">
		<use xlink:href="#XMLID_133_"  style="overflow:visible;"/>
	</clipPath>
	<g id="XMLID_136_" class="st0">
		<g id="XMLID_162_">
			<path id="XMLID_2952_" class="st1" d="M956.6,1279.5l-13.7,3.2l-2.8,17.5l-1.5,11.8l-6,10.7l1.9,6.1c0,0,11-6.8,19.6-14.6
				c0.8-0.7,1.6-1.4,2.2-2.1c0.2-0.3,4.5-5.6,5.2-15.8v-13.1C961.6,1283.1,959.8,1279.3,956.6,1279.5z"/>
			<path id="XMLID_2951_" class="st2" d="M1244,1486.7l-12.4,2.9l-2.5,15.8l-1.4,10.6l-5.4,9.7l1.7,5.5c0,0,9.9-6.1,17.7-13.2
				c0.7-0.6,1.4-1.3,2-1.9c0.2-0.3,4-5.1,4.7-14.3V1490C1248.4,1490,1246.9,1486.5,1244,1486.7z"/>
			<path id="XMLID_2949_" class="st3" d="M989.8,1288.2l-7.4-5.4l3.2,4.2c0,0-0.1,0-0.1,0H883.7c-4.6,0-8.5,3.8-8.5,8.5v2.5
				c0,4.6,3.8,8.5,8.5,8.5h101.8c4.6,0,8.5-3.8,8.5-8.5v-2.5C993.9,1292.3,992.2,1289.6,989.8,1288.2z"/>
			<rect id="XMLID_2947_" x="887.6" y="1306.3" class="st4" width="11.6" height="81.4"/>
			<polygon id="XMLID_2945_" class="st3" points="899.2,1387.7 907.1,1379.8 907.1,1298.9 899.2,1306.1 			"/>
			<rect id="XMLID_2940_" x="964" y="1306.3" class="st4" width="11.6" height="81.4"/>
			<polygon id="XMLID_2939_" class="st3" points="975.7,1387.7 983.5,1379.8 983.5,1298.9 975.7,1306.1 			"/>
			<polygon id="XMLID_2938_" class="st5" points="855.7,1830.3 902.4,1797.2 879.1,1784.6 855.7,1797.2 			"/>
			<polygon id="XMLID_2937_" class="st5" points="973.6,1830.3 1020.2,1797.2 996.9,1784.6 973.6,1797.2 			"/>
			<rect id="XMLID_2936_" x="950.3" y="1797.2" class="st6" width="23.2" height="33.1"/>
			<path id="XMLID_2935_" class="st7" d="M1009.6,1486.3c-0.4,0.3-0.9,0.7-1.3,1c-11.3-14.4-27.6-35.7-27.6-35.7l17-11.1
				c7.5,0.7,14.2,4.6,18.6,10.3c0.7,0.9,1.3,1.8,1.9,2.8c3.7,11,3.7,23.2-6.6,31.1C1010.9,1485.2,1010.3,1485.7,1009.6,1486.3z"/>
			<path id="XMLID_2934_" class="st7" d="M1045.4,1465.1c0,0-25.2,35.7-26.7,35c-0.5-0.3-4.8-5.6-10.4-12.7c2.4-1.5,4.5-3,6.3-4.5
				c0.7-0.5,1.3-1.1,2-1.6c10.1-7.8,10.1-19.8,6.5-30.7c-0.6-1-1.2-1.9-1.9-2.8c-4.5-5.8-11.4-9.7-19.1-10.2l14.1-9.2h13
				L1045.4,1465.1z"/>
			<path id="XMLID_2933_" class="st8" d="M1086.4,1383.8l-7.4,5.2l-2.6,1.8l-3.9,2.7l-2.5,1.8l-277.6,195.4v-149l-13.4-30.5
				l5.6-11.6l-5.6-0.3l13.6-16.1l8-9.5l2.5-3l2.5-3l2.2-2.6c0,0,0.2-0.2,0.5-0.4c1.8-1.4,8-5.9,14.2-6.3c0.2,0,0.5,0,0.7,0h233
				C1070.9,1358.6,1083.3,1369.4,1086.4,1383.8z"/>
			<path id="XMLID_2932_" class="st9" d="M792.3,1733.3v-142.5l294-207c0.5,2.3,0.8,4.6,0.8,7.1v342.4c0,9.6-4.1,18.2-10.5,24.2v0
				l-34.5,39.7l-24.4-31.6H823.2C806.2,1765.6,792.3,1751.1,792.3,1733.3z"/>
			<path id="XMLID_2931_" class="st6" d="M799.2,1386.8h227c14.5,0,26.4,11.9,26.4,26.4v365.9c0,14.5-11.9,26.4-26.4,26.4h-227
				c-14.5,0-26.4-11.9-26.4-26.4v-365.9C772.8,1398.7,784.7,1386.8,799.2,1386.8z"/>
			<path id="XMLID_2930_" class="st9" d="M1016.6,1481.3c-0.6,0.5-1.3,1-2,1.6c-1.9,1.4-4,3-6.3,4.5c0,0,0,0,0,0
				c0.5-0.3,0.9-0.7,1.3-1c0.7-0.5,1.3-1.1,2-1.6c10.3-7.9,10.3-20,6.6-31.1c-0.6-1-1.2-1.9-1.9-2.8c-4.4-5.7-11-9.6-18.6-10.3
				l4.4-2.9c7.7,0.5,14.6,4.4,19.1,10.2c0.7,0.9,1.3,1.8,1.9,2.8C1026.7,1461.5,1026.7,1473.5,1016.6,1481.3z"/>
			<path id="XMLID_2929_" class="st9" d="M1000.3,1437.5c0.6,0,1.2,0,1.7,0.1l-4.4,2.9c-0.8-0.1-1.7-0.1-2.5-0.1H817.6
				c-1.8,0-3.5,0.2-5.2,0.5c3.8-2.1,8.1-3.3,12.7-3.3H1000.3z"/>
			<path id="XMLID_2928_" class="st7" d="M1008.2,1487.3c-0.2,0.1-0.4,0.3-0.6,0.4C1007.9,1487.6,1008,1487.4,1008.2,1487.3
				C1008.2,1487.3,1008.2,1487.3,1008.2,1487.3z"/>
			<path id="XMLID_2927_" class="st8" d="M802.4,1450.6c0.6-1,1.2-1.9,1.9-2.8c2.2-2.8,5-5.2,8.1-7c1.7-0.3,3.4-0.5,5.2-0.5h177.5
				c8.6,0,16.2,4.1,21.1,10.4c0.7,0.9,1.3,1.8,1.9,2.8c3.7,11,3.7,23.2-6.6,31.1c-0.6,0.5-1.3,1.1-2,1.6c-0.6,0.5-1.2,0.9-1.9,1.4
				c0,0-0.1,0-0.1,0.1c-16.3,10.2-45,21-93.3,21h-3c-56.2,0-85.9-14.7-100.3-25.9c-0.7-0.5-1.3-1.1-2-1.6
				C798.8,1473.5,798.8,1461.5,802.4,1450.6z"/>
			<rect id="XMLID_2926_" x="832.5" y="1797.2" class="st6" width="23.2" height="33.1"/>
			<path id="XMLID_2925_" class="st10" d="M1080.6,1399.8V1754h-3v-354.2c0-2.4-0.3-4.8-0.8-7c-0.1-0.6-0.3-1.3-0.5-1.9
				c-3.8-13.5-16.1-23.1-29.9-23.1H811.1v0h-5.5l2.2-2.6c0,0,0.2-0.2,0.5-0.4h238.1c14.8,0,28,10,32.5,24.2c0.3,1,0.6,2,0.8,3.1
				C1080.3,1394.6,1080.6,1397.2,1080.6,1399.8z"/>
			<path id="XMLID_2924_" class="st10" d="M1074.6,1405.8V1760h-3v-354.2c0-2.4-0.3-4.8-0.8-7c-0.3-1.2-0.6-2.3-0.9-3.4
				c-4.3-12.7-16.2-21.6-29.5-21.6H807.8v0h-7.2l2.5-3h237.3c14.3,0,27.1,9.3,32,22.8c0.5,1.5,1,3,1.3,4.5
				C1074.3,1400.6,1074.6,1403.2,1074.6,1405.8z"/>
			<path id="XMLID_2913_" class="st4" d="M882.5,1281.4h47.1c-1.2,0.9-2.7,2.7-3.1,6.3v1.3c0,0.5,0,1.5-0.1,2.6
				c-0.1,1.4-0.2,3.1-0.3,4.7c-0.1,1.7-0.3,3.3-0.6,4.6c-0.3,1.7-0.7,3.4-1.2,5.2h-41.9c-4,0-7.2-3.3-7.2-7.2v-10.4
				C875.2,1284.7,878.5,1281.4,882.5,1281.4z"/>
			<path id="XMLID_2893_" class="st4" d="M986.4,1288.7v10.4c0,4-3.3,7.2-7.2,7.2h-25.4c1.6-5.7,2-11.2,2.1-15.2v-1.6
				c0.1-2.2,0.7-6.2,3.2-8.1h20.1C983.1,1281.4,986.4,1284.7,986.4,1288.7z"/>
			<path id="XMLID_2892_" class="st9" d="M995,1533.4l-8.5,5.9h-166c-5.8,0-11.2,1.9-15.6,5.2c5.1-6.8,12.9-11.2,21.6-11.2h166
				C993.4,1533.3,994.2,1533.3,995,1533.4z"/>
			<path id="XMLID_2839_" class="st8" d="M798.7,1735.3v-171.7c0-7.2,2.3-13.9,6.2-19.1c4.5-3.3,9.8-5.2,15.6-5.2h166
				c15.4,0,27.8,13.6,27.8,30.3v171.7c0,7.2-2.3,13.9-6.2,19.1c-4.5,3.3-9.8,5.2-15.6,5.2h-166
				C811.2,1765.6,798.7,1752,798.7,1735.3z"/>
			<path id="XMLID_2813_" class="st9" d="M1020.4,1563.6v171.7c0,10.4-4.8,19.6-12.2,25.1c3.9-5.2,6.2-11.9,6.2-19.1v-171.7
				c0-16.7-12.5-30.3-27.8-30.3h0l8.5-5.9C1009.2,1534.7,1020.4,1547.7,1020.4,1563.6z"/>
			<path id="XMLID_2809_" class="st11" d="M1264.4,1494.9l-5.8-3.5l3.2,2.7c0,0-0.1,0-0.1,0H1199c-2.9,0-5.2,2.3-5.2,5.2v1.5
				c0,2.9,2.3,5.2,5.2,5.2h62.8c2.9,0,5.2-2.3,5.2-5.2v-1.5C1267,1497.5,1266,1495.8,1264.4,1494.9z"/>
			<rect id="XMLID_2807_" x="1201.4" y="1506.1" class="st6" width="7.2" height="50.2"/>
			<polygon id="XMLID_2799_" class="st11" points="1208.6,1556.4 1213.4,1551.5 1213.4,1501.6 1208.6,1506 			"/>
			<rect id="XMLID_2798_" x="1248.6" y="1506.1" class="st6" width="7.2" height="50.2"/>
			<polygon id="XMLID_2796_" class="st11" points="1255.7,1556.4 1260.6,1551.5 1260.6,1501.6 1255.7,1506 			"/>
			<polygon id="XMLID_2795_" class="st12" points="1181.7,1829.4 1210.5,1809 1196.1,1801.2 1181.7,1809 			"/>
			<polygon id="XMLID_2773_" class="st12" points="1254.4,1829.4 1283.2,1809 1268.8,1801.2 1254.4,1809 			"/>
			<rect id="XMLID_2769_" x="1240.1" y="1809" class="st4" width="14.3" height="20.4"/>
			<path id="XMLID_2735_" class="st7" d="M1276.6,1617.1c-0.3,0.2-0.5,0.4-0.8,0.6c-6.9-8.9-17-22-17-22l10.5-6.9
				c4.7,0.4,8.7,2.8,11.5,6.3c0.4,0.6,0.8,1.1,1.2,1.8c2.3,6.8,2.3,14.3-4.1,19.2C1277.5,1616.5,1277.1,1616.8,1276.6,1617.1z"/>
			<path id="XMLID_2715_" class="st7" d="M1298.7,1604.1c0,0-15.6,22-16.5,21.6c-0.3-0.2-3-3.5-6.4-7.9c1.5-0.9,2.8-1.9,3.9-2.8
				c0.4-0.3,0.8-0.7,1.2-1c6.2-4.8,6.2-12.2,4-18.9c-0.3-0.6-0.7-1.2-1.2-1.7c-2.8-3.6-7-6-11.8-6.3l8.7-5.7h8L1298.7,1604.1z"/>
			<path id="XMLID_2714_" class="st3" d="M1324,1553.9l-4.5,3.2l-0.1,0.1l-1.5,1.1l-0.1,0.1l-2.2,1.6l-0.1,0.1l-1.4,1l-0.2,0.1
				l-167.4,120.4v-91.9l-8.1-18.8l3.4-7.1l-3.4-0.2l8.2-9.9l4.8-5.9l1.5-1.9l1.5-1.8l0,0l1.3-1.6c0,0,0.1-0.1,0.3-0.3
				c1.1-0.9,4.9-3.7,8.6-3.9c0.1,0,0.3,0,0.4,0h140.6C1314.7,1538.3,1322.2,1545.1,1324,1553.9z"/>
			<path id="XMLID_2712_" class="st12" d="M1142.6,1769.6v-87.9L1324,1554c0.3,1.4,0.5,2.9,0.5,4.4v211.2c0,5.9-2.5,11.2-6.5,14.9v0
				l-23,22.3l-13.3-17.3h-120C1151.2,1789.5,1142.6,1780.5,1142.6,1769.6z"/>
			<path id="XMLID_2711_" class="st4" d="M1157,1555.8h119.8c14.5,0,26.4,11.9,26.4,26.4v205.5c0,14.5-11.9,26.4-26.4,26.4H1157
				c-14.5,0-26.4-11.9-26.4-26.4v-205.5C1130.6,1567.7,1142.5,1555.8,1157,1555.8z"/>
			<path id="XMLID_2675_" class="st12" d="M1281,1614.1c-0.4,0.3-0.8,0.6-1.2,1c-1.1,0.9-2.4,1.8-3.9,2.8c0,0,0,0,0,0
				c0.3-0.2,0.6-0.4,0.8-0.6c0.4-0.3,0.8-0.7,1.2-1c6.3-4.9,6.3-12.4,4.1-19.2c-0.4-0.6-0.7-1.2-1.2-1.8c-2.7-3.5-6.8-5.9-11.5-6.3
				l2.7-1.8c4.8,0.3,9,2.7,11.8,6.3c0.4,0.6,0.8,1.1,1.2,1.7C1287.2,1601.9,1287.2,1609.3,1281,1614.1z"/>
			<path id="XMLID_2657_" class="st12" d="M1270.9,1587.1c0.4,0,0.7,0,1.1,0l-2.7,1.8c-0.5-0.1-1-0.1-1.6-0.1h-109.5
				c-1.1,0-2.2,0.1-3.2,0.3c2.3-1.3,5-2.1,7.9-2.1H1270.9z"/>
			<path id="XMLID_2653_" class="st7" d="M1275.8,1617.8c-0.1,0.1-0.2,0.2-0.4,0.2C1275.6,1617.9,1275.7,1617.9,1275.8,1617.8
				C1275.8,1617.8,1275.8,1617.8,1275.8,1617.8z"/>
			<path id="XMLID_2652_" class="st3" d="M1148.8,1595.2c0.3-0.6,0.7-1.2,1.2-1.7c1.4-1.7,3.1-3.2,5-4.3c1-0.2,2.1-0.3,3.2-0.3
				h109.5c5.3,0,10,2.5,13,6.4c0.4,0.6,0.8,1.1,1.2,1.8c2.3,6.8,2.3,14.3-4.1,19.2c-0.4,0.3-0.8,0.7-1.2,1c-0.4,0.3-0.8,0.6-1.2,0.9
				c0,0,0,0-0.1,0c-10.1,6.3-27.8,13-57.6,13h-1.9c-34.7,0-53-9.1-61.9-16c-0.4-0.3-0.8-0.7-1.2-1
				C1146.6,1609.3,1146.6,1601.9,1148.8,1595.2z"/>
			<rect id="XMLID_2649_" x="1167.4" y="1809" class="st4" width="14.3" height="20.4"/>
			<path id="XMLID_165_" class="st3" d="M1319.4,1557.2C1319.4,1557.2,1319.4,1557.2,1319.4,1557.2c0.2,0.7,0.4,1.3,0.5,1.9
				c0.3,1.5,0.5,3.1,0.5,4.7v218.5h-1.8v-218.5c0-1.5-0.2-2.9-0.5-4.3c-0.1-0.4-0.2-0.7-0.3-1.1"/>
			<path id="XMLID_2648_" class="st12" d="M1317.9,1558.4C1317.8,1558.4,1317.8,1558.3,1317.9,1558.4c-2.4-8.4-10-14.3-18.5-14.3
				h-144.8l1.3-1.6c0,0,0.1-0.1,0.3-0.3h143.2c9.1,0,17.3,6.2,20,15"/>
			<path id="XMLID_161_" class="st3" d="M1315.5,1560.1c0.3,0.9,0.6,1.8,0.8,2.7c0.3,1.5,0.5,3.1,0.5,4.7V1786h-1.8v-218.5
				c0-1.5-0.2-2.9-0.5-4.3c-0.1-0.7-0.3-1.3-0.5-1.9"/>
			<path id="XMLID_2646_" class="st12" d="M1313.9,1561.2c0,0,0-0.1,0-0.1c-2.6-7.8-10-13.3-18.2-13.3h-143.5v0h-0.7l1.5-1.9h142.7
				c8.8,0,16.7,5.8,19.7,14.1c0,0,0,0.1,0,0.1"/>
			<path id="XMLID_2645_" class="st6" d="M1200.3,1490.8h17.7c-0.3,0.7-0.4,1.5-0.6,2.5v1.2c0,0.5,0,1.3-0.1,2.4
				c-0.1,1.2-0.2,2.8-0.3,4.3c-0.1,1.5-0.3,3-0.5,4.2c-0.1,0.3-0.1,0.6-0.2,0.9h-16.2c-3.6,0-6.6-3-6.6-6.6v-2.2
				C1193.8,1493.7,1196.7,1490.8,1200.3,1490.8z"/>
			<path id="XMLID_2644_" class="st6" d="M1262.3,1497.3v2.2c0,3.6-2.9,6.6-6.6,6.6H1243c0.7-3.7,1-7.1,1-9.9c0-0.5,0-1,0-1.4
				c0.1-1.1,0.2-2.6,0.7-4.1h11.1C1261.7,1491.5,1262.3,1493.7,1262.3,1497.3z"/>
			<path id="XMLID_2643_" class="st12" d="M1267.6,1646.2l-5.2,3.6H1160c-3.6,0-6.9,1.2-9.6,3.2c3.1-4.2,7.9-6.9,13.3-6.9h102.4
				C1266.6,1646.2,1267.1,1646.2,1267.6,1646.2z"/>
			<path id="XMLID_2642_" class="st3" d="M1146.6,1770.8v-106c0-4.5,1.4-8.6,3.8-11.8c2.7-2,6.1-3.2,9.6-3.2h102.4
				c9.5,0,17.2,8.4,17.2,18.7v106c0,4.5-1.4,8.6-3.8,11.8c-2.7,2-6.1,3.2-9.6,3.2h-102.4C1154.2,1789.5,1146.6,1781.1,1146.6,1770.8
				z"/>
			<path id="XMLID_2641_" class="st12" d="M1283.3,1664.8v106c0,6.4-3,12.1-7.5,15.5c2.4-3.2,3.8-7.3,3.8-11.8v-106
				c0-10.3-7.7-18.7-17.2-18.7h0l5.2-3.6C1276.4,1647.1,1283.3,1655.1,1283.3,1664.8z"/>
			<path id="XMLID_2640_" class="st13" d="M1244.7,1490.8c-0.5,1.5-0.7,3-0.7,4.1c0,0.4,0,0.9,0,1.4c-0.1,2.7-0.3,6.2-1,9.9h-26.5
				c0.1-0.3,0.1-0.6,0.2-0.9c0.2-1.2,0.4-2.7,0.5-4.2c0.1-1.5,0.2-3,0.3-4.3c0.1-1.1,0.1-1.9,0.1-2.4v-1.2c0.1-1,0.3-1.8,0.6-2.5
				H1244.7z"/>
			<path id="XMLID_2639_" class="st3" d="M959.1,1281.4c-2.6,1.9-3.1,5.9-3.2,8.1v1.6c-0.1,4.1-0.6,9.5-2.1,15.2h-29.3
				c0.5-1.8,0.9-3.6,1.2-5.2c0.2-1.3,0.4-2.9,0.6-4.6c0.1-1.7,0.2-3.3,0.3-4.7c0.1-1.2,0.1-2.1,0.1-2.6v-1.3
				c0.4-3.6,1.9-5.4,3.1-6.3H959.1z"/>
			<path id="XMLID_2637_" class="st14" d="M956.6,1279.5l-28,0c-2,0-2.9,0.7-3,0.8c-1.2,0.9-2.8,2.7-3.3,6.5c0,0.4,0,0.8,0,1.3
				c0,0.5,0,1.5-0.1,2.6c0,0,0,0,0,0h0c-0.1,2.8-0.4,6.8-0.9,9.4c-1.5,8.7-5.3,19.1-14.1,26.6c0,0-17.1,16.2-21.7,19.9l-2.3,2.4
				c2.8-1.9,10.6-1.9,10.6-1.9h20.3c4.6-2.2,22.5-20.4,22.5-20.4c12.6-10.7,14.9-27.3,15.1-36.6l0,0v0c0-0.5,0-1.1,0-1.6
				C951.8,1285.9,952.6,1280.8,956.6,1279.5z"/>
			<path id="XMLID_2636_" class="st15" d="M940.5,1317.8c7.1-9.6,8.6-21.1,8.8-28.2l0,0v0c0-0.5,0-1,0-1.5c0-1,0.2-2.3,0.6-3.6
				c0.4-1.4,1.1-2.7,2.2-3.7"/>
			<path id="XMLID_2635_" class="st15" d="M918.2,1315.7c5.5-9.2,6.5-19.6,6.4-26.2l0,0v0c0-0.5,0-1,0-1.5c0-1,0.1-2.3,0.5-3.6
				c0.4-1.4,1-2.8,2-3.8"/>
			
				<text id="XMLID_2634_" transform="matrix(0.9992 4.040014e-002 -4.040014e-002 0.9992 926.9315 1297.5503)" style="opacity:0.78;fill:#231F20; font-family:'Helvetica'; font-size:8.5323px;">GAU</text>
			
				<text id="XMLID_2633_" transform="matrix(0.9994 3.357987e-002 -3.357987e-002 0.9994 925.0386 1306.1569)" style="opacity:0.78;fill:#231F20; font-family:'Helvetica'; font-size:1.1653px;">12344-423-442243242-2424-092340</text>
			
				<text id="XMLID_2632_" transform="matrix(0.9994 3.357987e-002 -3.357987e-002 0.9994 924.1954 1308.7726)" style="opacity:0.78;fill:#231F20; font-family:'Helvetica'; font-size:1.1653px;">12344-423-442243242-2424-092340</text>
			<line id="XMLID_2631_" class="st15" x1="926" y1="1301.7" x2="945.7" y2="1302.4"/>
			<line id="XMLID_2630_" class="st15" x1="926" y1="1286.7" x2="947.8" y2="1287.3"/>
			<polyline id="XMLID_2629_" class="st16" points="923.1,1336.5 918.2,1341.2 913.3,1345.3 			"/>
			<polyline id="XMLID_2628_" class="st16" points="899.9,1336.5 895,1341.2 890.2,1345.3 			"/>
			<path id="XMLID_2256_" class="st14" d="M1244,1486.7l-25.3,0c-1.8,0-2.7,0.7-2.7,0.7c-1.1,0.8-2.5,2.4-2.9,5.9c0,0.4,0,0.7,0,1.2
				c0,0.5,0,1.3-0.1,2.4v0h0c-0.1,2.5-0.4,6.1-0.8,8.4c-1.4,7.9-4.8,17.3-12.7,24c0,0-15.5,14.6-19.6,17.9l-2.1,2.1
				c2.5-1.7,9.6-1.7,9.6-1.7h18.3c4.2-2,20.3-18.4,20.3-18.4c11.4-9.7,13.4-24.6,13.6-33l0,0v0c0-0.5,0-1,0-1.4
				C1239.7,1492.5,1240.4,1487.9,1244,1486.7z"/>
			<path id="XMLID_2255_" class="st15" d="M1229.4,1521.3c6.4-8.6,7.8-19.1,7.9-25.5l0,0v0c0-0.5,0-0.9,0-1.3c0-0.9,0.2-2.1,0.5-3.3
				c0.4-1.2,1-2.5,2-3.4"/>
			<path id="XMLID_2254_" class="st15" d="M1209.3,1519.4c5-8.3,5.8-17.7,5.8-23.6l0,0l0,0c0-0.5,0-0.9,0-1.3c0-0.9,0.1-2.1,0.4-3.3
				c0.3-1.2,0.9-2.5,1.9-3.4"/>
			
				<text id="XMLID_2249_" transform="matrix(0.9992 4.040014e-002 -4.040014e-002 0.9992 1217.1758 1503.0021)" style="opacity:0.78;fill:#231F20; font-family:'Helvetica'; font-size:7.7004px;">GAU</text>
			
				<text id="XMLID_2248_" transform="matrix(0.9994 3.357987e-002 -3.357987e-002 0.9994 1215.5007 1510.7921)" style="opacity:0.78;fill:#231F20; font-family:'Helvetica'; font-size:1.0517px;">12344-423-442243242-2424-092340</text>
			
				<text id="XMLID_2247_" transform="matrix(0.9994 3.357987e-002 -3.357987e-002 0.9994 1214.7412 1513.1547)" style="opacity:0.78;fill:#231F20; font-family:'Helvetica'; font-size:1.0517px;">12344-423-442243242-2424-092340</text>
			<line id="XMLID_2246_" class="st15" x1="1216.4" y1="1506.8" x2="1234.1" y2="1507.3"/>
			<line id="XMLID_2245_" class="st15" x1="1216.4" y1="1493.2" x2="1236.1" y2="1493.8"/>
			<polyline id="XMLID_2244_" class="st16" points="1213.7,1538.1 1209.3,1542.4 1204.9,1546.1 			"/>
			<polyline id="XMLID_2243_" class="st16" points="1192.8,1538.1 1188.4,1542.4 1184,1546.1 			"/>
		</g>
	</g>
</g>
<g id="XMLID_167_">
	<g id="XMLID_4264_">
		<path id="XMLID_4825_" class="st17" d="M4614.2,1627.4c0,0,67.6-355.5,368.6-418.8"/>
		<g id="XMLID_82_">
			<defs>
				<path id="XMLID_166_" d="M5126.6,1805h-643.2c-3.8,0-6.9-3.1-6.9-6.9V1029c0-3.8,3.1-6.9-43.9,18.5h643.2
					c54.5-25.4,57.6-22.3,57.6-18.5v769.1C5133.4,1801.9,5130.3,1805,5126.6,1805z"/>
			</defs>
			<clipPath id="XMLID_72_">
				<use xlink:href="#XMLID_166_"  style="overflow:visible;"/>
			</clipPath>
			<g id="XMLID_160_" class="st18">
				<g id="XMLID_164_">
					<g id="XMLID_4432_">
						<g id="XMLID_4433_">
							<path id="XMLID_4583_" class="st4" d="M4664.8,1504.8c0,0-18.4-38.6-61-38.4c-42.5-0.2-61,38.4-61,38.4
								c-21.5,43.7,3.1,79.3,3.1,79.3l53.4,82.9c0,0,3.1,2.4,4.3,1.8h0.3c1.3,0.6,4.3-1.8,4.3-1.8l53.4-82.9
								C4661.7,1584.1,4686.3,1548.5,4664.8,1504.8z M4603.8,1561.2c-13.3,0-24-11.5-24-25.7c0-14.2,10.8-25.7,24-25.7
								s24,11.5,24,25.7C4627.8,1549.7,4617.1,1561.2,4603.8,1561.2z"/>
							<path id="XMLID_4580_" class="st4" d="M5012.8,1113.4c0,0-10.5-21.9-34.6-21.8c-24.1-0.1-34.6,21.8-34.6,21.8
								c-12.2,24.8,1.7,44.9,1.7,44.9l30.3,47c0,0,1.7,1.4,2.4,1h0.2c0.7,0.3,2.5-1,2.5-1l30.3-47
								C5011.1,1158.4,5025,1138.2,5012.8,1113.4z M4978.3,1145.4c-7.5,0-13.6-6.5-13.6-14.6c0-8.1,6.1-14.6,13.6-14.6
								c7.5,0,13.6,6.5,13.6,14.6C4991.9,1138.9,4985.8,1145.4,4978.3,1145.4z"/>
							<g id="XMLID_4434_">
								<polygon id="XMLID_4577_" class="st19" points="4822.6,1270.5 4827.1,1268.6 4826.7,1272 								"/>
								<polygon id="XMLID_4574_" class="st19" points="4817.3,1349.5 4729.9,1335.4 4712.3,1332.6 4673.9,1405.5 4640.9,1320.8 
									4534.4,1304.9 4850.6,1073.8 4835.3,1200.3 4786.9,1170.5 4668.8,1288 4667.3,1289.7 4668.2,1291.6 4694.7,1310.4 
									4706.2,1292.9 4752.6,1299.1 4786.5,1285.2 4823.8,1295.4 								"/>
								<polygon id="XMLID_4571_" class="st20" points="4698.9,1358 4673.9,1405.5 4640.9,1320.8 4667.3,1289.7 4684.2,1326.3 
									4683.2,1327.9 4685.1,1328.2 								"/>
								<polygon id="XMLID_4568_" class="st20" points="4716.8,1276.9 4668.8,1288 4850.6,1073.8 								"/>
								<polygon id="XMLID_4567_" class="st19" points="4664.9,1224.7 4659.2,1262.2 4689.6,1289.4 4732.5,1292.6 4740.9,1257.3 
									4738.2,1239 4688,1220.3 4670.6,1216.8 								"/>
								<polygon id="XMLID_4564_" class="st21" points="4694.7,1310.4 4684.2,1326.3 4668.2,1291.6 								"/>
								<polygon id="XMLID_4563_" class="st19" points="4666.7,1288.4 4668.8,1288 4667.3,1289.7 								"/>
								<polygon id="XMLID_4560_" class="st21" points="4712.3,1332.6 4698.9,1358 4685.1,1328.2 								"/>
								<polygon id="XMLID_4557_" class="st21" points="4716.8,1276.9 4694.7,1310.4 4668.2,1291.6 4667.3,1289.7 4668.8,1288 
																	"/>
								<polygon id="XMLID_4554_" class="st19" points="4823.8,1295.4 4699.1,1261.4 4727.5,1242.2 4796.9,1260.4 4826.7,1272 
																	"/>
								<polygon id="XMLID_4551_" class="st22" points="4827.1,1268.6 4822.6,1270.5 4796.9,1260.4 4727.5,1242.2 4699.1,1261.4 
									4786.5,1285.2 4752.6,1299.1 4706.2,1292.9 4716.8,1276.9 4668.8,1288 4743.2,1213.9 4741.1,1227.6 4835.2,1201.1 								
									"/>
								<polygon id="XMLID_4550_" class="st19" points="4668.8,1288 4716.8,1276.9 4706.2,1292.9 								"/>
								<polygon id="XMLID_4547_" class="st22" points="4822.6,1270.5 4786.5,1285.2 4699.1,1261.4 4727.5,1242.2 4796.9,1260.4 
																	"/>
								<polygon id="XMLID_4493_" class="st19" points="4835.2,1201.1 4741.1,1227.6 4743.2,1213.9 4786.9,1170.5 4835.3,1200.3 
																	"/>
								<polyline id="XMLID_4490_" class="st22" points="4789,1213.2 4836.9,1186.8 4835.2,1201.1 4780.5,1226.7 4789.2,1213.7 
																	"/>
								<line id="XMLID_4489_" class="st19" x1="4659.1" y1="1284.8" x2="4789" y2="1213.2"/>
							</g>
						</g>
					</g>
				</g>
			</g>
		</g>
	</g>
	<g id="XMLID_1847_">
		<g id="XMLID_1868_">
			<path id="XMLID_3877_" class="st8" d="M4781.8,1206.5c0.4-3-1.7-5.8-4.7-6.2l-94.1-13.7c-3-0.4-5.8,1.6-6.3,4.6l-11.5,79.2
				c-0.4,3,1.7,5.8,4.7,6.2l66.4,9.7l1.1,3.5l7.2,13.5l22.4-13.4c0.5-0.2,0.9-0.4,1.3-0.8l0,0l0,0c1-0.8,1.8-2,2-3.4L4781.8,1206.5z
				"/>
			<path id="XMLID_3737_" class="st6" d="M4749.6,1213.6l-80.8-11.8c-5.4-0.8-10.6,3-11.4,8.5l-2.6,18.1l5.7-6.4
				c0,0,5.7,4.8,13.5,6.1c0,0,16.6,4.6,21.4,6.7l-2.6,17.7c-1-0.2-1.6-0.2-1.6-0.2s0.3,1.4,1,4l0,0.1l13.1-6.2
				c0.4,4.8-3.2,6.4-3.2,6.4l-11.2,8.5l-21.3,16.2l-4.1,0.8l-6.5,1.2c-1.1,0.6-2.3,0.6-3.4,0.3c0,0-7-0.1-8.4-3.2l-0.2,1.2
				c-0.8,5.4,3,10.6,8.5,11.3l80.8,11.8c5.4,0.8,10.5-3,11.3-8.5l10.4-71.3C4758.8,1219.5,4755,1214.4,4749.6,1213.6z
				 M4657.6,1270.6c-1.3-2.2-2.2-4-2.1-4.8c0,0-2.9-8-4.4-12.2l-2.9,20l1.9-0.2L4657.6,1270.6z"/>
			
				<rect id="XMLID_3735_" x="4656" y="1222.2" transform="matrix(0.9895 0.1442 -0.1442 0.9895 225.7529 -666.1036)" class="st10" width="101.6" height="3.4"/>
			<path id="XMLID_3734_" class="st9" d="M4787.9,1186.1l-3.2,21.9c-0.3,1.8-1.1,4.6-2.6,5.4l-24.8,16.2l-14.4-6.8l-0.1-9.7
				l16.2-16.5l25.1-16.2C4786.6,1181,4788.3,1183.5,4787.9,1186.1z"/>
			<path id="XMLID_3733_" class="st8" d="M4759.2,1196.5l-16.1,16.5l0.1,9.7l-33.8-16.2l-32.1-4.7c-2.8-0.4-4.8-3-4.4-5.9l0.9-6.4
				l-13.8-7.6l18.7-15.6c1.1-0.8,2.5-1.3,3.9-1.1l101,14.7c0.2,0,1.8,0.7,2,0.8L4759.2,1196.5z"/>
			<path id="XMLID_2224_" class="st6" d="M4756.9,1230.3l-99.1-14.4c-2.7-0.4-4.5-2.9-4.1-5.5l3.9-26.9c0.4-2.7,2.9-4.5,5.5-4.1
				l99.1,14.4c2.7,0.4,4.5,2.9,4.1,5.5l-3.9,26.9C4762.1,1228.8,4759.6,1230.6,4756.9,1230.3z"/>
			<polygon id="XMLID_2225_" class="st23" points="4720.4,1188.5 4740.7,1173.4 4722.9,1171.4 4700.9,1185.7 			"/>
			
				<rect id="XMLID_2971_" x="4690.1" y="1195.1" transform="matrix(0.1442 -0.9895 0.9895 0.1442 2836.6836 5689.9692)" class="st24" width="36.1" height="19.7"/>
			<path id="XMLID_2965_" class="st23" d="M4754.3,1147.6c-1.9-2.6-8-10.9-19.3-12.8c-11.9-1.9-20.7,4.8-23.1,6.6
				c-1.6,1.2-16.3,12.4-12.7,25.7c2.2,8.2,10,12.2,12.1,13.3l25.5,3.7c9.3,1.3,18.3-1.7,22.6-8.2
				C4766.9,1164.8,4756,1149.9,4754.3,1147.6z M4745.7,1168.9c-2.2,3.4-6.8,4.9-11.6,4.2l-13.1-1.9c-1.1-0.5-5.1-2.6-6.2-6.8
				c-1.8-6.8,5.7-12.6,6.5-13.2c1.2-0.9,5.8-4.4,11.9-3.4c5.8,0.9,9,5.2,9.9,6.6C4743.8,1155.5,4749.5,1163.1,4745.7,1168.9z"/>
			<path id="XMLID_2954_" class="st24" d="M4740.7,1145.7c-1.9-2.6-8-10.9-19.3-12.8c-11.9-1.9-20.7,4.8-23.1,6.6
				c-1.6,1.2-16.3,12.4-12.7,25.7c2.2,8.2,10,12.2,12.1,13.3l25.5,3.7c9.3,1.3,18.3-1.7,22.6-8.2
				C4753.3,1162.8,4742.4,1147.9,4740.7,1145.7z M4732.1,1166.9c-2.2,3.4-6.8,4.9-11.6,4.2l-13.1-1.9c-1.1-0.5-5.1-2.6-6.2-6.8
				c-1.8-6.8,5.7-12.6,6.5-13.2c1.2-0.9,5.8-4.4,11.9-3.4c5.8,0.9,9,5.2,9.9,6.6C4730.3,1153.5,4735.9,1161.2,4732.1,1166.9z"/>
		</g>
		<polygon id="XMLID_3732_" class="st6" points="4656.2,1219.1 4647.2,1281.7 4649,1287.8 4691.4,1285.5 4721.9,1251.2 
			4710.4,1238.1 4688.5,1225.8 		"/>
		<polygon id="XMLID_2226_" class="st24" points="4695.9,1224 4714.5,1226.7 4703.2,1299.9 4684.2,1297.1 		"/>
	</g>
</g>
<g id="XMLID_79_">
	<linearGradient id="XMLID_73_" gradientUnits="userSpaceOnUse" x1="382.4216" y1="459.638" x2="382.4216" y2="459.638">
		<stop  offset="0.15" style="stop-color:#0B0034"/>
		<stop  offset="0.4386" style="stop-color:#0D0337"/>
		<stop  offset="0.6693" style="stop-color:#150D41"/>
		<stop  offset="0.86" style="stop-color:#211C50"/>
	</linearGradient>
	<path id="XMLID_5388_" class="st25" d="M382.4,459.6"/>
	<polygon id="XMLID_5387_" class="st3" points="210.4,195.8 200.6,220.5 11.8,205.4 14.7,157.3 	"/>
	<path id="XMLID_5386_" class="st4" d="M222.4,165.6l-12,30.2L14.7,157.3l2.4-38.6c0.5-8.4,9.6-14,18.3-11.3L222.4,165.6z"/>
	<path id="XMLID_5385_" class="st26" d="M200.2,300.4v30.1h-2.4c-0.1,0.9-0.3,1.7-0.6,2.5l9.5-0.8l9.7-29.8L200.2,300.4z"/>
	<path id="XMLID_5377_" class="st26" d="M171.9,304.8c-0.2,0-0.3,0-0.5,0c0.2,0,0.4-0.1,0.7-0.1L171.9,304.8z"/>
	<path id="XMLID_5376_" class="st8" d="M451.9,199.2c0-6.4-5.3-11.6-11.8-11.6H238.2c-6.5,0-11.8,5.2-11.8,11.6v170
		c0,6.4,5.3,11.6,11.8,11.6h142.4l3.5,7.1l19.2,26.1l43-34.9c0.9-0.5,1.7-1.2,2.4-2l0.1-0.1l0,0c1.9-2.1,3.1-4.8,3.1-7.8V199.2z"/>
	<path id="XMLID_5373_" class="st6" d="M386.4,223.8H213.1c-11.7,0-21.3,9.6-21.3,21.3v38.8l10-15.2c0,0,13.4,8.3,30.2,8.7
		c0,0,36.2,4.6,46.9,7.6v37.9c-2.1,0-3.4,0.1-3.4,0.1s1.1,2.9,3.4,8v0.3l25.5-17.1c2.4,9.9-4.7,14.5-4.7,14.5L278.9,350l-39.7,40.6
		l-8.5,2.9l-13.2,4.6c-2.2,1.5-4.6,1.9-7.1,1.6c0,0-14.6,1.9-18.6-4.2v2.6c0,11.7,9.6,21.2,21.3,21.2h173.3
		c11.7,0,21.2-9.6,21.2-21.2v-153C407.6,233.4,398.1,223.8,386.4,223.8z M210.7,371.8c-3.4-4.2-5.8-7.7-5.9-9.5
		c0,0-8.5-15.9-12.9-24.3V381l3.9-1L210.7,371.8z"/>
	<rect id="XMLID_5371_" x="191.8" y="255" class="st10" width="215.8" height="7.2"/>
	<path id="XMLID_5370_" class="st9" d="M458.5,154.3v47c0,3.8-0.8,10.1-3.8,12.1l-56,41.6l-23.4-9.8l-3.1-20.4l28.9-39.7l47.7-41.7
		C454.3,144,458.5,148.7,458.5,154.3z"/>
	<path id="XMLID_5363_" class="st8" d="M401.3,185.1l-28.8,39.7l3.1,20.4l-76-23.6h-68.8c-6.1,0-11-4.9-11-11v-13.8l-31.4-11.7
		l34.4-38.4c2-2.1,4.8-3.4,7.9-3.4h216.6c0.5,0,4,0.9,4.5,1L401.3,185.1z"/>
	<path id="XMLID_5362_" class="st6" d="M387.6,256.6H207.4c-16.4,0-29.7-13.3-29.7-29.7V208c0-16.4,13.3-29.7,29.7-29.7h180.2
		c16.4,0,29.7,13.3,29.7,29.7v18.9C417.3,243.3,404,256.6,387.6,256.6z"/>
	<path id="XMLID_5361_" class="st27" d="M254.7,143.3"/>
	<polygon id="XMLID_5360_" class="st23" points="317.4,180 355.4,142 317.4,143.3 275.6,180 	"/>
	<rect id="XMLID_5358_" x="275.6" y="180" class="st24" width="41.8" height="76.6"/>
	<rect id="XMLID_5357_" x="278.9" y="258.6" class="st28" width="41.2" height="3.6"/>
	<path id="XMLID_5354_" class="st23" d="M376.1,83.8c-4.8-4.8-20.2-20.5-44.5-20.9c-25.6-0.4-42.1,16.4-46.5,20.9
		c-3,3-30.5,31.1-18.9,57.9c7.1,16.5,24.8,22.6,29.5,24.1h54.8c20-0.1,38-9.1,45-24.1C407.8,116,380.2,88,376.1,83.8z M364.4,131.2
		c-3.6,7.7-12.9,12.4-23.2,12.4h-28.2c-2.4-0.8-11.5-3.9-15.2-12.4c-6-13.8,8.2-28.2,9.7-29.8c2.3-2.3,10.7-11,23.9-10.7
		c12.5,0.2,20.4,8.3,22.9,10.7C356.5,103.5,370.7,117.9,364.4,131.2z"/>
	<path id="XMLID_5351_" class="st24" d="M347,83.8c-4.8-4.8-20.2-20.5-44.5-20.9c-25.6-0.4-42.1,16.4-46.5,20.9
		c-3,3-30.5,31.1-18.9,57.9c7.1,16.5,24.8,22.6,29.5,24.1h54.8c20-0.1,38-9.1,45-24.1C378.6,116,351.1,88,347,83.8z M335.3,131.2
		c-3.6,7.7-12.9,12.4-23.2,12.4H284c-2.4-0.8-11.5-3.9-15.2-12.4c-6-13.8,8.2-28.2,9.7-29.8c2.3-2.3,10.7-11,23.9-10.7
		c12.5,0.2,20.4,8.3,22.9,10.7C327.4,103.5,341.5,117.9,335.3,131.2z"/>
	<polyline id="XMLID_5350_" class="st6" points="191.8,368.8 191.9,400.1 253.4,413.9 349.3,413.9 363.1,327.2 247.4,320.2 
		191.8,367.1 	"/>
	<path id="XMLID_5349_" class="st29" d="M316.3,316.9l-1.6,76.4l-41.2-0.9l0.2-10.3c9,1.9,12.1-5.7,12.1-5.7
		c28.5,11.3,22.1-12.6,22.1-12.6c-17-25.3-27.5-48.1-32.4-59.7l0.2-8.2c4.9,0.2,14,1.5,18.7,8.8c6.7,10.3,19.5,11.6,19.5,11.6
		C314.7,316.5,315.5,316.7,316.3,316.9z"/>
	<path id="XMLID_5348_" class="st30" d="M172.1,277.4c-1.3,0.2-2.5,0.5-3.6,0.8C169.8,277.8,170.9,277.5,172.1,277.4z"/>
	<rect id="XMLID_5347_" x="278.9" y="256.6" class="st31" width="41.2" height="5.6"/>
	<rect id="XMLID_5346_" x="278.9" y="262.2" class="st23" width="41.2" height="157.1"/>
	<path id="XMLID_5345_" class="st31" d="M320.1,322V343c-0.8-0.1-1.6-0.3-2.5-0.5c0,0-12.9-1-19.8-11.2c-4.9-7.2-14-8.3-18.9-8.4
		V285c0.8,0.2,1.5,0.5,2,0.7C280.9,285.6,303.3,308.3,320.1,322z"/>
	<polygon id="XMLID_5341_" class="st32" points="291.7,397.3 277.9,376.5 274.7,380.1 	"/>
	<polygon id="XMLID_5338_" class="st32" points="272.3,400.1 260.4,378.9 256.8,382.5 	"/>
	<polygon id="XMLID_5331_" class="st32" points="253.4,396.9 243.9,380.1 241.5,386.9 	"/>
	<path id="XMLID_5330_" class="st31" d="M290.8,403.1c0,0-2.9,7.6-11.9,5.9v-78c5.1,11.5,16.2,34.1,33.7,59
		C312.6,390,319.5,413.8,290.8,403.1z"/>
	<path id="XMLID_5327_" class="st33" d="M275.5,323c0,0,1.1,2.9,3.4,8v0.3l-25.1,16.8l-43.2,23.7c-3.4-4.2-5.8-7.7-5.9-9.5
		c0,0-8.5-15.9-12.9-24.3v-54.2l10-15.2c0,0,13.4,8.3,30.2,8.7c0,0,36.2,4.6,46.9,7.6v37.9C276.8,322.8,275.5,323,275.5,323z"/>
	<path id="XMLID_5326_" class="st33" d="M278.9,331.3V409c-2.2-0.4-4.8-1.4-7.8-3.2c0,0-7.4,7.4-19.3-3.2c0,0-4.4,6.3-12.9-1
		c0,0-3.5-3.3-8.2-8.1c-6.2-6.2-14.5-14.9-20.1-21.7l43.2-23.7L278.9,331.3z"/>
	<path id="XMLID_5325_" class="st33" d="M320.1,343V322c7.3,6,13.5,10.2,16.3,10.2C336.4,332.2,341.9,347.2,320.1,343z"/>
	<path id="XMLID_5266_" class="st34" d="M204.3,262.9c0,0,13.1,8.3,29.6,8.7c0,0,41.3,5.3,48.1,8.3c0,0,45.1,46.6,54.4,46.6
		c0,0,5.8,16-18.4,10.2c0,0-12.6-1-19.4-11.2c-6.8-10.2-21.8-8.3-21.8-8.3s11.6,31.1,36.4,67c0,0,6.8,23.8-21.4,13.1
		c0,0-4.4,11.8-19.4,2.8c0,0-7.3,7.4-18.9-3.2c0,0-4.4,6.3-12.6-1c0,0-33-32.5-33.5-39.3c0,0-13.6-25.7-15-29.1l-26.2-4.9
		L204.3,262.9z"/>
	<path id="XMLID_4491_" class="st3" d="M182.5,305.6c-5.1,10.5-9.2,18.9-9.2,18.9s-4.4,4.9-8.7,3.4l-138.4,4.8
		c-7.9,0.3-14.4-5.4-14.4-12.6v-28.8C62,295.6,143.3,302.4,182.5,305.6z"/>
	<path id="XMLID_4431_" class="st4" d="M204.3,262.9c-2.1,3-13.4,25.7-21.8,42.7c-39.2-3.2-120.5-10-170.7-14.3v-70.5
		c0-5.9,6.2-10.3,12.6-8.7l173.5,43C197.8,255.1,207.7,258,204.3,262.9z"/>
	<path id="XMLID_4415_" class="st34" d="M461.2,448.5h-17.9l-38.8-5.2c-1.7-0.2-3.5-0.1-5.2,0.4l-32.1,9.7l-53.8-5.3L298,438
		c0,0-9.9-1.9-13.6,0c0,0-3.7-7.2-17.9-0.8c0,0-11.3-2.3-9.3,9.5l79.2,47c0,0,16.7,8.7,34.6,4.9l95.2-6.2l6.8,1.2L461.2,448.5z"/>
	<path id="XMLID_4414_" class="st35" d="M653,487.4v-62.9c0-5.3-4.5-9.5-9.7-8.9l-177.7,21.4c-3.9,0.5-6.5,4.4-5.5,8.3l7.5,28.8
		L653,487.4z"/>
	<path id="XMLID_4413_" class="st36" d="M467.6,474.1l5.1,19.5l172.3,31.9c4.2,0.8,8.1-2.5,8.1-7v-31.1L467.6,474.1z"/>
</g>
</svg>
