<?xml version="1.0" encoding="utf-8"?>
<!-- Generator: Adobe Illustrator 19.0.0, SVG Export Plug-In . SVG Version: 6.00 Build 0)  -->
<svg version="1.1" id="Layer_1" xmlns="http://www.w3.org/2000/svg" xmlns:xlink="http://www.w3.org/1999/xlink" x="0px" y="0px"
	 viewBox="0 0 18.1 17.9" style="enable-background:new 0 0 18.1 17.9;" xml:space="preserve">
<style type="text/css">
	.st0{opacity:0.8;}
	.st1{fill:#FFCD40;}
</style>
<g id="XMLID_189_">
	<g id="XMLID_5337_" class="st0">
		<path id="XMLID_5338_" class="st1" d="M11.8,4.7c-0.1-0.2-0.2-0.5-0.3-0.7C10.4,1.3,8,0.3,6,0.3c-2.7,0-5.6,1.8-6,5.5v0.7
			c0,0,0,0.3,0,0.5c0.2,1.8,1.6,3.6,2.6,5.4c1.1,1.9,2.3,3.7,3.4,5.6c0.7-1.2,1.4-2.4,2.1-3.6c0.2-0.3,0.4-0.7,0.6-1
			c0.1-0.2,0.4-0.4,0.5-0.6c1.1-2,2.9-4.1,2.9-6.1V5.7C12.1,5.5,11.8,4.7,11.8,4.7L11.8,4.7z M6,8.4C5.2,8.4,4.4,8,4,7
			C3.9,6.8,3.9,6.4,3.9,6.4V5.9c0-1.4,1.2-2,2.2-2c1.3,0,2.2,1,2.2,2.3C8.3,7.4,7.3,8.4,6,8.4L6,8.4z M6,8.4"/>
	</g>
	<g id="XMLID_165_">
		<polygon id="XMLID_5342_" class="st1" points="12.8,4.6 15.5,0 18.1,4.6 		"/>
	</g>
</g>
</svg>
